<?xml version="1.0" standalone="no"?><!DOCTYPE svg PUBLIC "-//W3C//DTD SVG 1.1//EN" "http://www.w3.org/Graphics/SVG/1.1/DTD/svg11.dtd"><svg width="100%" height="100%" viewBox="0 0 2304 1806" version="1.1" xmlns="http://www.w3.org/2000/svg" xmlns:xlink="http://www.w3.org/1999/xlink" xml:space="preserve" style="fill-rule:evenodd;clip-rule:evenodd;stroke-linecap:round;stroke-linejoin:round;stroke-miterlimit:1.41421;"><g id="DL"><path d="M138.423,339.614l-69.889,58.371c953.126,199.064 1039.18,508.75 368.494,618.826c-53.283,8.745 -59.98,82.411 -62.284,112.688l159.699,-48.682c760.619,-202.779 480.441,-489.999 -108.058,-681.4c-89.206,-29.013 -187.232,-34.676 -287.962,-59.803Z" style="fill:#000;"/><path d="M201.71,391.026l-80.723,49.739c82.189,210.846 95.434,453.793 30.753,678.816l115.844,-27.41c70.346,-334.094 48.357,-572.785 -65.874,-701.145Z" style="fill:#000;stroke-width:0.14px;stroke:#000;"/><path d="M651.62,833.286l-105.743,0c18.083,153.633 14.671,324.726 -63.196,506.358c30.975,-17.582 93.111,-9.337 99.813,-11.94c42.593,-200.61 87.03,-413.641 69.126,-494.418Z" style="fill:#000;"/><path d="M1427.29,1226.33c-135.118,-52.656 -533.488,-3.074 -846.588,53.903l0,47.299c349.625,-54.561 603.431,-54.514 809.942,-27.511l36.646,-73.691Z" style="fill:#000;"/></g><g id="MotorCylce"><path d="M1909.59,964.051c71.694,-8.392 138.767,-12.585 202.243,-4.765c-95.128,18.8 -178.625,53.208 -167.797,115.501" style="fill:none;stroke-width:12.96px;stroke:#000;"/><path d="M1111.72,349.075c-133.583,14.43 -253.539,59.593 -357.324,141.223l10.511,16.354c114.726,-59.253 233.188,-107.165 355.532,-143.286l-8.719,-14.291Z" style="fill:#000;"/><path d="M1506.49,672.9c-101.371,-26.784 -239.475,-11.558 -327.328,-17.622c-66.994,-4.624 -104.767,-25.744 -74.744,-63.046l-40.976,3.21c-52.822,134.588 441.917,62.688 443.048,77.458Z" style="fill:#000;"/><path d="M1267.96,436.918l-19.75,6.785c28.383,59.009 66.461,93.158 110.177,102.324c-9.822,-22.75 -53.71,-68.333 -90.427,-109.109Z" style="fill:#000;"/><path d="M1694.66,445.966c4.96,-153.886 -129.923,-220.74 -368.426,-217.002c200.938,28.389 310.093,52.648 332.184,211.383l36.242,5.619Z" style="fill:#000;"/><path d="M1421.96,337.543l2.543,0.866l1.973,0.983l1.969,0.978l1.97,0.976l1.971,0.975l1.971,0.972l1.973,0.97l1.973,0.969l1.973,0.966l1.975,0.964l1.975,0.962l1.977,0.959l1.976,0.958l1.978,0.955l1.979,0.953l1.98,0.95l1.98,0.949l1.982,0.945l1.982,0.944l1.983,0.941l1.984,0.939l1.985,0.936l1.986,0.934l1.987,0.931l1.988,0.928l1.989,0.926l1.99,0.924l1.991,0.921l1.992,0.918l1.993,0.915l1.994,0.913l1.997,0.91l0.996,0.454l0.999,0.453l0.998,0.452l0.999,0.452l0.999,0.451l0.999,0.451l1,0.449l1,0.449l1,0.449l1,0.447l1.001,0.447l1.001,0.446l1.001,0.445l1.002,0.445l1.002,0.443l1.002,0.444l1.003,0.442l1.002,0.441l1.003,0.441l1.004,0.44l1.004,0.439l1.004,0.439l1.004,0.438l1.005,0.437l1.005,0.436l1.005,0.435l1.005,0.435l1.006,0.434l1.006,0.433l1.007,0.432l1.006,0.431l1.007,0.431l1.008,0.43l1.008,0.429l1.008,0.428l1.008,0.427l1.009,0.427l1.009,0.425l1.009,0.425l1.01,0.424l1.01,0.424l1.011,0.422l1.01,0.422l1.011,0.42l1.012,0.42l1.012,0.419l1.011,0.418l1.013,0.417l1.013,0.417l1.013,0.416l1.013,0.414l1.014,0.414l1.014,0.413l1.015,0.412l1.014,0.411l1.016,0.41l1.015,0.41l1.016,0.408l1.016,0.408l1.017,0.406l1.017,0.406l1.018,0.405l1.017,0.404l1.018,0.403l1.019,0.402l1.019,0.401l1.019,0.401l1.02,0.399l1.02,0.398l1.02,0.398l1.021,0.396l1.021,0.396l1.021,0.395l1.022,0.393l1.023,0.393l1.022,0.392l1.023,0.39l1.024,0.39l1.024,0.389l1.024,0.388l1.024,0.387l1.026,0.386l1.025,0.385l1.026,0.384l1.026,0.383l1.027,0.382l1.027,0.381l1.027,0.38l1.028,0.379l1.028,0.378l1.029,0.377l1.029,0.376l1.03,0.375l1.03,0.374l1.03,0.373l1.03,0.372l1.032,0.37l1.031,0.37l1.032,0.369l1.033,0.368l1.033,0.366l1.033,0.366l1.034,0.365l1.034,0.363l1.035,0.363l1.035,0.361l1.035,0.361l1.036,0.359l1.036,0.358l1.037,0.357l1.038,0.356l1.037,0.355l1.038,0.354l1.039,0.353l1.039,0.352l1.04,0.35l1.04,0.35l1.04,0.348l1.041,0.347l1.041,0.347l1.042,0.345l1.042,0.344l1.043,0.342l1.043,0.342l1.044,0.341l1.044,0.339l1.044,0.338l1.045,0.338l1.046,0.336l1.046,0.335l1.046,0.333l1.047,0.333l1.048,0.331l1.047,0.331l1.049,0.329l1.049,0.328l1.049,0.326l1.05,0.326l1.05,0.324l1.051,0.324l1.052,0.322l1.051,0.321l1.053,0.319l1.052,0.319l1.054,0.317l1.054,0.316l1.054,0.315l1.055,0.314l1.055,0.312l1.056,0.312l1.056,0.31l1.057,0.308l1.057,0.308l1.058,0.306l1.059,0.306l1.059,0.303l1.059,0.303l1.06,0.302l1.06,0.3l1.061,0.299l1.062,0.297l1.062,0.297l1.062,0.295l1.063,0.294l1.064,0.292l1.064,0.292l1.065,0.29l1.065,0.289l1.066,0.287l1.066,0.286l1.067,0.285l1.068,0.284l1.068,0.282l1.068,0.281l1.069,0.28l1.07,0.279l1.07,0.277l1.07,0.276l1.072,0.274l1.072,0.274l1.072,0.271l1.073,0.271l1.073,0.269l1.074,0.268l1.075,0.267l1.075,0.265l1.076,0.264l1.076,0.263l1.077,0.261l1.078,0.26l1.078,0.258l1.078,0.257l1.08,0.256l1.086,0.256l2.363,0.881l2.071,1.44l1.648,1.909l1.123,2.259l0.527,2.466l0.081,0.96l0.081,0.969l0.079,0.969l0.076,0.969l0.075,0.969l0.073,0.969l0.07,0.97l0.068,0.968l0.066,0.97l0.064,0.969l0.061,0.969l0.06,0.969l0.056,0.969l0.055,0.969l0.052,0.97l0.05,0.97l0.047,0.97l0.045,0.969l0.042,0.97l0.039,0.97l0.037,0.97l0.035,0.971l0.031,0.971l0.029,0.97l0.026,0.971l0.024,0.971l0.02,0.972l0.018,0.971l0.015,0.972l0.011,0.972l0.009,0.972l0.006,0.973l0.003,0.968l0,0.492l0,0.486l-0.002,0.486l-0.002,0.486l-0.003,0.486l-0.003,0.489l-0.005,0.488l-0.005,0.486l-0.006,0.486l-0.007,0.487l-0.008,0.488l-0.008,0.487l-0.01,0.489l-0.01,0.487l-0.011,0.486l-0.012,0.489l-0.012,0.487l-0.014,0.487l-0.014,0.489l-0.015,0.488l-0.017,0.488l-0.017,0.489l-0.017,0.487l-0.019,0.489l-0.02,0.489l-0.02,0.488l-0.022,0.489l-0.022,0.488l-0.023,0.49l-0.024,0.488l-0.025,0.489l-0.026,0.49l-0.026,0.489l-0.028,0.489l-0.029,0.489l-0.029,0.49l-0.031,0.49l-0.031,0.49l-0.032,0.491l-0.034,0.489l-0.034,0.49l-0.035,0.49l-0.036,0.491l-0.037,0.49l-0.038,0.49l-0.039,0.491l-0.04,0.49l-0.041,0.492l-0.042,0.492l-0.043,0.49l-0.044,0.491l-0.045,0.492l-0.046,0.492l-0.047,0.492l-0.048,0.492l-0.049,0.49l-0.05,0.492l-0.051,0.493l-0.052,0.492l-0.053,0.493l-0.054,0.493l-0.055,0.492l-0.056,0.492l-0.058,0.492l-0.058,0.494l-0.059,0.494l-0.061,0.492l-0.061,0.494l-0.063,0.494l-0.064,0.494l-0.064,0.493l-0.066,0.494l-0.067,0.495l-0.068,0.493l-0.069,0.494l-0.07,0.496l-0.072,0.494l-0.072,0.494l-0.073,0.496l-0.075,0.496l-0.076,0.494l-0.077,0.495l-0.078,0.496l-0.079,0.496l-0.08,0.495l-0.082,0.496l-0.082,0.497l-0.084,0.495l-0.085,0.496l-0.086,0.498l-0.087,0.496l-0.089,0.497l-0.089,0.497l-0.091,0.497l-0.092,0.498l-0.093,0.497l-0.095,0.497l-0.095,0.498l-0.097,0.498l-0.098,0.497l-0.099,0.499l-0.1,0.498l-0.102,0.499l-0.103,0.499l-0.104,0.499l-0.105,0.499l-0.106,0.498l-0.108,0.499l-0.109,0.5l-0.11,0.499l-0.112,0.5l-0.112,0.5l-0.115,0.5l-0.115,0.501l-0.116,0.501l-0.118,0.499l-0.119,0.501l-0.12,0.501l-0.122,0.501l-0.123,0.502l-0.124,0.501l-0.126,0.502l-0.126,0.501l-0.128,0.501l-0.13,0.503l-0.131,0.503l-0.132,0.501l-0.133,0.502l-0.135,0.503l-0.136,0.503l-0.137,0.504l-0.139,0.503l-0.14,0.503l-0.141,0.504l-0.143,0.504l-0.144,0.504l-0.146,0.504l-0.146,0.504l-0.148,0.504l-0.15,0.504l-0.151,0.506l-0.152,0.505l-0.154,0.506l-0.155,0.504l-0.156,0.506l-0.158,0.506l-0.159,0.506l-0.161,0.506l-0.161,0.505l-0.164,0.507l-0.165,0.507l-0.166,0.506l-0.168,0.508l-0.169,0.507l-0.17,0.507l-0.172,0.508l-0.174,0.508l-0.174,0.507l-0.176,0.507l-0.178,0.509l-0.18,0.51l-0.18,0.508l-0.182,0.508l-0.183,0.509l-0.186,0.51l-0.186,0.509l-0.188,0.509l-0.189,0.51l-0.191,0.511l-0.192,0.509l-0.194,0.51l-0.196,0.511l-0.197,0.511l-0.198,0.511l-0.2,0.511l-0.201,0.511l-0.203,0.512l-0.204,0.512l-0.206,0.512l-0.207,0.512l-0.209,0.512l-0.21,0.512l-0.213,0.514l-0.213,0.513l-0.215,0.512l-0.217,0.514l-0.218,0.514l-0.219,0.513l-0.221,0.514l-0.219,0.503l-1.616,2.577l-2.311,1.977l-2.796,1.197l-3.026,0.31l-0.657,-0.033l-0.664,-0.034l-0.663,-0.035l-0.663,-0.036l-0.662,-0.037l-0.661,-0.037l-0.662,-0.039l-0.66,-0.04l-0.66,-0.04l-0.658,-0.042l-0.659,-0.042l-0.657,-0.044l-0.658,-0.044l-0.656,-0.046l-0.656,-0.046l-0.655,-0.047l-0.654,-0.048l-0.654,-0.049l-0.654,-0.05l-0.652,-0.052l-0.652,-0.051l-0.652,-0.053l-0.651,-0.054l-0.649,-0.055l-0.65,-0.056l-0.649,-0.056l-0.649,-0.058l-0.647,-0.058l-0.647,-0.06l-0.647,-0.06l-0.645,-0.061l-0.645,-0.063l-0.645,-0.063l-0.644,-0.064l-0.643,-0.065l-0.643,-0.066l-0.642,-0.067l-0.642,-0.068l-0.641,-0.069l-0.64,-0.069l-0.64,-0.071l-0.639,-0.072l-0.638,-0.072l-0.638,-0.073l-0.637,-0.075l-0.637,-0.075l-0.636,-0.076l-0.635,-0.077l-0.635,-0.078l-0.634,-0.079l-0.634,-0.08l-0.633,-0.081l-0.632,-0.082l-0.632,-0.082l-0.631,-0.084l-0.631,-0.084l-0.63,-0.085l-0.629,-0.087l-0.629,-0.087l-0.628,-0.088l-0.628,-0.089l-0.627,-0.09l-0.626,-0.091l-0.625,-0.092l-0.626,-0.092l-0.625,-0.094l-0.624,-0.095l-0.623,-0.095l-0.623,-0.096l-0.622,-0.097l-0.622,-0.099l-0.621,-0.099l-0.62,-0.099l-0.62,-0.101l-0.62,-0.102l-0.618,-0.103l-0.618,-0.103l-0.617,-0.105l-0.617,-0.105l-0.617,-0.106l-0.615,-0.108l-0.616,-0.108l-0.615,-0.109l-0.613,-0.109l-0.614,-0.111l-0.613,-0.112l-0.612,-0.112l-0.612,-0.114l-0.611,-0.114l-0.61,-0.116l-0.61,-0.116l-0.61,-0.117l-0.608,-0.118l-0.608,-0.118l-0.608,-0.12l-0.607,-0.121l-0.607,-0.121l-0.606,-0.122l-0.605,-0.124l-0.605,-0.124l-0.604,-0.125l-0.604,-0.126l-0.603,-0.126l-0.603,-0.128l-0.602,-0.129l-0.601,-0.129l-0.6,-0.13l-0.601,-0.132l-0.599,-0.132l-0.599,-0.133l-0.599,-0.133l-0.598,-0.135l-0.597,-0.136l-0.597,-0.136l-0.596,-0.137l-0.596,-0.139l-0.595,-0.139l-0.595,-0.14l-0.594,-0.141l-0.593,-0.141l-0.593,-0.143l-0.592,-0.143l-0.592,-0.145l-0.592,-0.145l-0.59,-0.146l-0.591,-0.147l-0.589,-0.148l-0.589,-0.148l-0.588,-0.15l-0.588,-0.15l-0.588,-0.151l-0.587,-0.152l-0.586,-0.153l-0.586,-0.154l-0.585,-0.155l-0.584,-0.155l-0.585,-0.157l-0.583,-0.157l-0.583,-0.158l-0.582,-0.159l-0.582,-0.16l-0.582,-0.161l-0.581,-0.161l-0.58,-0.163l-0.58,-0.163l-0.579,-0.164l-0.578,-0.165l-0.578,-0.166l-0.578,-0.166l-0.577,-0.168l-0.577,-0.168l-0.575,-0.169l-0.576,-0.17l-0.575,-0.171l-0.574,-0.172l-0.574,-0.173l-0.573,-0.173l-0.573,-0.174l-0.572,-0.175l-0.572,-0.176l-0.571,-0.177l-0.57,-0.178l-0.57,-0.178l-0.57,-0.18l-0.569,-0.18l-0.568,-0.181l-0.568,-0.182l-0.568,-0.182l-0.566,-0.184l-0.566,-0.184l-0.566,-0.185l-0.566,-0.186l-0.565,-0.187l-0.564,-0.188l-0.564,-0.188l-0.563,-0.189l-0.562,-0.19l-0.562,-0.191l-0.563,-0.192l-0.561,-0.193l-0.56,-0.193l-0.561,-0.195l-0.559,-0.195l-0.559,-0.195l-0.559,-0.197l-0.557,-0.198l-0.558,-0.198l-0.557,-0.199l-0.557,-0.2l-0.555,-0.201l-0.556,-0.202l-0.555,-0.202l-0.554,-0.203l-0.555,-0.205l-0.553,-0.205l-0.552,-0.205l-0.553,-0.207l-0.552,-0.207l-0.551,-0.208l-0.551,-0.209l-0.55,-0.21l-0.55,-0.21l-0.55,-0.212l-0.549,-0.212l-0.548,-0.213l-0.547,-0.214l-0.548,-0.214l-0.548,-0.216l-0.545,-0.216l-0.546,-0.217l-0.546,-0.218l-0.545,-0.218l-0.543,-0.22l-0.545,-0.22l-0.543,-0.221l-0.543,-0.222l-0.542,-0.222l-0.543,-0.224l-0.541,-0.224l-0.541,-0.225l-0.54,-0.226l-0.54,-0.226l-0.539,-0.228l-0.539,-0.228l-0.539,-0.229l-0.537,-0.229l-0.538,-0.231l-0.537,-0.231l-0.536,-0.232l-0.537,-0.233l-0.535,-0.234l-0.535,-0.234l-0.534,-0.235l-0.535,-0.236l-0.533,-0.237l-0.534,-0.238l-0.532,-0.238l-0.532,-0.239l-0.532,-0.24l-0.531,-0.241l-0.531,-0.241l-0.53,-0.242l-0.529,-0.243l-0.53,-0.244l-0.529,-0.245l-0.528,-0.245l-0.528,-0.246l-0.528,-0.247l-0.526,-0.247l-0.527,-0.249l-0.526,-0.249l-0.525,-0.25l-0.526,-0.251l-0.524,-0.251l-0.524,-0.252l-0.524,-0.253l-0.523,-0.254l-0.522,-0.254l-0.523,-0.256l-0.522,-0.256l-0.521,-0.256l-0.521,-0.258l-0.52,-0.258l-0.52,-0.259l-0.519,-0.26l-0.519,-0.26l-0.519,-0.262l-0.518,-0.262l-0.518,-0.263l-0.517,-0.263l-0.516,-0.264l-0.517,-0.266l-0.516,-0.266l-0.515,-0.266l-0.515,-0.267l-0.514,-0.269l-0.514,-0.268l-0.513,-0.27l-0.514,-0.27l-0.513,-0.271l-0.511,-0.272l-0.512,-0.272l-0.512,-0.274l-0.511,-0.274l-0.51,-0.274l-0.51,-0.276l-0.509,-0.276l-0.509,-0.277l-0.509,-0.278l-0.508,-0.278l-0.507,-0.279l-0.508,-0.28l-0.507,-0.281l-0.506,-0.281l-0.507,-0.282l-0.505,-0.283l-0.505,-0.284l-0.504,-0.284l-0.504,-0.285l-0.505,-0.285l-0.503,-0.287l-0.503,-0.287l-0.502,-0.288l-0.502,-0.288l-0.502,-0.29l-0.501,-0.29l-0.501,-0.291l-0.5,-0.291l-0.5,-0.292l-0.499,-0.293l-0.5,-0.294l-0.499,-0.295l-0.498,-0.295l-0.497,-0.295l-0.497,-0.296l-0.497,-0.298l-0.498,-0.298l-0.495,-0.298l-0.496,-0.3l-0.495,-0.3l-0.495,-0.301l-0.494,-0.301l-0.494,-0.302l-0.494,-0.303l-0.493,-0.304l-0.493,-0.304l-0.492,-0.305l-0.492,-0.306l-0.492,-0.306l-0.491,-0.307l-0.49,-0.308l-0.49,-0.308l-0.49,-0.31l-0.49,-0.309l-0.489,-0.311l-0.488,-0.311l-0.489,-0.312l-0.487,-0.313l-0.488,-0.313l-0.487,-0.314l-0.487,-0.315l-0.486,-0.316l-0.486,-0.316l-0.485,-0.317l-0.485,-0.317l-0.484,-0.318l-0.485,-0.319l-0.484,-0.32l-0.483,-0.32l-0.483,-0.321l-0.483,-0.322l-0.482,-0.322l-0.482,-0.323l-0.481,-0.323l-0.481,-0.325l-0.481,-0.325l-0.48,-0.326l-0.48,-0.326l-0.479,-0.327l-0.479,-0.327l-0.479,-0.329l-0.479,-0.329l-0.478,-0.33l-0.477,-0.33l-0.477,-0.331l-0.48,-0.334l-0.95,-0.664l-0.95,-0.668l-0.95,-0.67l-0.948,-0.674l-0.946,-0.676l-0.945,-0.679l-0.943,-0.681l-0.942,-0.684l-0.941,-0.687l-0.938,-0.689l-0.938,-0.692l-0.936,-0.695l-0.935,-0.697l-0.932,-0.699l-0.932,-0.703l-0.931,-0.705l-0.929,-0.707l-0.927,-0.71l-0.926,-0.713l-0.925,-0.715l-0.923,-0.717l-0.921,-0.72l-0.921,-0.723l-0.919,-0.725l-0.918,-0.728l-0.916,-0.73l-0.915,-0.733l-0.914,-0.735l-0.912,-0.738l-0.911,-0.741l-0.91,-0.742l-0.908,-0.745l-0.907,-0.748l-0.905,-0.75l-0.905,-0.753l-0.903,-0.755l-0.901,-0.757l-0.901,-0.76l-0.899,-0.762l-0.898,-0.765l-0.897,-0.767l-0.895,-0.77l-0.894,-0.772l-0.893,-0.774l-0.892,-0.777l-0.89,-0.779l-0.89,-0.781l-0.888,-0.784l-0.887,-0.787l-0.885,-0.788l-0.885,-0.791l-0.883,-0.793l-0.882,-0.796l-0.881,-0.798l-0.879,-0.8l-0.879,-0.803l-0.877,-0.804l-0.877,-0.808l-0.875,-0.809l-0.874,-0.812l-0.873,-0.814l-0.871,-0.816l-0.871,-0.819l-0.87,-0.821l-0.868,-0.823l-0.867,-0.825l-0.867,-0.828l-0.865,-0.83l-0.864,-0.832l-0.863,-0.835l-0.862,-0.836l-0.861,-0.839l-0.853,-0.834l-1.73,-2.251l-1.033,-2.643l-0.24,-1.017l-0.24,-1.029l-0.236,-1.028l-0.232,-1.022l-0.116,-0.517l-0.114,-0.513l-0.113,-0.511l-0.113,-0.511l-0.111,-0.511l-0.111,-0.511l-0.11,-0.511l-0.108,-0.51l-0.108,-0.51l-0.107,-0.509l-0.106,-0.508l-0.105,-0.509l-0.104,-0.509l-0.103,-0.508l-0.102,-0.507l-0.101,-0.507l-0.1,-0.506l-0.099,-0.507l-0.098,-0.506l-0.097,-0.505l-0.096,-0.505l-0.094,-0.504l-0.094,-0.504l-0.093,-0.504l-0.092,-0.504l-0.09,-0.502l-0.09,-0.503l-0.088,-0.502l-0.087,-0.502l-0.087,-0.5l-0.085,-0.502l-0.084,-0.5l-0.082,-0.499l-0.082,-0.501l-0.081,-0.499l-0.079,-0.497l-0.078,-0.498l-0.077,-0.498l-0.076,-0.498l-0.075,-0.497l-0.073,-0.496l-0.072,-0.495l-0.071,-0.495l-0.07,-0.496l-0.068,-0.493l-0.067,-0.494l-0.067,-0.494l-0.064,-0.494l-0.064,-0.492l-0.062,-0.491l-0.061,-0.493l-0.059,-0.491l-0.058,-0.489l-0.057,-0.489l-0.056,-0.491l-0.054,-0.488l-0.053,-0.489l-0.051,-0.489l-0.05,-0.486l-0.049,-0.487l-0.047,-0.488l-0.046,-0.486l-0.045,-0.483l-0.043,-0.486l-0.042,-0.485l-0.04,-0.484l-0.039,-0.483l-0.037,-0.483l-0.036,-0.483l-0.034,-0.48l-0.033,-0.481l-0.032,-0.482l-0.029,-0.48l-0.029,-0.48l-0.027,-0.478l-0.025,-0.478l-0.024,-0.479l-0.022,-0.478l-0.02,-0.475l-0.02,-0.476l-0.017,-0.478l-0.016,-0.476l-0.014,-0.473l-0.013,-0.473l-0.011,-0.473l-0.009,-0.474l-0.008,-0.472l-0.006,-0.473l-0.004,-0.472l-0.003,-0.468l-0.001,-0.47l0.001,-0.471l0.003,-0.468l0.004,-0.468l0.006,-0.469l0.007,-0.466l0.01,-0.467l0.011,-0.465l0.013,-0.466l0.015,-0.465l0.017,-0.464l0.018,-0.463l0.02,-0.462l0.023,-0.463l0.024,-0.461l0.026,-0.462l0.027,-0.46l0.03,-0.459l0.032,-0.459l0.033,-0.459l0.036,-0.458l0.037,-0.456l0.039,-0.456l0.042,-0.456l0.043,-0.456l0.045,-0.455l0.048,-0.454l0.049,-0.452l0.051,-0.453l0.054,-0.451l0.055,-0.452l0.058,-0.451l0.059,-0.448l0.062,-0.449l0.064,-0.45l0.066,-0.446l0.068,-0.447l0.07,-0.447l0.073,-0.445l0.074,-0.445l0.077,-0.444l0.079,-0.442l0.081,-0.443l0.084,-0.443l0.086,-0.441l0.088,-0.439l0.09,-0.439l0.092,-0.439l0.095,-0.438l0.097,-0.436l0.1,-0.438l0.102,-0.435l0.104,-0.435l0.107,-0.433l0.108,-0.432l0.112,-0.433l0.114,-0.432l0.116,-0.43l0.119,-0.43l0.121,-0.428l0.123,-0.428l0.126,-0.426l0.129,-0.425l0.131,-0.426l0.133,-0.424l0.137,-0.424l0.138,-0.422l0.141,-0.421l0.144,-0.42l0.146,-0.419l0.149,-0.418l0.152,-0.418l0.154,-0.416l0.157,-0.416l0.16,-0.414l0.162,-0.413l0.164,-0.412l0.168,-0.41l0.169,-0.41l0.174,-0.409l0.175,-0.408l0.178,-0.406l0.182,-0.406l0.184,-0.404l0.185,-0.402l0.19,-0.403l0.192,-0.401l0.195,-0.399l0.197,-0.397l0.201,-0.397l0.204,-0.397l0.205,-0.393l0.209,-0.393l0.212,-0.393l0.214,-0.389l0.218,-0.39l0.22,-0.387l0.223,-0.386l0.226,-0.385l0.229,-0.384l0.233,-0.383l0.233,-0.379l0.238,-0.378l0.241,-0.38l0.243,-0.375l0.247,-0.375l0.249,-0.373l0.251,-0.37l0.256,-0.371l0.258,-0.368l0.26,-0.367l0.264,-0.365l0.267,-0.364l0.27,-0.361l0.272,-0.36l0.277,-0.36l0.277,-0.356l0.281,-0.355l0.285,-0.354l0.288,-0.352l0.29,-0.349l0.293,-0.349l0.296,-0.346l0.298,-0.343l0.303,-0.344l0.305,-0.341l0.307,-0.338l0.311,-0.338l0.315,-0.335l0.316,-0.333l0.319,-0.332l0.323,-0.329l0.325,-0.328l0.329,-0.326l0.331,-0.323l0.334,-0.322l0.337,-0.32l0.34,-0.318l0.342,-0.315l0.346,-0.314l0.349,-0.312l0.351,-0.309l0.355,-0.308l0.356,-0.305l0.361,-0.304l0.363,-0.301l0.366,-0.3l0.369,-0.297l0.371,-0.295l0.375,-0.293l0.377,-0.291l0.38,-0.289l0.383,-0.286l0.386,-0.285l0.389,-0.282l0.39,-0.28l0.395,-0.279l0.369,-0.256l2.391,-1.225l2.629,-0.55l2.681,0.164ZM1419.67,347.668l-0.337,0.237l-0.333,0.239l-0.331,0.241l-0.328,0.242l-0.326,0.243l-0.323,0.246l-0.32,0.246l-0.317,0.249l-0.315,0.249l-0.311,0.252l-0.31,0.253l-0.306,0.255l-0.304,0.256l-0.301,0.257l-0.299,0.26l-0.296,0.26l-0.293,0.263l-0.291,0.263l-0.288,0.266l-0.286,0.267l-0.282,0.268l-0.281,0.27l-0.277,0.271l-0.276,0.273l-0.272,0.274l-0.27,0.276l-0.267,0.278l-0.265,0.279l-0.263,0.28l-0.259,0.282l-0.258,0.283l-0.254,0.285l-0.253,0.286l-0.249,0.288l-0.247,0.289l-0.245,0.29l-0.242,0.292l-0.24,0.294l-0.237,0.295l-0.235,0.296l-0.233,0.298l-0.23,0.299l-0.227,0.301l-0.225,0.302l-0.223,0.303l-0.22,0.305l-0.218,0.306l-0.215,0.308l-0.213,0.309l-0.211,0.31l-0.208,0.312l-0.206,0.313l-0.204,0.315l-0.201,0.315l-0.199,0.318l-0.196,0.318l-0.194,0.32l-0.192,0.322l-0.19,0.322l-0.187,0.324l-0.185,0.326l-0.182,0.326l-0.181,0.329l-0.178,0.329l-0.175,0.331l-0.174,0.332l-0.171,0.333l-0.169,0.335l-0.167,0.335l-0.164,0.338l-0.163,0.338l-0.16,0.34l-0.158,0.341l-0.155,0.343l-0.154,0.343l-0.151,0.345l-0.149,0.346l-0.147,0.348l-0.145,0.349l-0.143,0.35l-0.14,0.351l-0.138,0.352l-0.137,0.354l-0.134,0.355l-0.131,0.356l-0.13,0.358l-0.128,0.358l-0.126,0.36l-0.123,0.361l-0.122,0.363l-0.119,0.363l-0.117,0.365l-0.115,0.366l-0.114,0.367l-0.111,0.368l-0.109,0.37l-0.107,0.37l-0.105,0.372l-0.103,0.373l-0.101,0.374l-0.099,0.376l-0.097,0.376l-0.095,0.378l-0.093,0.379l-0.091,0.38l-0.09,0.381l-0.087,0.382l-0.085,0.383l-0.083,0.385l-0.082,0.385l-0.079,0.387l-0.078,0.388l-0.075,0.389l-0.074,0.39l-0.072,0.391l-0.07,0.392l-0.068,0.394l-0.066,0.394l-0.064,0.396l-0.063,0.396l-0.06,0.398l-0.059,0.399l-0.057,0.4l-0.055,0.401l-0.054,0.401l-0.051,0.403l-0.05,0.405l-0.048,0.405l-0.046,0.406l-0.044,0.407l-0.043,0.408l-0.041,0.409l-0.039,0.411l-0.037,0.411l-0.035,0.412l-0.034,0.414l-0.032,0.414l-0.031,0.415l-0.028,0.416l-0.027,0.418l-0.025,0.418l-0.024,0.419l-0.022,0.42l-0.02,0.422l-0.019,0.422l-0.017,0.423l-0.015,0.424l-0.013,0.425l-0.012,0.426l-0.011,0.427l-0.008,0.428l-0.007,0.429l-0.006,0.43l-0.004,0.43l-0.002,0.432l-0.001,0.433l0.001,0.433l0.003,0.435l0.004,0.435l0.005,0.436l0.007,0.437l0.009,0.438l0.01,0.439l0.012,0.44l0.013,0.441l0.015,0.441l0.016,0.443l0.018,0.443l0.019,0.444l0.021,0.445l0.022,0.446l0.024,0.447l0.025,0.447l0.026,0.449l0.028,0.449l0.029,0.45l0.031,0.451l0.033,0.451l0.033,0.453l0.035,0.453l0.037,0.455l0.038,0.455l0.039,0.455l0.04,0.457l0.042,0.457l0.044,0.458l0.044,0.459l0.046,0.46l0.048,0.461l0.048,0.461l0.05,0.462l0.052,0.463l0.052,0.463l0.054,0.465l0.055,0.465l0.057,0.466l0.057,0.466l0.059,0.468l0.061,0.468l0.061,0.468l0.063,0.47l0.064,0.47l0.065,0.471l0.067,0.472l0.067,0.472l0.069,0.473l0.07,0.474l0.072,0.474l0.072,0.475l0.074,0.476l0.074,0.477l0.076,0.477l0.077,0.478l0.079,0.478l0.079,0.479l0.081,0.48l0.081,0.481l0.083,0.481l0.084,0.481l0.085,0.483l0.086,0.483l0.087,0.484l0.088,0.484l0.089,0.485l0.091,0.485l0.091,0.486l0.093,0.487l0.093,0.488l0.095,0.488l0.095,0.488l0.097,0.489l0.097,0.49l0.099,0.49l0.099,0.491l0.101,0.492l0.102,0.492l0.102,0.492l0.104,0.494l0.104,0.493l0.105,0.495l0.107,0.495l0.107,0.495l0.108,0.496l0.109,0.496l0.11,0.497l0.111,0.498l0.112,0.498l0.226,0.997l0.23,1l0.233,1.002l0.237,1.003l0.846,0.828l0.847,0.825l0.848,0.823l0.849,0.821l0.85,0.818l0.851,0.816l0.852,0.814l0.853,0.812l0.853,0.809l0.855,0.807l0.856,0.805l0.857,0.802l0.858,0.8l0.859,0.798l0.859,0.796l0.861,0.793l0.862,0.79l0.863,0.789l0.864,0.786l0.865,0.783l0.867,0.782l0.867,0.779l0.868,0.776l0.87,0.774l0.87,0.772l0.872,0.769l0.872,0.767l0.874,0.765l0.875,0.762l0.876,0.76l0.877,0.757l0.879,0.755l0.879,0.752l0.881,0.75l0.882,0.748l0.883,0.745l0.884,0.742l0.885,0.741l0.886,0.737l0.888,0.736l0.889,0.732l0.89,0.73l0.891,0.728l0.893,0.725l0.893,0.723l0.895,0.72l0.897,0.718l0.897,0.715l0.899,0.713l0.9,0.71l0.901,0.708l0.902,0.705l0.904,0.702l0.905,0.7l0.906,0.698l0.908,0.694l0.909,0.693l0.91,0.689l0.912,0.687l0.912,0.685l0.915,0.682l0.915,0.679l0.917,0.677l0.918,0.674l0.92,0.671l0.921,0.669l0.922,0.666l0.923,0.664l0.925,0.661l0.927,0.658l0.928,0.655l0.929,0.653l0.931,0.651l0.465,0.324l0.467,0.323l0.466,0.323l0.467,0.322l0.467,0.322l0.468,0.32l0.468,0.321l0.468,0.319l0.469,0.319l0.469,0.318l0.469,0.317l0.47,0.317l0.47,0.316l0.471,0.315l0.471,0.315l0.471,0.314l0.472,0.313l0.472,0.313l0.472,0.312l0.473,0.311l0.473,0.311l0.473,0.31l0.474,0.309l0.474,0.309l0.475,0.308l0.475,0.307l0.475,0.306l0.476,0.306l0.476,0.305l0.476,0.305l0.477,0.304l0.477,0.303l0.478,0.302l0.478,0.302l0.478,0.301l0.479,0.3l0.479,0.3l0.479,0.299l0.48,0.298l0.481,0.297l0.48,0.297l0.481,0.296l0.482,0.296l0.482,0.294l0.482,0.294l0.482,0.294l0.483,0.292l0.484,0.292l0.483,0.291l0.485,0.291l0.484,0.29l0.485,0.289l0.486,0.288l0.485,0.288l0.486,0.287l0.487,0.286l0.487,0.286l0.487,0.285l0.488,0.284l0.488,0.283l0.489,0.283l0.489,0.282l0.489,0.281l0.49,0.281l0.49,0.28l0.491,0.279l0.49,0.279l0.492,0.277l0.492,0.277l0.492,0.277l0.493,0.275l0.493,0.275l0.493,0.274l0.494,0.274l0.494,0.272l0.495,0.272l0.495,0.272l0.495,0.27l0.496,0.27l0.497,0.269l0.497,0.268l0.497,0.268l0.497,0.267l0.498,0.266l0.499,0.265l0.499,0.265l0.499,0.264l0.5,0.263l0.5,0.263l0.501,0.262l0.501,0.261l0.501,0.26l0.502,0.26l0.502,0.259l0.503,0.258l0.503,0.257l0.504,0.257l0.504,0.256l0.504,0.255l0.505,0.254l0.505,0.254l0.506,0.253l0.506,0.252l0.507,0.252l0.507,0.25l0.508,0.25l0.508,0.25l0.508,0.248l0.509,0.248l0.509,0.247l0.51,0.246l0.51,0.246l0.511,0.244l0.511,0.245l0.511,0.243l0.512,0.242l0.513,0.242l0.513,0.241l0.513,0.24l0.514,0.24l0.514,0.239l0.515,0.238l0.515,0.237l0.515,0.236l0.516,0.236l0.517,0.235l0.517,0.234l0.517,0.234l0.518,0.232l0.518,0.232l0.519,0.231l0.519,0.231l0.52,0.229l0.52,0.229l0.521,0.228l0.521,0.228l0.522,0.226l0.522,0.226l0.522,0.225l0.523,0.225l0.524,0.223l0.523,0.223l0.525,0.222l0.525,0.221l0.525,0.22l0.526,0.22l0.526,0.219l0.527,0.218l0.527,0.217l0.528,0.217l0.528,0.216l0.529,0.215l0.529,0.214l0.529,0.213l0.53,0.213l0.531,0.212l0.531,0.211l0.531,0.21l0.533,0.21l0.532,0.209l0.533,0.208l0.533,0.207l0.534,0.206l0.535,0.206l0.535,0.205l0.535,0.204l0.536,0.203l0.537,0.203l0.536,0.201l0.538,0.201l0.538,0.2l0.538,0.2l0.539,0.198l0.539,0.198l0.54,0.197l0.54,0.196l0.541,0.195l0.542,0.195l0.542,0.194l0.542,0.193l0.543,0.192l0.543,0.191l0.544,0.191l0.544,0.19l0.545,0.189l0.546,0.188l0.545,0.187l0.547,0.187l0.547,0.186l0.547,0.184l0.548,0.185l0.548,0.183l0.549,0.183l0.55,0.181l0.55,0.181l0.55,0.18l0.551,0.18l0.552,0.178l0.552,0.178l0.552,0.177l0.553,0.176l0.554,0.175l0.554,0.175l0.555,0.173l0.555,0.173l0.556,0.172l0.556,0.171l0.556,0.171l0.558,0.169l0.557,0.169l0.559,0.168l0.558,0.167l0.56,0.166l0.56,0.166l0.56,0.164l0.561,0.164l0.561,0.163l0.562,0.162l0.563,0.162l0.563,0.16l0.564,0.16l0.564,0.159l0.564,0.158l0.566,0.157l0.565,0.156l0.567,0.156l0.566,0.154l0.568,0.154l0.568,0.153l0.568,0.153l0.569,0.151l0.57,0.15l0.57,0.15l0.57,0.149l0.571,0.148l0.572,0.147l0.572,0.147l0.573,0.145l0.574,0.145l0.573,0.144l0.575,0.143l0.575,0.142l0.575,0.141l0.577,0.141l0.576,0.139l0.577,0.139l0.578,0.138l0.579,0.137l0.578,0.136l0.58,0.136l0.58,0.134l0.58,0.134l0.582,0.133l0.581,0.132l0.582,0.131l0.583,0.131l0.584,0.129l0.584,0.129l0.584,0.127l0.585,0.127l0.586,0.126l0.586,0.125l0.587,0.125l0.587,0.123l0.588,0.123l0.589,0.122l0.589,0.121l0.589,0.12l0.59,0.119l0.591,0.118l0.592,0.118l0.592,0.116l0.592,0.116l0.593,0.115l0.594,0.114l0.594,0.113l0.595,0.112l0.595,0.112l0.596,0.11l0.597,0.11l0.597,0.109l0.598,0.107l0.598,0.108l0.599,0.106l0.599,0.105l0.601,0.104l0.6,0.104l0.602,0.103l0.601,0.102l0.603,0.1l0.603,0.1l0.604,0.1l0.604,0.098l0.605,0.097l0.605,0.097l0.606,0.096l0.607,0.094l0.607,0.094l0.608,0.093l0.608,0.092l0.609,0.092l0.61,0.09l0.61,0.09l0.611,0.088l0.611,0.088l0.612,0.087l0.613,0.086l0.613,0.085l0.614,0.084l0.614,0.083l0.615,0.082l0.616,0.082l0.616,0.081l0.617,0.079l0.618,0.079l0.618,0.078l0.618,0.077l0.62,0.076l0.62,0.075l0.62,0.075l0.621,0.073l0.622,0.073l0.623,0.071l0.623,0.071l0.623,0.07l0.625,0.069l0.624,0.068l0.626,0.067l0.626,0.066l0.627,0.065l0.627,0.065l0.628,0.063l0.629,0.063l0.629,0.062l0.63,0.06l0.631,0.06l0.631,0.059l0.632,0.058l0.632,0.057l0.633,0.057l0.634,0.055l0.634,0.054l0.635,0.054l0.636,0.052l0.636,0.052l0.637,0.051l0.637,0.05l0.638,0.048l0.639,0.048l0.64,0.048l0.64,0.046l0.64,0.045l0.642,0.044l0.642,0.044l0.642,0.042l0.644,0.042l0.644,0.04l0.644,0.04l0.645,0.039l0.646,0.037l0.647,0.037l0.647,0.036l0.648,0.035l0.648,0.035l0.649,0.033l0.65,0.032l0.213,-0.492l0.212,-0.492l0.21,-0.491l0.209,-0.491l0.207,-0.491l0.205,-0.491l0.205,-0.491l0.202,-0.49l0.201,-0.49l0.2,-0.49l0.198,-0.489l0.197,-0.49l0.195,-0.489l0.194,-0.488l0.193,-0.489l0.191,-0.489l0.189,-0.488l0.188,-0.488l0.187,-0.487l0.185,-0.488l0.184,-0.487l0.182,-0.487l0.181,-0.487l0.179,-0.487l0.178,-0.486l0.177,-0.487l0.175,-0.486l0.174,-0.486l0.172,-0.485l0.171,-0.486l0.17,-0.485l0.168,-0.485l0.167,-0.485l0.166,-0.484l0.164,-0.485l0.162,-0.484l0.162,-0.484l0.16,-0.484l0.158,-0.483l0.158,-0.484l0.156,-0.483l0.154,-0.483l0.153,-0.483l0.152,-0.483l0.151,-0.482l0.149,-0.483l0.148,-0.482l0.147,-0.482l0.145,-0.481l0.144,-0.482l0.143,-0.481l0.141,-0.482l0.14,-0.481l0.139,-0.481l0.137,-0.48l0.136,-0.481l0.135,-0.48l0.134,-0.481l0.132,-0.48l0.131,-0.48l0.13,-0.479l0.128,-0.48l0.127,-0.479l0.126,-0.48l0.125,-0.479l0.124,-0.479l0.122,-0.478l0.121,-0.479l0.119,-0.479l0.119,-0.478l0.117,-0.478l0.116,-0.478l0.115,-0.478l0.114,-0.478l0.112,-0.477l0.111,-0.478l0.11,-0.477l0.109,-0.477l0.108,-0.477l0.106,-0.477l0.105,-0.477l0.104,-0.477l0.103,-0.476l0.102,-0.477l0.1,-0.476l0.099,-0.476l0.098,-0.476l0.097,-0.476l0.096,-0.476l0.095,-0.475l0.093,-0.476l0.093,-0.475l0.091,-0.476l0.09,-0.475l0.089,-0.475l0.088,-0.475l0.087,-0.475l0.085,-0.474l0.085,-0.475l0.083,-0.474l0.082,-0.475l0.081,-0.474l0.08,-0.474l0.079,-0.474l0.078,-0.474l0.077,-0.474l0.076,-0.474l0.074,-0.474l0.074,-0.473l0.072,-0.474l0.072,-0.473l0.07,-0.473l0.069,-0.474l0.068,-0.473l0.067,-0.473l0.067,-0.473l0.065,-0.473l0.064,-0.473l0.063,-0.472l0.062,-0.473l0.06,-0.472l0.06,-0.473l0.059,-0.472l0.058,-0.473l0.057,-0.472l0.056,-0.472l0.055,-0.472l0.053,-0.472l0.053,-0.472l0.052,-0.472l0.051,-0.472l0.05,-0.472l0.049,-0.471l0.048,-0.472l0.047,-0.472l0.046,-0.471l0.045,-0.472l0.044,-0.471l0.043,-0.472l0.042,-0.471l0.041,-0.471l0.041,-0.471l0.039,-0.472l0.038,-0.471l0.038,-0.471l0.036,-0.471l0.036,-0.471l0.035,-0.471l0.033,-0.471l0.033,-0.471l0.032,-0.47l0.031,-0.471l0.03,-0.471l0.03,-0.471l0.028,-0.47l0.028,-0.471l0.026,-0.471l0.026,-0.47l0.025,-0.471l0.024,-0.471l0.023,-0.47l0.022,-0.471l0.021,-0.47l0.021,-0.471l0.02,-0.47l0.019,-0.471l0.018,-0.47l0.017,-0.471l0.016,-0.47l0.016,-0.47l0.014,-0.471l0.014,-0.47l0.013,-0.471l0.012,-0.47l0.012,-0.47l0.011,-0.471l0.009,-0.47l0.009,-0.47l0.009,-0.471l0.007,-0.47l0.007,-0.471l0.006,-0.47l0.005,-0.47l0.004,-0.471l0.003,-0.47l0.003,-0.471l0.002,-0.47l0.002,-0.471l0,-0.47l0,-0.471l-0.003,-0.941l-0.005,-0.941l-0.009,-0.941l-0.011,-0.941l-0.015,-0.942l-0.017,-0.942l-0.02,-0.941l-0.022,-0.942l-0.026,-0.942l-0.028,-0.943l-0.03,-0.942l-0.034,-0.943l-0.036,-0.942l-0.038,-0.944l-0.041,-0.943l-0.044,-0.943l-0.046,-0.944l-0.048,-0.944l-0.051,-0.945l-0.053,-0.944l-0.055,-0.945l-0.058,-0.945l-0.06,-0.946l-0.062,-0.946l-0.065,-0.946l-0.066,-0.947l-0.069,-0.947l-0.071,-0.947l-0.073,-0.948l-0.075,-0.948l-0.077,-0.948l-0.079,-0.949l-0.081,-0.95l-1.093,-0.257l-1.092,-0.259l-1.091,-0.26l-1.091,-0.262l-1.091,-0.263l-1.089,-0.264l-1.089,-0.266l-1.089,-0.267l-1.088,-0.268l-1.087,-0.27l-1.087,-0.271l-1.086,-0.272l-1.085,-0.274l-1.085,-0.275l-1.084,-0.277l-1.084,-0.277l-1.083,-0.279l-1.083,-0.281l-1.082,-0.282l-1.081,-0.283l-1.081,-0.284l-1.08,-0.285l-1.08,-0.287l-1.079,-0.289l-1.078,-0.289l-1.078,-0.291l-1.078,-0.292l-1.077,-0.293l-1.076,-0.295l-1.075,-0.296l-1.075,-0.297l-1.075,-0.299l-1.074,-0.299l-1.073,-0.301l-1.073,-0.303l-1.072,-0.303l-1.072,-0.305l-1.071,-0.306l-1.071,-0.307l-1.07,-0.309l-1.069,-0.31l-1.069,-0.311l-1.069,-0.312l-1.068,-0.313l-1.067,-0.315l-1.067,-0.316l-1.066,-0.317l-1.066,-0.318l-1.065,-0.32l-1.065,-0.32l-1.064,-0.322l-1.063,-0.323l-1.063,-0.325l-1.063,-0.325l-1.062,-0.327l-1.061,-0.328l-1.061,-0.329l-1.061,-0.33l-1.06,-0.331l-1.059,-0.333l-1.059,-0.334l-1.058,-0.334l-1.058,-0.337l-1.057,-0.337l-1.057,-0.338l-1.056,-0.34l-1.056,-0.34l-1.056,-0.342l-1.054,-0.343l-1.055,-0.344l-1.053,-0.345l-1.054,-0.346l-1.052,-0.348l-1.053,-0.348l-1.051,-0.35l-1.052,-0.351l-1.051,-0.352l-1.05,-0.353l-1.05,-0.354l-1.049,-0.355l-1.049,-0.356l-1.048,-0.358l-1.048,-0.358l-1.048,-0.36l-1.046,-0.36l-1.047,-0.362l-1.046,-0.363l-1.045,-0.364l-1.045,-0.364l-1.045,-0.366l-1.044,-0.367l-1.044,-0.369l-1.043,-0.369l-1.042,-0.37l-1.043,-0.371l-1.041,-0.372l-1.042,-0.374l-1.04,-0.374l-1.041,-0.375l-1.04,-0.377l-1.039,-0.377l-1.039,-0.378l-1.039,-0.38l-1.038,-0.38l-1.038,-0.382l-1.037,-0.382l-1.037,-0.384l-1.036,-0.384l-1.036,-0.386l-1.035,-0.386l-1.035,-0.387l-1.035,-0.389l-1.034,-0.389l-1.034,-0.391l-1.033,-0.391l-1.033,-0.392l-1.032,-0.393l-1.032,-0.395l-1.032,-0.395l-1.031,-0.396l-1.031,-0.397l-1.03,-0.398l-1.03,-0.399l-1.029,-0.4l-1.029,-0.401l-1.029,-0.402l-1.028,-0.402l-1.028,-0.404l-1.027,-0.404l-1.027,-0.406l-1.027,-0.406l-1.026,-0.408l-1.026,-0.408l-1.025,-0.409l-1.025,-0.41l-1.025,-0.411l-1.024,-0.412l-1.024,-0.412l-1.023,-0.414l-1.023,-0.414l-1.023,-0.416l-1.022,-0.416l-1.022,-0.417l-1.022,-0.418l-1.021,-0.419l-1.02,-0.419l-1.021,-0.421l-1.02,-0.421l-1.019,-0.423l-1.019,-0.423l-1.019,-0.424l-1.019,-0.424l-1.018,-0.426l-1.017,-0.426l-1.018,-0.428l-1.017,-0.428l-1.016,-0.429l-1.016,-0.429l-1.016,-0.431l-1.016,-0.431l-1.015,-0.432l-1.015,-0.433l-1.014,-0.434l-1.014,-0.435l-1.014,-0.435l-1.013,-0.436l-1.013,-0.437l-1.013,-0.438l-1.012,-0.438l-1.012,-0.439l-1.012,-0.44l-1.011,-0.441l-1.011,-0.442l-1.011,-0.442l-1.01,-0.443l-1.01,-0.444l-1.01,-0.444l-1.009,-0.446l-1.009,-0.446l-1.009,-0.447l-1.008,-0.447l-1.008,-0.448l-1.008,-0.449l-1.007,-0.45l-1.007,-0.451l-1.007,-0.451l-1.006,-0.452l-1.006,-0.452l-1.006,-0.453l-1.006,-0.454l-1.005,-0.455l-1.005,-0.455l-1.004,-0.457l-1.004,-0.456l-2.008,-0.916l-2.006,-0.918l-2.005,-0.921l-2.004,-0.924l-2.003,-0.926l-2.002,-0.929l-2,-0.931l-2,-0.934l-1.998,-0.937l-1.997,-0.938l-1.996,-0.942l-1.995,-0.944l-1.994,-0.946l-1.993,-0.948l-1.992,-0.951l-1.99,-0.954l-1.99,-0.955l-1.989,-0.958l-1.988,-0.96l-1.987,-0.962l-1.986,-0.964l-1.984,-0.967l-1.984,-0.968l-1.984,-0.971l-1.982,-0.973l-1.981,-0.974l-1.98,-0.977l-1.98,-0.979l-1.978,-0.98l-1.978,-0.983l-1.977,-0.984l-0.339,0.235Z" style="fill:#000;"/><path d="M1242.06,539.54l2.057,1.295l41.717,37.81l1.198,-0.036l2.015,-0.059l2.015,-0.055l2.013,-0.053l2.014,-0.05l2.013,-0.046l2.012,-0.044l2.012,-0.041l2.011,-0.038l2.011,-0.035l2.01,-0.032l2.01,-0.03l2.009,-0.026l2.009,-0.023l2.008,-0.021l2.007,-0.018l2.007,-0.014l2.007,-0.012l2.006,-0.009l2.005,-0.006l2.005,-0.003l2.004,-0.001l2.004,0.003l2.003,0.005l2.003,0.009l2.002,0.011l2.002,0.014l2.001,0.017l2.001,0.02l2,0.023l1.999,0.026l1.999,0.028l1.999,0.031l1.998,0.035l1.997,0.037l1.997,0.04l1.997,0.042l1.996,0.046l1.995,0.049l1.995,0.051l1.994,0.054l1.994,0.057l1.993,0.06l1.993,0.063l1.992,0.066l1.992,0.068l1.991,0.071l1.991,0.075l1.99,0.077l1.989,0.079l1.989,0.083l1.989,0.085l1.988,0.089l1.988,0.091l1.986,0.094l1.987,0.097l1.986,0.099l1.985,0.102l1.985,0.106l1.985,0.108l1.984,0.11l1.983,0.114l1.983,0.117l1.982,0.119l1.982,0.122l1.981,0.125l1.981,0.127l1.98,0.131l1.98,0.133l1.979,0.136l1.979,0.139l1.978,0.141l1.978,0.145l1.977,0.147l1.976,0.15l1.976,0.153l1.976,0.155l1.975,0.158l1.975,0.161l1.974,0.164l1.973,0.167l1.973,0.169l1.973,0.172l1.972,0.175l1.971,0.178l1.971,0.18l1.971,0.183l1.97,0.186l1.969,0.189l1.969,0.191l1.969,0.194l1.967,0.197l1.968,0.2l1.967,0.202l1.966,0.205l1.966,0.208l1.966,0.211l1.964,0.213l1.965,0.216l1.964,0.219l1.963,0.221l1.963,0.225l1.962,0.227l1.962,0.229l1.961,0.233l1.961,0.235l1.961,0.238l1.959,0.24l1.96,0.243l1.958,0.246l1.959,0.249l1.957,0.251l1.958,0.254l1.957,0.257l1.956,0.26l1.956,0.262l1.955,0.265l1.955,0.267l1.954,0.27l1.954,0.273l1.953,0.276l1.953,0.278l1.952,0.281l1.952,0.284l1.951,0.286l1.951,0.289l1.946,0.291l2.305,0.772l1.902,1.513l1.27,2.073l0.485,2.382l-0.36,2.405l-1.16,2.136l-1.821,1.611l-2.262,0.891l-2.43,0.063l-1.936,-0.289l-1.932,-0.287l-1.932,-0.283l-1.933,-0.281l-1.933,-0.278l-1.933,-0.276l-1.935,-0.273l-1.934,-0.27l-1.935,-0.268l-1.936,-0.264l-1.936,-0.263l-1.936,-0.259l-1.937,-0.257l-1.938,-0.254l-1.938,-0.252l-1.938,-0.249l-1.939,-0.246l-1.94,-0.244l-1.94,-0.24l-1.94,-0.239l-1.941,-0.235l-1.942,-0.233l-1.941,-0.23l-1.943,-0.227l-1.943,-0.225l-1.943,-0.222l-1.944,-0.219l-1.945,-0.217l-1.944,-0.214l-1.946,-0.211l-1.946,-0.209l-1.946,-0.205l-1.947,-0.203l-1.947,-0.201l-1.948,-0.197l-1.948,-0.195l-1.949,-0.193l-1.949,-0.189l-1.95,-0.187l-1.951,-0.184l-1.95,-0.181l-1.952,-0.179l-1.951,-0.176l-1.953,-0.173l-1.953,-0.17l-1.953,-0.168l-1.954,-0.165l-1.954,-0.162l-1.955,-0.159l-1.955,-0.157l-1.956,-0.154l-1.956,-0.151l-1.957,-0.148l-1.958,-0.146l-1.958,-0.143l-1.958,-0.14l-1.959,-0.138l-1.959,-0.134l-1.96,-0.132l-1.96,-0.129l-1.961,-0.127l-1.962,-0.123l-1.962,-0.121l-1.962,-0.118l-1.963,-0.115l-1.963,-0.113l-1.964,-0.11l-1.965,-0.106l-1.965,-0.105l-1.965,-0.101l-1.966,-0.099l-1.967,-0.095l-1.966,-0.093l-1.968,-0.09l-1.968,-0.088l-1.969,-0.084l-1.969,-0.082l-1.969,-0.079l-1.97,-0.076l-1.971,-0.074l-1.971,-0.07l-1.972,-0.068l-1.972,-0.065l-1.972,-0.062l-1.974,-0.06l-1.973,-0.056l-1.975,-0.054l-1.974,-0.051l-1.976,-0.048l-1.976,-0.045l-1.976,-0.042l-1.977,-0.04l-1.977,-0.037l-1.978,-0.033l-1.978,-0.032l-1.979,-0.028l-1.98,-0.025l-1.98,-0.023l-1.98,-0.019l-1.981,-0.017l-1.982,-0.014l-1.982,-0.011l-1.982,-0.009l-1.983,-0.005l-1.984,-0.003l-1.984,0.001l-1.985,0.003l-1.985,0.006l-1.986,0.009l-1.986,0.011l-1.987,0.015l-1.987,0.017l-1.988,0.021l-1.989,0.023l-1.988,0.026l-1.99,0.029l-1.99,0.032l-1.99,0.035l-1.991,0.037l-1.992,0.041l-1.992,0.043l-1.993,0.046l-1.993,0.05l-1.994,0.052l-1.994,0.055l-1.995,0.058l-1.995,0.06l-2.001,0.064l-1.78,-0.171l-1.677,-0.617l-1.467,-1.022l-43.813,-39.708l-1.49,-1.921l-0.744,-2.314l0.093,-2.43l0.918,-2.251l1.633,-1.801l2.15,-1.134l2.408,-0.331l2.377,0.513Z" style="fill:#000;"/><path d="M1680.1,670.498l-79.788,-59.679l-7.692,8.818c28.144,16.853 54.229,35.804 75.065,60.105l12.415,-9.244Z" style="fill:#000;stroke-width:1.37px;stroke:#000;"/><path d="M1668.29,679.332c-1.624,0.233 -7.439,-7.054 -7.344,-7.016c4.16,1.664 -7,5.314 -11.266,7.156c-11.576,4.999 -24.426,7.303 -32.586,12.431c-7.489,4.707 -10.543,12.175 -15.454,18.079c-2.369,2.848 -5.52,4.503 -6.847,7.809l4.406,11.339l10.495,-13.404l20.751,-18.663l35.602,-13.95c0.553,-1.555 3.589,-3.973 2.243,-3.781Z" style="fill:#000;stroke-width:1.37px;stroke:#000;"/><path d="M1550.64,660.701c16.36,-0.095 21.835,5.703 26.39,13.766c4.909,8.688 -8.347,20.013 -26.39,13.766c-22.772,-7.884 -28.256,-8.973 -26.391,-13.766c4.006,-10.289 11.065,-13.677 26.391,-13.766Z" style="fill:#000;stroke-width:1.37px;stroke:#000;"/><path d="M1537.88,684.108c-4.7,-1.723 -9.35,-3.59 -13.656,-6.478c4.666,27.391 37.836,41.89 74.906,51.4l-4.456,-11.492c-30.413,-5.44 -49.101,-10.82 -56.794,-33.43Z" style="fill:#000;stroke-width:1.37px;stroke:#000;"/><path d="M1759.55,511.583l-40.433,8.215c360.012,221.182 579.674,409.69 95.368,382.875c134.201,77.194 671.08,93.857 -54.935,-391.09Z" style="fill:#000;"/><path d="M2068.88,1004.4c-3.468,-7.108 -3.932,-10.112 -0.005,-7.936c288.133,159.665 202.886,655.642 -258.729,570.795c-222.832,-40.957 -352.937,-174.384 -373.698,-362.78c-0.821,-7.457 -0.341,-10.196 1.442,-9.193c-0.247,1.406 -0.221,3.477 0.088,6.276c18.715,169.841 156.931,287.545 357.816,324.468c416.15,76.49 536.552,-380.013 276.797,-523.953c-2.352,-1.304 -3.509,-0.426 -3.711,2.323Z" style="fill:#000;"/></g><g transform="matrix(1,0,0,1,275.442,78.2464)"><text x="-48.791px" y="1404.21px" style="font-family:'PermanentMarker';font-size:190px;fill:#000;">Mo<tspan x="246.228px 331.58px 451.072px " y="1404.21px 1404.21px 1404.21px ">tor</tspan></text><text x="624.187px" y="1404.21px" style="font-family:'PermanentMarker';font-size:190px;fill:#f00;">S<tspan x="731.804px 831.443px 950.935px 1047.98px " y="1404.21px 1404.21px 1404.21px 1404.21px ">port</tspan></text></g></svg>