<?xml version="1.0" standalone="no"?><!DOCTYPE svg PUBLIC "-//W3C//DTD SVG 1.1//EN" "http://www.w3.org/Graphics/SVG/1.1/DTD/svg11.dtd"><svg width="100%" height="100%" viewBox="0 0 1728 864" version="1.1" xmlns="http://www.w3.org/2000/svg" xmlns:xlink="http://www.w3.org/1999/xlink" xml:space="preserve" style="fill-rule:evenodd;clip-rule:evenodd;stroke-linecap:round;stroke-linejoin:round;stroke-miterlimit:1.41421;"><g><g id="DL"><path d="M101.008,199.007l-32.4,27.199c441.86,92.759 481.753,237.064 170.831,288.356c-24.702,4.075 -27.807,38.401 -28.875,52.51l74.035,-22.685c352.616,-94.489 222.728,-228.326 -50.095,-317.514c-41.354,-13.519 -86.799,-16.158 -133.496,-27.866Z" style="fill:#000;"/><path d="M130.348,222.963l-37.423,23.177c38.102,98.249 44.242,211.455 14.257,316.31l53.704,-12.772c32.612,-155.679 22.418,-266.902 -30.538,-326.715Z" style="fill:#000;stroke-width:0.14px;stroke:#000;"/><path d="M338.921,429.044l-49.021,0c8.383,71.589 6.801,151.314 -29.297,235.949c14.359,-8.192 43.165,-4.351 46.272,-5.564c19.746,-93.478 40.346,-192.745 32.046,-230.385Z" style="fill:#000;"/><path d="M698.514,612.191c-62.64,-24.536 -247.32,-1.433 -392.47,25.117l0,22.04c162.082,-25.424 279.745,-25.402 375.481,-12.819l16.989,-34.338Z" style="fill:#000;"/></g><g id="DL1"><path d="M121.522,215.817l-29.415,25.696c401.158,87.63 437.377,223.957 155.094,272.414c-22.426,3.85 -25.244,36.278 -26.214,49.607l67.215,-21.431c320.135,-89.265 202.211,-215.703 -45.48,-299.96c-37.546,-12.772 -78.804,-15.265 -121.2,-26.326Z" style="fill:#fff;"/><path d="M148.159,238.449l-33.975,21.896c34.592,92.817 40.167,199.765 12.943,298.823l48.757,-12.066c29.608,-147.073 20.353,-252.147 -27.725,-308.653Z" style="fill:#fff;stroke-width:0.14px;stroke:#000;"/><path d="M337.52,433.137l-44.506,0c7.611,67.631 6.175,142.948 -26.598,222.905c13.037,-7.74 39.189,-4.11 42.01,-5.256c17.927,-88.311 36.63,-182.09 29.094,-217.649Z" style="fill:#fff;"/><path d="M663.989,606.159c-56.869,-23.18 -224.538,-1.354 -356.317,23.728l0,20.822c147.152,-24.019 253.976,-23.998 340.893,-12.111l15.424,-32.439Z" style="fill:#fff;"/></g><g transform="matrix(19.1326,0,0,19.1326,-424.167,143.793)"><path d="M53.424,21.389c-0.058,0 -0.149,-0.009 -0.272,-0.027c-0.094,-0.099 -0.177,-0.236 -0.251,-0.408c-0.073,-0.173 -0.128,-0.358 -0.167,-0.554c-0.038,-0.196 -0.055,-0.393 -0.052,-0.589c0.003,-0.196 0.036,-0.371 0.101,-0.523c0,-0.006 0.028,-0.076 0.083,-0.211c0.056,-0.135 0.128,-0.306 0.216,-0.514c0.088,-0.208 0.187,-0.44 0.298,-0.694c0.112,-0.255 0.223,-0.506 0.334,-0.752c0.112,-0.246 0.219,-0.47 0.321,-0.672c0.103,-0.202 0.192,-0.359 0.268,-0.47c0.053,-0.083 0.101,-0.162 0.145,-0.238c0.044,-0.076 0.087,-0.146 0.128,-0.211c0.064,-0.105 0.124,-0.203 0.18,-0.294c0.056,-0.091 0.117,-0.173 0.185,-0.246c0.067,-0.074 0.142,-0.138 0.224,-0.194c0.082,-0.055 0.181,-0.104 0.298,-0.145c0.071,0.03 0.132,0.06 0.185,0.093c0.053,0.032 0.1,0.071 0.141,0.118l0.026,0.123c0.012,0.041 0.031,0.069 0.057,0.084c0.027,0.014 0.048,0.022 0.066,0.022c0.076,0.017 0.142,0.036 0.198,0.057c0.055,0.02 0.116,0.034 0.18,0.039c0.023,0.036 0.045,0.071 0.066,0.106c0.02,0.035 0.042,0.067 0.066,0.097c0.117,0.17 0.214,0.334 0.29,0.492c0.076,0.158 0.076,0.331 0,0.518l0.009,0.097c0.029,0.041 0.044,0.079 0.044,0.114c0,0.035 -0.006,0.085 -0.018,0.15c-0.006,0.047 -0.01,0.098 -0.013,0.154c-0.003,0.055 0.004,0.115 0.022,0.18l0.061,0.07c0.094,0.047 0.185,0.07 0.273,0.07c0.117,0 0.222,-0.026 0.316,-0.079c0.094,-0.052 0.182,-0.105 0.264,-0.158c0.064,-0.047 0.124,-0.085 0.18,-0.114c0.056,-0.03 0.11,-0.05 0.163,-0.062c0.123,-0.117 0.236,-0.221 0.338,-0.312c0.103,-0.091 0.21,-0.183 0.321,-0.277c0.211,-0.17 0.416,-0.353 0.615,-0.549c0.199,-0.196 0.357,-0.441 0.475,-0.734c0.064,-0.041 0.137,-0.061 0.219,-0.061c0.082,0 0.164,0.016 0.247,0.048c0.082,0.032 0.164,0.069 0.246,0.11c0.017,0.012 0.033,0.02 0.048,0.026c0.015,0.006 0.031,0.015 0.048,0.027c0,0.064 0.027,0.123 0.079,0.175c0.03,0.024 0.05,0.038 0.062,0.044c0.012,0.006 0.023,0.012 0.035,0.018c0.047,0.029 0.086,0.056 0.119,0.079c0.032,0.023 0.057,0.056 0.074,0.097c0.053,0.158 0.141,0.281 0.264,0.369c-0.012,0.064 -0.009,0.127 0.009,0.189c0.017,0.061 0.038,0.121 0.061,0.18c0.012,0.023 0.021,0.045 0.027,0.066c0.006,0.02 0.014,0.045 0.026,0.075l-0.193,-0.018l0.026,0.193c0.018,0.1 0.01,0.211 -0.022,0.334c-0.032,0.123 -0.069,0.22 -0.11,0.29c0.012,0.176 0.018,0.315 0.018,0.418c0,0.102 -0.006,0.198 -0.018,0.286c-0.011,0.087 -0.03,0.171 -0.057,0.25c-0.026,0.079 -0.06,0.163 -0.101,0.25c0.024,0.446 -0.028,0.853 -0.154,1.222c-0.126,0.369 -0.262,0.715 -0.408,1.037c-0.018,0.041 -0.036,0.079 -0.053,0.115c-0.018,0.035 -0.032,0.07 -0.044,0.105c-0.065,0.018 -0.123,0.038 -0.176,0.062c-0.053,0.023 -0.102,0.049 -0.149,0.079c-0.065,0.041 -0.129,0.074 -0.194,0.101c-0.064,0.026 -0.131,0.039 -0.202,0.039c-0.281,-0.205 -0.426,-0.559 -0.435,-1.063c-0.009,-0.504 0.098,-1.146 0.321,-1.925c0.041,-0.029 0.059,-0.073 0.053,-0.132l0,-0.097l-0.088,-0.008c-0.029,0 -0.056,0.003 -0.079,0.008c-0.024,0.006 -0.041,0.033 -0.053,0.08c-0.188,0.134 -0.391,0.273 -0.611,0.417c-0.22,0.144 -0.447,0.275 -0.681,0.396c-0.234,0.12 -0.473,0.219 -0.716,0.298c-0.243,0.079 -0.479,0.119 -0.708,0.119c-0.586,0 -1.028,-0.299 -1.327,-0.896l-0.079,-0.159l-0.088,0.141c-0.018,0.029 -0.048,0.086 -0.092,0.171c-0.044,0.085 -0.088,0.183 -0.132,0.295c-0.044,0.111 -0.082,0.225 -0.114,0.343c-0.033,0.117 -0.043,0.219 -0.031,0.307c-0.07,0.065 -0.139,0.138 -0.207,0.22c-0.067,0.082 -0.115,0.176 -0.145,0.281c-0.011,0.029 -0.014,0.057 -0.008,0.084c0.005,0.026 0.014,0.054 0.026,0.083c-0.006,0.041 -0.018,0.07 -0.035,0.088c-0.018,0.018 -0.038,0.035 -0.062,0.053c-0.029,0.029 -0.058,0.06 -0.088,0.092c-0.029,0.032 -0.055,0.069 -0.079,0.11c-0.012,0.035 -0.02,0.072 -0.026,0.11c-0.006,0.038 -0.012,0.072 -0.018,0.101c0,0.064 -0.009,0.108 -0.026,0.132c-0.059,0.123 -0.11,0.224 -0.154,0.303c-0.044,0.079 -0.086,0.139 -0.127,0.18c-0.041,0.041 -0.084,0.069 -0.128,0.084c-0.044,0.014 -0.095,0.022 -0.154,0.022Z" style="fill:#000;fill-rule:nonzero;"/><path d="M66.52,18.629c-0.006,0.07 0,0.137 0.018,0.202c0.017,0.064 0.039,0.127 0.066,0.189c0.026,0.061 0.051,0.124 0.074,0.189c0.024,0.064 0.041,0.129 0.053,0.193c0.012,0.082 0.012,0.172 0,0.268c-0.012,0.097 -0.032,0.191 -0.061,0.282c-0.03,0.09 -0.068,0.172 -0.115,0.246c-0.047,0.073 -0.102,0.127 -0.167,0.162c-0.082,0.106 -0.181,0.188 -0.299,0.246c-0.117,0.059 -0.225,0.129 -0.325,0.211c-0.064,0.041 -0.136,0.071 -0.215,0.088c-0.079,0.018 -0.16,0.035 -0.242,0.053c-0.064,0.035 -0.14,0.072 -0.228,0.11c-0.088,0.038 -0.179,0.073 -0.273,0.105c-0.094,0.032 -0.187,0.056 -0.281,0.071c-0.094,0.014 -0.176,0.019 -0.246,0.013c-0.176,0.064 -0.347,0.107 -0.514,0.127c-0.167,0.021 -0.362,0.007 -0.585,-0.039c-0.211,0.029 -0.405,0.02 -0.584,-0.027c-0.179,-0.047 -0.337,-0.121 -0.475,-0.224c-0.138,-0.102 -0.258,-0.225 -0.36,-0.369c-0.103,-0.144 -0.186,-0.294 -0.251,-0.453c-0.047,-0.334 -0.035,-0.637 0.035,-0.909c0.071,-0.273 0.172,-0.525 0.304,-0.756c0.132,-0.232 0.282,-0.445 0.452,-0.642c0.17,-0.196 0.334,-0.388 0.493,-0.575c0.035,0.011 0.063,0.01 0.083,-0.005c0.021,-0.014 0.04,-0.035 0.057,-0.061c0.018,-0.027 0.037,-0.052 0.057,-0.075c0.021,-0.024 0.046,-0.038 0.075,-0.044c0.041,-0.088 0.101,-0.154 0.18,-0.198c0.079,-0.044 0.142,-0.107 0.189,-0.189c0.053,-0.011 0.097,-0.029 0.132,-0.052c0.035,-0.024 0.069,-0.05 0.101,-0.08c0.032,-0.029 0.066,-0.057 0.101,-0.083c0.035,-0.026 0.076,-0.045 0.123,-0.057l0,-0.097c0.106,-0.047 0.183,-0.101 0.233,-0.162c0.05,-0.062 0.11,-0.137 0.18,-0.225c0.053,-0.005 0.095,-0.008 0.128,-0.008c0.032,0 0.08,-0.006 0.145,-0.018c0.047,-0.082 0.089,-0.144 0.127,-0.185c0.038,-0.041 0.095,-0.085 0.172,-0.131c0.07,0.035 0.148,0.058 0.232,0.07c0.085,0.012 0.16,0.05 0.225,0.114c0.005,0.059 0.023,0.104 0.052,0.136c0.03,0.033 0.062,0.062 0.097,0.088c0.035,0.027 0.069,0.055 0.101,0.084c0.032,0.029 0.054,0.07 0.066,0.123c0.023,0.006 0.04,0.003 0.048,-0.009c0.009,-0.012 0.025,-0.015 0.049,-0.009c0.017,0.082 0.038,0.137 0.061,0.163c0.024,0.026 0.047,0.078 0.071,0.154c-0.03,0.058 -0.052,0.118 -0.066,0.18c-0.015,0.061 -0.052,0.107 -0.11,0.136c-0.006,0.041 0.006,0.063 0.035,0.066c0.029,0.003 0.047,0.019 0.053,0.048c0.005,0.053 -0.003,0.091 -0.027,0.115c0.141,0.228 0.267,0.47 0.378,0.725c0.112,0.255 0.237,0.496 0.378,0.725ZM65.421,19.464c0.024,-0.065 0.055,-0.117 0.093,-0.158c0.038,-0.041 0.06,-0.103 0.066,-0.185c-0.03,-0.047 -0.047,-0.084 -0.053,-0.11c-0.006,-0.026 -0.009,-0.069 -0.009,-0.127c-0.129,-0.182 -0.24,-0.377 -0.334,-0.585c-0.094,-0.208 -0.199,-0.403 -0.316,-0.584c-0.012,0.023 -0.032,0.047 -0.062,0.07c-0.029,0.023 -0.061,0.018 -0.096,-0.018c-0.012,0.047 -0.033,0.081 -0.062,0.102c-0.029,0.02 -0.061,0.029 -0.097,0.026c-0.035,-0.003 -0.071,-0.012 -0.11,-0.026c-0.038,-0.015 -0.071,-0.034 -0.101,-0.058c-0.17,0.135 -0.339,0.267 -0.509,0.396c-0.17,0.129 -0.323,0.278 -0.457,0.448c-0.024,0.012 -0.038,0.016 -0.044,0.013c-0.006,-0.003 -0.024,0.002 -0.053,0.014c-0.047,0.111 -0.104,0.212 -0.171,0.303c-0.068,0.091 -0.134,0.183 -0.198,0.277c-0.065,0.093 -0.12,0.193 -0.167,0.298c-0.047,0.106 -0.073,0.229 -0.079,0.37c0.099,0.082 0.217,0.131 0.351,0.149c0.135,0.018 0.274,0.021 0.418,0.009c0.143,-0.012 0.284,-0.031 0.422,-0.057c0.137,-0.027 0.265,-0.04 0.382,-0.04c0.246,-0.058 0.457,-0.136 0.633,-0.233c0.176,-0.096 0.36,-0.195 0.553,-0.294Z" style="fill:#000;fill-rule:nonzero;"/><path d="M71.609,17.038c-0.147,0 -0.305,0.01 -0.475,0.031c-0.17,0.02 -0.337,0.042 -0.501,0.066c-0.117,0.017 -0.23,0.032 -0.338,0.044c-0.108,0.011 -0.207,0.02 -0.294,0.026c-0.041,0.129 -0.082,0.243 -0.123,0.343c-0.041,0.099 -0.085,0.196 -0.132,0.29c-0.047,0.099 -0.09,0.2 -0.128,0.303c-0.038,0.103 -0.074,0.212 -0.11,0.33c-0.058,0.093 -0.107,0.18 -0.145,0.259c-0.038,0.079 -0.068,0.168 -0.092,0.268c-0.07,0.088 -0.123,0.18 -0.158,0.277c-0.035,0.096 -0.062,0.18 -0.079,0.25l-0.035,0.106c-0.036,0.035 -0.056,0.063 -0.062,0.083c-0.006,0.021 -0.02,0.04 -0.044,0.057c-0.006,0.065 -0.026,0.129 -0.061,0.194c-0.012,0.029 -0.021,0.057 -0.027,0.083c-0.006,0.027 -0.009,0.046 -0.009,0.057c0,0.059 -0.014,0.097 -0.043,0.115c0.005,0.029 0.005,0.06 0,0.092c-0.006,0.032 -0.012,0.063 -0.018,0.092c-0.018,0.071 -0.023,0.126 -0.018,0.167c0.018,0.024 0.034,0.044 0.049,0.062c0.014,0.017 0.025,0.041 0.03,0.07c0.036,0.023 0.062,0.038 0.08,0.044c0.023,0.018 0.058,0.038 0.105,0.061l0.079,0.088c0.029,0.17 0.003,0.305 -0.079,0.405c-0.088,0.111 -0.237,0.167 -0.448,0.167l-0.106,0c-0.029,-0.03 -0.047,-0.053 -0.052,-0.071c-0.047,-0.017 -0.085,-0.032 -0.115,-0.044c-0.029,-0.011 -0.055,-0.035 -0.079,-0.07c-0.076,-0.035 -0.137,-0.064 -0.184,-0.088l-0.079,-0.044c0,-0.064 0,-0.099 0,-0.105c-0.041,-0.053 -0.072,-0.112 -0.093,-0.176c-0.02,-0.064 -0.036,-0.129 -0.048,-0.193c-0.012,-0.053 -0.025,-0.103 -0.04,-0.15c-0.014,-0.047 -0.033,-0.088 -0.057,-0.123c-0.011,-0.34 0.021,-0.627 0.097,-0.861c0.076,-0.235 0.155,-0.46 0.237,-0.677c0.047,-0.117 0.094,-0.236 0.141,-0.356c0.047,-0.12 0.088,-0.244 0.123,-0.373l0.079,-0.088c0.041,-0.094 0.075,-0.172 0.101,-0.233c0.026,-0.062 0.054,-0.125 0.084,-0.189c0.017,-0.041 0.033,-0.081 0.048,-0.119c0.015,-0.038 0.028,-0.072 0.039,-0.101c-0.035,0 -0.067,0.002 -0.096,0.005c-0.029,0.002 -0.059,0.007 -0.088,0.013c-0.035,0.006 -0.067,0.01 -0.097,0.013c-0.029,0.003 -0.058,0.004 -0.088,0.004c-0.041,0 -0.07,-0.003 -0.088,-0.009c-0.064,0.03 -0.134,0.044 -0.21,0.044l-0.088,0c-0.018,0 -0.034,-0.001 -0.049,-0.004c-0.014,-0.003 -0.028,-0.004 -0.039,-0.004c-0.059,0 -0.106,0.008 -0.141,0.026c-0.07,0 -0.138,0 -0.202,0l-0.088,0c-0.012,0 -0.026,0.001 -0.044,0.004c-0.017,0.003 -0.032,0.005 -0.044,0.005c-0.041,0 -0.085,-0.005 -0.132,-0.013c-0.047,-0.009 -0.096,-0.028 -0.149,-0.058c-0.07,-0.093 -0.117,-0.143 -0.141,-0.149l-0.079,-0.105c-0.006,-0.036 -0.014,-0.069 -0.026,-0.101c-0.012,-0.033 -0.024,-0.069 -0.035,-0.11c-0.024,-0.059 -0.046,-0.122 -0.066,-0.189c-0.021,-0.068 -0.031,-0.148 -0.031,-0.242c0.006,-0.047 0.018,-0.082 0.035,-0.105c0.018,-0.024 0.032,-0.044 0.044,-0.062l0.026,-0.132l0.115,0.009l0.246,0c0.187,0 0.378,-0.007 0.571,-0.022c0.193,-0.015 0.393,-0.031 0.598,-0.048c0.117,-0.012 0.236,-0.024 0.356,-0.036c0.12,-0.011 0.244,-0.023 0.373,-0.035c0.024,-0.052 0.047,-0.102 0.071,-0.149l0.087,-0.044c0.106,-0.006 0.181,0.007 0.225,0.04c0.044,0.032 0.08,0.063 0.109,0.092c0.129,-0.012 0.26,-0.025 0.392,-0.04c0.131,-0.014 0.265,-0.033 0.399,-0.057c0.2,-0.029 0.4,-0.056 0.603,-0.079c0.202,-0.023 0.396,-0.035 0.584,-0.035c0.082,0 0.161,0.003 0.237,0.009c0.076,0.006 0.147,0.014 0.211,0.026l0.088,0.062c0.018,0.035 0.043,0.067 0.075,0.096c0.032,0.03 0.066,0.059 0.101,0.088c0.07,0.065 0.141,0.141 0.211,0.229c0.07,0.088 0.097,0.216 0.079,0.386c-0.047,0.071 -0.082,0.112 -0.106,0.123l-0.079,0.106l-0.088,-0.009c-0.035,0 -0.067,0.004 -0.096,0.013c-0.03,0.009 -0.059,0.019 -0.088,0.031c-0.024,0.012 -0.047,0.022 -0.07,0.031c-0.024,0.009 -0.05,0.016 -0.08,0.022c-0.052,0 -0.095,-0.002 -0.127,-0.005c-0.032,-0.003 -0.066,-0.004 -0.101,-0.004Z" style="fill:#000;fill-rule:nonzero;"/><path d="M75.775,18.629c-0.006,0.07 0,0.137 0.018,0.202c0.017,0.064 0.039,0.127 0.065,0.189c0.027,0.061 0.052,0.124 0.075,0.189c0.024,0.064 0.041,0.129 0.053,0.193c0.012,0.082 0.012,0.172 0,0.268c-0.012,0.097 -0.032,0.191 -0.062,0.282c-0.029,0.09 -0.067,0.172 -0.114,0.246c-0.047,0.073 -0.102,0.127 -0.167,0.162c-0.082,0.106 -0.181,0.188 -0.299,0.246c-0.117,0.059 -0.225,0.129 -0.325,0.211c-0.064,0.041 -0.136,0.071 -0.215,0.088c-0.079,0.018 -0.16,0.035 -0.242,0.053c-0.064,0.035 -0.141,0.072 -0.228,0.11c-0.088,0.038 -0.179,0.073 -0.273,0.105c-0.094,0.032 -0.187,0.056 -0.281,0.071c-0.094,0.014 -0.176,0.019 -0.246,0.013c-0.176,0.064 -0.347,0.107 -0.514,0.127c-0.167,0.021 -0.362,0.007 -0.585,-0.039c-0.211,0.029 -0.406,0.02 -0.584,-0.027c-0.179,-0.047 -0.337,-0.121 -0.475,-0.224c-0.138,-0.102 -0.258,-0.225 -0.36,-0.369c-0.103,-0.144 -0.186,-0.294 -0.251,-0.453c-0.047,-0.334 -0.035,-0.637 0.035,-0.909c0.071,-0.273 0.172,-0.525 0.304,-0.756c0.131,-0.232 0.282,-0.445 0.452,-0.642c0.17,-0.196 0.334,-0.388 0.492,-0.575c0.036,0.011 0.063,0.01 0.084,-0.005c0.02,-0.014 0.039,-0.035 0.057,-0.061c0.018,-0.027 0.037,-0.052 0.057,-0.075c0.021,-0.024 0.046,-0.038 0.075,-0.044c0.041,-0.088 0.101,-0.154 0.18,-0.198c0.079,-0.044 0.142,-0.107 0.189,-0.189c0.053,-0.011 0.097,-0.029 0.132,-0.052c0.035,-0.024 0.069,-0.05 0.101,-0.08c0.032,-0.029 0.066,-0.057 0.101,-0.083c0.035,-0.026 0.076,-0.045 0.123,-0.057l0,-0.097c0.106,-0.047 0.183,-0.101 0.233,-0.162c0.05,-0.062 0.11,-0.137 0.18,-0.225c0.053,-0.005 0.095,-0.008 0.128,-0.008c0.032,0 0.08,-0.006 0.145,-0.018c0.046,-0.082 0.089,-0.144 0.127,-0.185c0.038,-0.041 0.095,-0.085 0.171,-0.131c0.071,0.035 0.148,0.058 0.233,0.07c0.085,0.012 0.16,0.05 0.224,0.114c0.006,0.059 0.024,0.104 0.053,0.136c0.029,0.033 0.062,0.062 0.097,0.088c0.035,0.027 0.069,0.055 0.101,0.084c0.032,0.029 0.054,0.07 0.066,0.123c0.023,0.006 0.039,0.003 0.048,-0.009c0.009,-0.012 0.025,-0.015 0.049,-0.009c0.017,0.082 0.038,0.137 0.061,0.163c0.024,0.026 0.047,0.078 0.07,0.154c-0.029,0.058 -0.051,0.118 -0.066,0.18c-0.014,0.061 -0.051,0.107 -0.109,0.136c-0.006,0.041 0.005,0.063 0.035,0.066c0.029,0.003 0.047,0.019 0.052,0.048c0.006,0.053 -0.002,0.091 -0.026,0.115c0.141,0.228 0.267,0.47 0.378,0.725c0.111,0.255 0.237,0.496 0.378,0.725ZM74.676,19.464c0.024,-0.065 0.055,-0.117 0.093,-0.158c0.038,-0.041 0.06,-0.103 0.066,-0.185c-0.03,-0.047 -0.047,-0.084 -0.053,-0.11c-0.006,-0.026 -0.009,-0.069 -0.009,-0.127c-0.129,-0.182 -0.24,-0.377 -0.334,-0.585c-0.094,-0.208 -0.199,-0.403 -0.316,-0.584c-0.012,0.023 -0.033,0.047 -0.062,0.07c-0.029,0.023 -0.061,0.018 -0.097,-0.018c-0.011,0.047 -0.032,0.081 -0.061,0.102c-0.029,0.02 -0.062,0.029 -0.097,0.026c-0.035,-0.003 -0.072,-0.012 -0.11,-0.026c-0.038,-0.015 -0.071,-0.034 -0.101,-0.058c-0.17,0.135 -0.34,0.267 -0.509,0.396c-0.17,0.129 -0.323,0.278 -0.457,0.448c-0.024,0.012 -0.039,0.016 -0.044,0.013c-0.006,-0.003 -0.024,0.002 -0.053,0.014c-0.047,0.111 -0.104,0.212 -0.172,0.303c-0.067,0.091 -0.133,0.183 -0.197,0.277c-0.065,0.093 -0.12,0.193 -0.167,0.298c-0.047,0.106 -0.074,0.229 -0.079,0.37c0.099,0.082 0.216,0.131 0.351,0.149c0.135,0.018 0.274,0.021 0.418,0.009c0.143,-0.012 0.284,-0.031 0.422,-0.057c0.137,-0.027 0.265,-0.04 0.382,-0.04c0.246,-0.058 0.457,-0.136 0.633,-0.233c0.175,-0.096 0.36,-0.195 0.553,-0.294Z" style="fill:#000;fill-rule:nonzero;"/><path d="M77.726,20.351c-0.064,0.235 -0.121,0.412 -0.171,0.532c-0.05,0.12 -0.125,0.245 -0.224,0.374c-0.077,-0.012 -0.129,-0.003 -0.159,0.026c-0.029,0.029 -0.061,0.056 -0.096,0.079c-0.053,0.012 -0.091,0.012 -0.114,0c-0.024,-0.012 -0.044,-0.025 -0.062,-0.039c-0.018,-0.015 -0.04,-0.03 -0.066,-0.044c-0.026,-0.015 -0.066,-0.022 -0.119,-0.022c-0.011,-0.047 -0.024,-0.091 -0.039,-0.132c-0.015,-0.041 -0.054,-0.056 -0.119,-0.044c0.012,-0.047 0.015,-0.086 0.009,-0.119c-0.006,-0.032 -0.013,-0.061 -0.022,-0.088c-0.009,-0.026 -0.016,-0.052 -0.022,-0.079c-0.006,-0.026 -0.003,-0.06 0.009,-0.101c-0.029,0 -0.053,-0.02 -0.07,-0.061c-0.018,-0.041 -0.039,-0.082 -0.062,-0.123c0.018,-0.106 0.035,-0.205 0.053,-0.299c0.017,-0.094 0.039,-0.182 0.066,-0.264c0.026,-0.082 0.048,-0.164 0.066,-0.246c0.017,-0.082 0.008,-0.167 -0.027,-0.255c0.024,0.018 0.041,0.013 0.053,-0.013c0.012,-0.026 0.02,-0.062 0.026,-0.105c0.006,-0.044 0.009,-0.088 0.009,-0.132c0,-0.044 -0.003,-0.081 -0.009,-0.11c0.059,-0.153 0.107,-0.309 0.145,-0.47c0.038,-0.162 0.074,-0.321 0.106,-0.479c0.032,-0.159 0.066,-0.314 0.101,-0.466c0.035,-0.153 0.082,-0.293 0.141,-0.422c0.064,-0.012 0.136,-0.004 0.215,0.022c0.079,0.026 0.127,0.06 0.145,0.101c0.152,-0.117 0.287,-0.259 0.404,-0.426c0.117,-0.167 0.237,-0.33 0.361,-0.488c0.123,-0.158 0.259,-0.299 0.408,-0.422c0.15,-0.123 0.339,-0.196 0.567,-0.22c0.117,0.088 0.248,0.178 0.391,0.268c0.144,0.091 0.262,0.21 0.356,0.356c0.047,0.024 0.087,0.049 0.119,0.075c0.032,0.026 0.072,0.054 0.118,0.084l0,0.105c0.071,0.064 0.128,0.139 0.172,0.224c0.044,0.085 0.083,0.176 0.119,0.273c0.035,0.096 0.07,0.193 0.105,0.29c0.035,0.096 0.076,0.189 0.123,0.276c-0.012,0.03 -0.018,0.055 -0.018,0.075c0,0.021 0.005,0.043 0.014,0.066c0.008,0.024 0.016,0.047 0.022,0.07c0.005,0.024 0.005,0.056 0,0.097c-0.018,0.258 -0.101,0.466 -0.251,0.624c-0.149,0.158 -0.329,0.289 -0.54,0.391c-0.211,0.103 -0.437,0.189 -0.677,0.26c-0.24,0.07 -0.457,0.146 -0.651,0.228c0,0.023 0.011,0.035 0.031,0.035c0.021,0 0.028,0.015 0.022,0.044c0.141,0.088 0.252,0.158 0.334,0.211c0.082,0.053 0.16,0.097 0.233,0.132c0.073,0.035 0.152,0.066 0.237,0.092c0.085,0.027 0.204,0.057 0.356,0.092c0.153,0.036 0.271,0.063 0.356,0.084c0.085,0.02 0.163,0.038 0.233,0.053c0.071,0.014 0.142,0.026 0.216,0.035c0.073,0.009 0.177,0.019 0.312,0.031c0.052,0.052 0.098,0.115 0.136,0.189c0.038,0.073 0.063,0.146 0.074,0.219c0.012,0.074 0.015,0.144 0.009,0.211c-0.006,0.068 -0.026,0.122 -0.061,0.163c0.006,0.017 0.019,0.025 0.039,0.022c0.021,-0.003 0.043,-0.002 0.066,0.004c-0.035,0.024 -0.064,0.053 -0.088,0.088c-0.023,0.035 -0.047,0.07 -0.07,0.106c-0.023,0.035 -0.05,0.065 -0.079,0.092c-0.029,0.026 -0.07,0.042 -0.123,0.048c-0.182,0.071 -0.41,0.075 -0.686,0.013c-0.275,-0.061 -0.624,-0.174 -1.046,-0.338c-0.211,-0.082 -0.382,-0.154 -0.514,-0.215c-0.132,-0.062 -0.246,-0.123 -0.343,-0.185c-0.096,-0.061 -0.184,-0.127 -0.263,-0.198c-0.079,-0.07 -0.175,-0.155 -0.286,-0.255ZM78.983,17.337c-0.064,0.094 -0.136,0.179 -0.215,0.255c-0.079,0.076 -0.156,0.154 -0.229,0.233c-0.073,0.079 -0.139,0.167 -0.198,0.263c-0.058,0.097 -0.099,0.21 -0.123,0.339c0.205,-0.024 0.419,-0.081 0.642,-0.172c0.223,-0.091 0.434,-0.177 0.633,-0.259c-0.024,-0.182 -0.087,-0.328 -0.189,-0.439c-0.103,-0.112 -0.21,-0.185 -0.321,-0.22Z" style="fill:#000;fill-rule:nonzero;"/><path d="M84.626,17.302c0.017,-0.088 0.029,-0.16 0.035,-0.216c0.006,-0.055 -0.015,-0.115 -0.062,-0.18c0.024,-0.094 0.043,-0.167 0.057,-0.22c0.015,-0.052 0.016,-0.126 0.005,-0.219c0.052,-0.153 0.133,-0.282 0.241,-0.387c0.109,-0.105 0.227,-0.195 0.356,-0.268c0.129,-0.073 0.264,-0.135 0.405,-0.185c0.14,-0.049 0.272,-0.092 0.395,-0.127c0,-0.024 -0.012,-0.035 -0.035,-0.035c-0.023,0 -0.029,-0.015 -0.018,-0.044c0.317,-0.059 0.635,-0.144 0.954,-0.255c0.319,-0.111 0.646,-0.211 0.98,-0.299c0.334,-0.088 0.677,-0.142 1.028,-0.163c0.352,-0.02 0.721,0.025 1.108,0.137c0.023,0.07 0.055,0.137 0.096,0.202c0.041,0.064 0.084,0.127 0.128,0.189c0.044,0.061 0.083,0.121 0.119,0.18c0.035,0.059 0.055,0.12 0.061,0.185c0.07,0.064 0.128,0.133 0.171,0.206c0.044,0.073 0.052,0.172 0.022,0.295c-0.064,0.046 -0.131,0.093 -0.202,0.14c-0.07,0.047 -0.143,0.091 -0.219,0.132c-0.264,-0.064 -0.528,-0.088 -0.791,-0.07c-0.264,0.017 -0.501,0.038 -0.712,0.061c-0.065,-0.07 -0.141,-0.104 -0.229,-0.101c-0.088,0.003 -0.18,0.018 -0.277,0.044c-0.096,0.026 -0.192,0.053 -0.285,0.079c-0.094,0.027 -0.182,0.034 -0.264,0.022c-0.064,0.059 -0.149,0.098 -0.255,0.119c-0.105,0.02 -0.217,0.036 -0.334,0.048c-0.006,0.029 0,0.05 0.018,0.062c0.017,0.011 0.02,0.035 0.008,0.07c0.041,0.053 0.097,0.089 0.167,0.11c0.071,0.02 0.143,0.039 0.216,0.057c0.073,0.018 0.139,0.042 0.198,0.075c0.058,0.032 0.096,0.083 0.114,0.154c0.105,0.005 0.196,0.033 0.272,0.083c0.076,0.05 0.141,0.11 0.194,0.18c0.052,0.07 0.09,0.145 0.114,0.224c0.023,0.079 0.032,0.151 0.026,0.216c0.024,0.058 0.049,0.082 0.075,0.07c0.026,-0.012 0.057,0.003 0.092,0.044c0.024,0.088 0.078,0.18 0.163,0.277c0.085,0.096 0.151,0.2 0.198,0.312c0.011,0.176 0.022,0.334 0.03,0.474c0.009,0.141 -0.016,0.279 -0.074,0.413c-0.1,0.258 -0.244,0.49 -0.431,0.695c-0.188,0.205 -0.4,0.385 -0.637,0.54c-0.238,0.156 -0.488,0.29 -0.752,0.405c-0.263,0.114 -0.524,0.209 -0.782,0.285c-0.023,-0.006 -0.051,-0.006 -0.083,0c-0.033,0.006 -0.04,-0.011 -0.022,-0.052c-0.053,0.046 -0.113,0.076 -0.181,0.087c-0.067,0.012 -0.14,0.017 -0.219,0.014c-0.079,-0.003 -0.158,-0.008 -0.238,-0.014c-0.079,-0.005 -0.156,-0.003 -0.233,0.009c-0.046,-0.047 -0.089,-0.094 -0.127,-0.14c-0.038,-0.047 -0.069,-0.103 -0.092,-0.167c-0.03,-0.006 -0.043,-0.025 -0.04,-0.058c0.003,-0.032 -0.01,-0.048 -0.039,-0.048c0,-0.023 0.003,-0.041 0.008,-0.053c0.006,-0.011 0.012,-0.023 0.018,-0.035c0.023,-0.017 0.034,-0.031 0.031,-0.039c-0.003,-0.009 -0.012,-0.018 -0.027,-0.027c-0.014,-0.008 -0.029,-0.019 -0.044,-0.03c-0.014,-0.012 -0.019,-0.027 -0.013,-0.044c0.03,-0.053 0.04,-0.116 0.031,-0.189c-0.009,-0.074 -0.016,-0.148 -0.022,-0.224c-0.006,-0.077 0,-0.148 0.018,-0.216c0.017,-0.067 0.067,-0.124 0.149,-0.171c0.24,0.023 0.467,0.012 0.681,-0.035c0.214,-0.047 0.416,-0.112 0.607,-0.194c0.19,-0.082 0.372,-0.171 0.545,-0.268c0.172,-0.096 0.341,-0.186 0.505,-0.268c0.018,-0.058 0.045,-0.108 0.083,-0.149c0.039,-0.041 0.078,-0.081 0.119,-0.119c0.041,-0.038 0.079,-0.079 0.114,-0.123c0.036,-0.044 0.062,-0.098 0.079,-0.163c0.006,-0.023 0.006,-0.041 0,-0.052c-0.005,-0.012 -0.014,-0.022 -0.026,-0.031c-0.012,-0.009 -0.023,-0.019 -0.035,-0.031c-0.012,-0.012 -0.018,-0.029 -0.018,-0.053c-0.017,-0.005 -0.033,-0.011 -0.048,-0.017c-0.015,-0.006 -0.028,-0.009 -0.04,-0.009c-0.152,-0.076 -0.313,-0.141 -0.483,-0.193c-0.17,-0.053 -0.313,-0.112 -0.431,-0.176c-0.07,0.047 -0.14,0.059 -0.211,0.035c-0.07,-0.023 -0.155,-0.047 -0.254,-0.07c-0.246,-0.012 -0.479,-0.035 -0.699,-0.071c-0.22,-0.035 -0.432,-0.096 -0.637,-0.184c-0.012,-0.035 -0.027,-0.066 -0.044,-0.092c-0.018,-0.027 -0.059,-0.034 -0.123,-0.022c-0.041,-0.059 -0.084,-0.113 -0.128,-0.163c-0.044,-0.05 -0.083,-0.107 -0.118,-0.171Z" style="fill:#f00;fill-rule:nonzero;"/><path d="M92.922,15.816c0.247,0.03 0.466,0.079 0.66,0.15c0.193,0.07 0.357,0.164 0.492,0.281c0.094,0.146 0.183,0.305 0.268,0.475c0.085,0.169 0.149,0.347 0.193,0.531c0.044,0.185 0.065,0.374 0.062,0.567c-0.003,0.194 -0.046,0.39 -0.128,0.589c-0.17,0.211 -0.376,0.382 -0.619,0.514c-0.243,0.132 -0.506,0.239 -0.787,0.321c-0.281,0.082 -0.573,0.152 -0.874,0.211c-0.302,0.059 -0.597,0.117 -0.884,0.176c0.006,0.135 0.008,0.277 0.005,0.426c-0.003,0.149 -0.018,0.299 -0.044,0.448c-0.027,0.15 -0.066,0.295 -0.119,0.435c-0.053,0.141 -0.123,0.27 -0.211,0.387c-0.099,0 -0.202,0.013 -0.307,0.04c-0.106,0.026 -0.2,0.048 -0.282,0.066c-0.041,-0.024 -0.077,-0.046 -0.11,-0.066c-0.032,-0.021 -0.077,-0.034 -0.136,-0.04c0.012,-0.059 -0.003,-0.119 -0.044,-0.18c-0.041,-0.062 -0.082,-0.125 -0.123,-0.189c-0.041,-0.065 -0.069,-0.126 -0.083,-0.185c-0.015,-0.058 0.013,-0.114 0.083,-0.167c-0.041,-0.041 -0.061,-0.093 -0.061,-0.158c0.041,-0.07 0.077,-0.167 0.11,-0.29c0.032,-0.123 0.058,-0.245 0.079,-0.365c0.02,-0.12 0.025,-0.23 0.013,-0.329c-0.012,-0.1 -0.071,-0.173 -0.176,-0.22c0.006,-0.012 0.018,-0.018 0.035,-0.018c0.018,0 0.035,-0.002 0.053,-0.008c-0.047,-0.035 -0.075,-0.085 -0.084,-0.15c-0.008,-0.064 -0.03,-0.12 -0.066,-0.167c0.012,-0.029 0.021,-0.055 0.027,-0.079c0.006,-0.023 0.026,-0.032 0.061,-0.026c-0.017,-0.106 -0.016,-0.205 0.005,-0.299c0.02,-0.094 0.051,-0.183 0.092,-0.268c0.041,-0.085 0.091,-0.169 0.149,-0.251c0.059,-0.082 0.115,-0.164 0.167,-0.246c0.041,-0.006 0.066,0 0.075,0.018c0.009,0.017 0.028,0.015 0.057,-0.009c0.076,-0.058 0.129,-0.12 0.159,-0.184c0.029,-0.065 0.043,-0.138 0.043,-0.22c0.041,-0.123 0.091,-0.248 0.15,-0.374c0.058,-0.126 0.123,-0.241 0.193,-0.347c0.071,-0.105 0.148,-0.199 0.233,-0.281c0.085,-0.082 0.174,-0.144 0.268,-0.185c0.071,-0.058 0.158,-0.113 0.264,-0.162c0.105,-0.05 0.22,-0.088 0.343,-0.115c0.123,-0.026 0.247,-0.041 0.373,-0.044c0.126,-0.002 0.242,0.011 0.347,0.04c0.03,0.012 0.046,0.006 0.049,-0.018c0.003,-0.023 0.013,-0.035 0.03,-0.035ZM92.562,17.917c0.147,-0.065 0.303,-0.116 0.47,-0.154c0.167,-0.038 0.306,-0.11 0.418,-0.215c-0.071,-0.065 -0.173,-0.122 -0.308,-0.172c-0.135,-0.049 -0.281,-0.08 -0.439,-0.092c-0.158,-0.012 -0.318,0.002 -0.479,0.04c-0.161,0.038 -0.301,0.109 -0.418,0.215c-0.035,0.105 -0.064,0.189 -0.088,0.25c-0.023,0.062 -0.055,0.137 -0.096,0.225c0.011,0.029 0.03,0.051 0.057,0.065c0.026,0.015 0.045,0.037 0.057,0.066c0.135,-0.07 0.271,-0.109 0.409,-0.118c0.137,-0.009 0.276,-0.046 0.417,-0.11Z" style="fill:#f00;fill-rule:nonzero;"/><path d="M99.453,18.629c-0.006,0.07 0,0.137 0.017,0.202c0.018,0.064 0.04,0.127 0.066,0.189c0.027,0.061 0.051,0.124 0.075,0.189c0.023,0.064 0.041,0.129 0.053,0.193c0.011,0.082 0.011,0.172 0,0.268c-0.012,0.097 -0.033,0.191 -0.062,0.282c-0.029,0.09 -0.067,0.172 -0.114,0.246c-0.047,0.073 -0.103,0.127 -0.167,0.162c-0.082,0.106 -0.182,0.188 -0.299,0.246c-0.117,0.059 -0.226,0.129 -0.325,0.211c-0.065,0.041 -0.136,0.071 -0.215,0.088c-0.08,0.018 -0.16,0.035 -0.242,0.053c-0.065,0.035 -0.141,0.072 -0.229,0.11c-0.088,0.038 -0.178,0.073 -0.272,0.105c-0.094,0.032 -0.188,0.056 -0.281,0.071c-0.094,0.014 -0.176,0.019 -0.246,0.013c-0.176,0.064 -0.348,0.107 -0.515,0.127c-0.167,0.021 -0.361,0.007 -0.584,-0.039c-0.211,0.029 -0.406,0.02 -0.585,-0.027c-0.178,-0.047 -0.337,-0.121 -0.474,-0.224c-0.138,-0.102 -0.258,-0.225 -0.361,-0.369c-0.102,-0.144 -0.186,-0.294 -0.25,-0.453c-0.047,-0.334 -0.035,-0.637 0.035,-0.909c0.07,-0.273 0.172,-0.525 0.303,-0.756c0.132,-0.232 0.283,-0.445 0.453,-0.642c0.17,-0.196 0.334,-0.388 0.492,-0.575c0.035,0.011 0.063,0.01 0.084,-0.005c0.02,-0.014 0.039,-0.035 0.057,-0.061c0.017,-0.027 0.036,-0.052 0.057,-0.075c0.02,-0.024 0.045,-0.038 0.075,-0.044c0.041,-0.088 0.101,-0.154 0.18,-0.198c0.079,-0.044 0.142,-0.107 0.189,-0.189c0.052,-0.011 0.096,-0.029 0.132,-0.052c0.035,-0.024 0.068,-0.05 0.101,-0.08c0.032,-0.029 0.066,-0.057 0.101,-0.083c0.035,-0.026 0.076,-0.045 0.123,-0.057l0,-0.097c0.105,-0.047 0.183,-0.101 0.233,-0.162c0.05,-0.062 0.11,-0.137 0.18,-0.225c0.053,-0.005 0.095,-0.008 0.127,-0.008c0.033,0 0.081,-0.006 0.145,-0.018c0.047,-0.082 0.09,-0.144 0.128,-0.185c0.038,-0.041 0.095,-0.085 0.171,-0.131c0.07,0.035 0.148,0.058 0.233,0.07c0.085,0.012 0.16,0.05 0.224,0.114c0.006,0.059 0.024,0.104 0.053,0.136c0.029,0.033 0.061,0.062 0.097,0.088c0.035,0.027 0.068,0.055 0.101,0.084c0.032,0.029 0.054,0.07 0.066,0.123c0.023,0.006 0.039,0.003 0.048,-0.009c0.009,-0.012 0.025,-0.015 0.048,-0.009c0.018,0.082 0.038,0.137 0.062,0.163c0.023,0.026 0.047,0.078 0.07,0.154c-0.029,0.058 -0.051,0.118 -0.066,0.18c-0.014,0.061 -0.051,0.107 -0.11,0.136c-0.006,0.041 0.006,0.063 0.035,0.066c0.03,0.003 0.047,0.019 0.053,0.048c0.006,0.053 -0.003,0.091 -0.026,0.115c0.14,0.228 0.266,0.47 0.378,0.725c0.111,0.255 0.237,0.496 0.378,0.725ZM98.354,19.464c0.024,-0.065 0.054,-0.117 0.092,-0.158c0.038,-0.041 0.06,-0.103 0.066,-0.185c-0.029,-0.047 -0.047,-0.084 -0.052,-0.11c-0.006,-0.026 -0.009,-0.069 -0.009,-0.127c-0.129,-0.182 -0.24,-0.377 -0.334,-0.585c-0.094,-0.208 -0.199,-0.403 -0.317,-0.584c-0.011,0.023 -0.032,0.047 -0.061,0.07c-0.029,0.023 -0.062,0.018 -0.097,-0.018c-0.012,0.047 -0.032,0.081 -0.061,0.102c-0.03,0.02 -0.062,0.029 -0.097,0.026c-0.035,-0.003 -0.072,-0.012 -0.11,-0.026c-0.038,-0.015 -0.072,-0.034 -0.101,-0.058c-0.17,0.135 -0.34,0.267 -0.51,0.396c-0.17,0.129 -0.322,0.278 -0.457,0.448c-0.023,0.012 -0.038,0.016 -0.044,0.013c-0.006,-0.003 -0.023,0.002 -0.052,0.014c-0.047,0.111 -0.104,0.212 -0.172,0.303c-0.067,0.091 -0.133,0.183 -0.198,0.277c-0.064,0.093 -0.12,0.193 -0.167,0.298c-0.046,0.106 -0.073,0.229 -0.079,0.37c0.1,0.082 0.217,0.131 0.352,0.149c0.135,0.018 0.274,0.021 0.417,0.009c0.144,-0.012 0.285,-0.031 0.422,-0.057c0.138,-0.027 0.265,-0.04 0.383,-0.04c0.246,-0.058 0.457,-0.136 0.632,-0.233c0.176,-0.096 0.361,-0.195 0.554,-0.294Z" style="fill:#f00;fill-rule:nonzero;"/><path d="M101.404,20.351c-0.065,0.235 -0.122,0.412 -0.171,0.532c-0.05,0.12 -0.125,0.245 -0.225,0.374c-0.076,-0.012 -0.129,-0.003 -0.158,0.026c-0.029,0.029 -0.061,0.056 -0.096,0.079c-0.053,0.012 -0.091,0.012 -0.115,0c-0.023,-0.012 -0.044,-0.025 -0.061,-0.039c-0.018,-0.015 -0.04,-0.03 -0.066,-0.044c-0.027,-0.015 -0.066,-0.022 -0.119,-0.022c-0.012,-0.047 -0.025,-0.091 -0.039,-0.132c-0.015,-0.041 -0.055,-0.056 -0.119,-0.044c0.012,-0.047 0.015,-0.086 0.009,-0.119c-0.006,-0.032 -0.013,-0.061 -0.022,-0.088c-0.009,-0.026 -0.016,-0.052 -0.022,-0.079c-0.006,-0.026 -0.003,-0.06 0.009,-0.101c-0.03,0 -0.053,-0.02 -0.071,-0.061c-0.017,-0.041 -0.038,-0.082 -0.061,-0.123c0.017,-0.106 0.035,-0.205 0.052,-0.299c0.018,-0.094 0.04,-0.182 0.066,-0.264c0.027,-0.082 0.049,-0.164 0.066,-0.246c0.018,-0.082 0.009,-0.167 -0.026,-0.255c0.023,0.018 0.041,0.013 0.053,-0.013c0.011,-0.026 0.02,-0.062 0.026,-0.105c0.006,-0.044 0.009,-0.088 0.009,-0.132c0,-0.044 -0.003,-0.081 -0.009,-0.11c0.059,-0.153 0.107,-0.309 0.145,-0.47c0.038,-0.162 0.073,-0.321 0.106,-0.479c0.032,-0.159 0.065,-0.314 0.101,-0.466c0.035,-0.153 0.082,-0.293 0.14,-0.422c0.065,-0.012 0.136,-0.004 0.216,0.022c0.079,0.026 0.127,0.06 0.145,0.101c0.152,-0.117 0.287,-0.259 0.404,-0.426c0.117,-0.167 0.237,-0.33 0.36,-0.488c0.123,-0.158 0.26,-0.299 0.409,-0.422c0.149,-0.123 0.338,-0.196 0.567,-0.22c0.117,0.088 0.247,0.178 0.391,0.268c0.143,0.091 0.262,0.21 0.356,0.356c0.047,0.024 0.086,0.049 0.119,0.075c0.032,0.026 0.071,0.054 0.118,0.084l0,0.105c0.071,0.064 0.128,0.139 0.172,0.224c0.044,0.085 0.083,0.176 0.118,0.273c0.035,0.096 0.071,0.193 0.106,0.29c0.035,0.096 0.076,0.189 0.123,0.276c-0.012,0.03 -0.018,0.055 -0.018,0.075c0,0.021 0.005,0.043 0.013,0.066c0.009,0.024 0.016,0.047 0.022,0.07c0.006,0.024 0.006,0.056 0,0.097c-0.017,0.258 -0.101,0.466 -0.25,0.624c-0.15,0.158 -0.33,0.289 -0.541,0.391c-0.211,0.103 -0.436,0.189 -0.676,0.26c-0.241,0.07 -0.457,0.146 -0.651,0.228c0,0.023 0.01,0.035 0.031,0.035c0.02,0 0.028,0.015 0.022,0.044c0.141,0.088 0.252,0.158 0.334,0.211c0.082,0.053 0.16,0.097 0.233,0.132c0.073,0.035 0.152,0.066 0.237,0.092c0.085,0.027 0.204,0.057 0.356,0.092c0.152,0.036 0.271,0.063 0.356,0.084c0.085,0.02 0.163,0.038 0.233,0.053c0.07,0.014 0.142,0.026 0.215,0.035c0.074,0.009 0.178,0.019 0.312,0.031c0.053,0.052 0.098,0.115 0.137,0.189c0.038,0.073 0.062,0.146 0.074,0.219c0.012,0.074 0.015,0.144 0.009,0.211c-0.006,0.068 -0.026,0.122 -0.062,0.163c0.006,0.017 0.02,0.025 0.04,0.022c0.021,-0.003 0.043,-0.002 0.066,0.004c-0.035,0.024 -0.065,0.053 -0.088,0.088c-0.023,0.035 -0.047,0.07 -0.07,0.106c-0.024,0.035 -0.05,0.065 -0.079,0.092c-0.03,0.026 -0.071,0.042 -0.123,0.048c-0.182,0.071 -0.411,0.075 -0.686,0.013c-0.275,-0.061 -0.624,-0.174 -1.046,-0.338c-0.211,-0.082 -0.382,-0.154 -0.514,-0.215c-0.132,-0.062 -0.246,-0.123 -0.343,-0.185c-0.096,-0.061 -0.184,-0.127 -0.263,-0.198c-0.08,-0.07 -0.175,-0.155 -0.286,-0.255ZM102.661,17.337c-0.065,0.094 -0.136,0.179 -0.216,0.255c-0.079,0.076 -0.155,0.154 -0.228,0.233c-0.073,0.079 -0.139,0.167 -0.198,0.263c-0.058,0.097 -0.099,0.21 -0.123,0.339c0.205,-0.024 0.419,-0.081 0.642,-0.172c0.222,-0.091 0.433,-0.177 0.632,-0.259c-0.023,-0.182 -0.086,-0.328 -0.188,-0.439c-0.103,-0.112 -0.21,-0.185 -0.321,-0.22Z" style="fill:#f00;fill-rule:nonzero;"/><path d="M109.587,17.038c-0.147,0 -0.305,0.01 -0.475,0.031c-0.17,0.02 -0.337,0.042 -0.501,0.066c-0.117,0.017 -0.23,0.032 -0.338,0.044c-0.109,0.011 -0.207,0.02 -0.295,0.026c-0.041,0.129 -0.082,0.243 -0.123,0.343c-0.041,0.099 -0.085,0.196 -0.132,0.29c-0.047,0.099 -0.089,0.2 -0.127,0.303c-0.038,0.103 -0.075,0.212 -0.11,0.33c-0.059,0.093 -0.107,0.18 -0.145,0.259c-0.038,0.079 -0.069,0.168 -0.092,0.268c-0.071,0.088 -0.123,0.18 -0.159,0.277c-0.035,0.096 -0.061,0.18 -0.079,0.25l-0.035,0.106c-0.035,0.035 -0.056,0.063 -0.061,0.083c-0.006,0.021 -0.021,0.04 -0.044,0.057c-0.006,0.065 -0.027,0.129 -0.062,0.194c-0.012,0.029 -0.02,0.057 -0.026,0.083c-0.006,0.027 -0.009,0.046 -0.009,0.057c0,0.059 -0.015,0.097 -0.044,0.115c0.006,0.029 0.006,0.06 0,0.092c-0.006,0.032 -0.012,0.063 -0.018,0.092c-0.017,0.071 -0.023,0.126 -0.017,0.167c0.017,0.024 0.034,0.044 0.048,0.062c0.015,0.017 0.025,0.041 0.031,0.07c0.035,0.023 0.062,0.038 0.079,0.044c0.024,0.018 0.059,0.038 0.106,0.061l0.079,0.088c0.029,0.17 0.003,0.305 -0.079,0.405c-0.088,0.111 -0.238,0.167 -0.449,0.167l-0.105,0c-0.029,-0.03 -0.047,-0.053 -0.053,-0.071c-0.047,-0.017 -0.085,-0.032 -0.114,-0.044c-0.029,-0.011 -0.056,-0.035 -0.079,-0.07c-0.076,-0.035 -0.138,-0.064 -0.185,-0.088l-0.079,-0.044c0,-0.064 0,-0.099 0,-0.105c-0.041,-0.053 -0.072,-0.112 -0.092,-0.176c-0.021,-0.064 -0.037,-0.129 -0.049,-0.193c-0.011,-0.053 -0.024,-0.103 -0.039,-0.15c-0.015,-0.047 -0.034,-0.088 -0.057,-0.123c-0.012,-0.34 0.02,-0.627 0.096,-0.861c0.077,-0.235 0.156,-0.46 0.238,-0.677c0.047,-0.117 0.094,-0.236 0.14,-0.356c0.047,-0.12 0.088,-0.244 0.123,-0.373l0.08,-0.088c0.041,-0.094 0.074,-0.172 0.101,-0.233c0.026,-0.062 0.054,-0.125 0.083,-0.189c0.018,-0.041 0.034,-0.081 0.048,-0.119c0.015,-0.038 0.028,-0.072 0.04,-0.101c-0.035,0 -0.067,0.002 -0.097,0.005c-0.029,0.002 -0.058,0.007 -0.088,0.013c-0.035,0.006 -0.067,0.01 -0.096,0.013c-0.03,0.003 -0.059,0.004 -0.088,0.004c-0.041,0 -0.07,-0.003 -0.088,-0.009c-0.064,0.03 -0.135,0.044 -0.211,0.044l-0.088,0c-0.017,0 -0.034,-0.001 -0.048,-0.004c-0.015,-0.003 -0.028,-0.004 -0.04,-0.004c-0.058,0 -0.105,0.008 -0.14,0.026c-0.071,0 -0.138,0 -0.203,0l-0.087,0c-0.012,0 -0.027,0.001 -0.044,0.004c-0.018,0.003 -0.033,0.005 -0.044,0.005c-0.041,0 -0.085,-0.005 -0.132,-0.013c-0.047,-0.009 -0.097,-0.028 -0.15,-0.058c-0.07,-0.093 -0.117,-0.143 -0.14,-0.149l-0.079,-0.105c-0.006,-0.036 -0.015,-0.069 -0.027,-0.101c-0.011,-0.033 -0.023,-0.069 -0.035,-0.11c-0.023,-0.059 -0.045,-0.122 -0.066,-0.189c-0.02,-0.068 -0.03,-0.148 -0.03,-0.242c0.005,-0.047 0.017,-0.082 0.035,-0.105c0.017,-0.024 0.032,-0.044 0.044,-0.062l0.026,-0.132l0.114,0.009l0.246,0c0.188,0 0.378,-0.007 0.572,-0.022c0.193,-0.015 0.392,-0.031 0.597,-0.048c0.117,-0.012 0.236,-0.024 0.356,-0.036c0.12,-0.011 0.245,-0.023 0.374,-0.035c0.023,-0.052 0.047,-0.102 0.07,-0.149l0.088,-0.044c0.105,-0.006 0.18,0.007 0.224,0.04c0.044,0.032 0.081,0.063 0.11,0.092c0.129,-0.012 0.259,-0.025 0.391,-0.04c0.132,-0.014 0.265,-0.033 0.4,-0.057c0.199,-0.029 0.4,-0.056 0.602,-0.079c0.202,-0.023 0.397,-0.035 0.585,-0.035c0.082,0 0.161,0.003 0.237,0.009c0.076,0.006 0.146,0.014 0.211,0.026l0.088,0.062c0.017,0.035 0.042,0.067 0.074,0.096c0.033,0.03 0.066,0.059 0.101,0.088c0.071,0.065 0.141,0.141 0.211,0.229c0.071,0.088 0.097,0.216 0.079,0.386c-0.046,0.071 -0.082,0.112 -0.105,0.123l-0.079,0.106l-0.088,-0.009c-0.035,0 -0.067,0.004 -0.097,0.013c-0.029,0.009 -0.058,0.019 -0.088,0.031c-0.023,0.012 -0.046,0.022 -0.07,0.031c-0.023,0.009 -0.05,0.016 -0.079,0.022c-0.053,0 -0.095,-0.002 -0.127,-0.005c-0.033,-0.003 -0.066,-0.004 -0.101,-0.004Z" style="fill:#f00;fill-rule:nonzero;"/></g></g></svg>