<?xml version="1.0" encoding="UTF-8" standalone="no"?>
<!DOCTYPE svg PUBLIC "-//W3C//DTD SVG 1.1//EN" "http://www.w3.org/Graphics/SVG/1.1/DTD/svg11.dtd">
<svg width="100%" height="100%" viewBox="0 0 100 100" version="1.1" xmlns="http://www.w3.org/2000/svg" xmlns:xlink="http://www.w3.org/1999/xlink" xml:space="preserve" style="fill-rule:evenodd;clip-rule:evenodd;stroke-linecap:round;stroke-linejoin:round;stroke-miterlimit:1.41421;">
    <g transform="matrix(0.225579,-2.08768e-18,-2.19828e-18,0.221979,-6.8564,-1.31851)">
        <ellipse cx="249.695" cy="231.93" rx="186.822" ry="189.515" style="fill:black;stroke-width:30.39px;stroke:black;"/>
    </g>
    <g transform="matrix(0.250373,-2.31714e-18,-2.44424e-18,0.246815,-12.5168,-7.24372)">
        <ellipse cx="249.695" cy="231.93" rx="186.822" ry="189.515" style="fill:none;stroke-width:12.07px;stroke:white;"/>
    </g>
    <g transform="matrix(0.25303,-2.34173e-18,-2.47017e-18,0.249434,-13.1802,-7.85116)">
        <path d="M250.915,40.414L252.133,40.426L253.349,40.445L254.564,40.473L255.776,40.508L256.987,40.551L258.196,40.601L259.403,40.66L260.607,40.726L261.81,40.799L263.011,40.88L264.21,40.969L265.407,41.065L266.602,41.169L267.794,41.281L268.985,41.4L270.173,41.526L271.359,41.66L272.543,41.801L273.725,41.95L274.904,42.106L276.081,42.27L277.256,42.44L278.429,42.619L279.599,42.804L280.767,42.997L281.932,43.197L283.095,43.404L284.256,43.618L285.414,43.84L286.569,44.068L287.722,44.304L288.873,44.547L290.021,44.797L291.166,45.054L292.309,45.318L293.449,45.589L294.587,45.867L295.722,46.152L296.854,46.444L297.984,46.743L299.11,47.049L300.234,47.362L301.355,47.681L302.474,48.007L303.589,48.341L304.702,48.68L305.811,49.027L306.918,49.38L308.022,49.74L309.123,50.107L310.221,50.481L311.316,50.861L312.408,51.247L313.497,51.64L314.582,52.04L315.665,52.447L316.745,52.859L317.821,53.279L318.894,53.704L319.964,54.137L321.031,54.575L322.095,55.02L323.155,55.472L324.212,55.929L325.266,56.393L326.316,56.864L327.363,57.34L328.407,57.823L329.447,58.313L330.484,58.808L331.518,59.309L332.548,59.817L333.574,60.331L334.597,60.851L335.616,61.377L336.632,61.909L337.644,62.447L338.653,62.991L339.658,63.541L340.659,64.097L341.657,64.659L342.651,65.227L343.641,65.801L344.628,66.381L345.61,66.966L346.589,67.558L347.564,68.155L348.535,68.758L349.503,69.367L350.466,69.981L351.426,70.601L352.381,71.227L353.333,71.859L354.281,72.496L355.225,73.139L356.164,73.787L357.1,74.441L358.031,75.1L358.959,75.765L359.882,76.436L360.801,77.112L361.716,77.793L362.627,78.48L363.534,79.172L364.436,79.87L365.334,80.573L366.228,81.281L367.117,81.995L368.003,82.714L368.883,83.438L369.76,84.168L370.632,84.902L371.499,85.642L372.363,86.387L373.221,87.137L374.076,87.892L374.925,88.653L375.77,89.418L376.611,90.189L377.447,90.964L378.278,91.745L379.105,92.53L379.927,93.321L380.745,94.116L381.558,94.916L382.366,95.721L383.169,96.531L383.967,97.346L384.761,98.166L385.55,98.99L386.334,99.82L387.113,100.654L387.888,101.492L388.657,102.336L389.421,103.184L390.181,104.036L390.936,104.894L391.685,105.756L392.43,106.622L393.169,107.493L393.904,108.369L394.633,109.249L395.357,110.134L396.076,111.023L396.79,111.916L397.499,112.814L398.202,113.717L398.9,114.623L399.593,115.534L400.281,116.45L400.963,117.369L401.641,118.293L402.312,119.222L402.979,120.154L403.64,121.091L404.295,122.031L404.945,122.976L405.59,123.925L406.229,124.879L406.863,125.836L407.491,126.797L408.113,127.763L408.73,128.732L409.342,129.705L409.948,130.683L410.548,131.664L411.142,132.649L411.731,133.638L412.314,134.632L412.891,135.628L413.462,136.629L414.028,137.634L414.588,138.642L415.142,139.654L415.69,140.67L416.233,141.689L416.769,142.712L417.299,143.739L417.824,144.77L418.342,145.804L418.855,146.841L419.361,147.883L419.862,148.927L420.356,149.976L420.845,151.027L421.327,152.083L421.803,153.141L422.273,154.204L422.736,155.269L423.194,156.338L423.645,157.41L424.09,158.486L424.529,159.565L424.961,160.647L425.387,161.733L425.807,162.821L426.22,163.913L426.627,165.008L427.028,166.107L427.422,167.208L427.809,168.313L428.191,169.42L428.565,170.531L428.933,171.645L429.295,172.762L429.65,173.881L429.998,175.004L430.34,176.13L430.675,177.259L431.003,178.39L431.325,179.525L431.64,180.662L431.948,181.802L432.249,182.945L432.544,184.091L432.832,185.239L433.113,186.39L433.387,187.544L433.654,188.701L433.915,189.86L434.168,191.022L434.414,192.187L434.654,193.354L434.886,194.524L435.112,195.696L435.33,196.871L435.541,198.048L435.746,199.228L435.943,200.41L436.133,201.595L436.315,202.782L436.491,203.971L436.659,205.163L436.821,206.357L436.974,207.554L437.121,208.752L437.26,209.953L437.392,211.157L437.517,212.362L437.634,213.57L437.744,214.779L437.847,215.991L437.941,217.205L438.029,218.421L438.109,219.64L438.182,220.86L438.247,222.082L438.304,223.306L438.354,224.533L438.396,225.761L438.431,226.991L438.458,228.223L438.477,229.457L438.489,230.693L438.492,231.93L438.489,233.168L438.477,234.403L438.458,235.637L438.431,236.869L438.396,238.099L438.354,239.327L438.304,240.554L438.247,241.778L438.182,243L438.109,244.22L438.029,245.439L437.941,246.655L437.847,247.869L437.744,249.081L437.634,250.29L437.517,251.498L437.392,252.704L437.26,253.907L437.121,255.108L436.974,256.306L436.821,257.503L436.659,258.697L436.491,259.889L436.315,261.078L436.133,262.265L435.943,263.45L435.746,264.632L435.541,265.812L435.33,266.989L435.112,268.164L434.886,269.336L434.654,270.506L434.414,271.673L434.168,272.838L433.915,274L433.654,275.159L433.387,276.316L433.113,277.47L432.832,278.621L432.544,279.769L432.249,280.915L431.948,282.058L431.64,283.198L431.325,284.335L431.003,285.47L430.675,286.602L430.34,287.73L429.998,288.856L429.65,289.979L429.295,291.098L428.933,292.215L428.565,293.329L428.191,294.44L427.809,295.547L427.422,296.652L427.028,297.753L426.627,298.852L426.22,299.947L425.807,301.039L425.387,302.127L424.961,303.213L424.529,304.295L424.09,305.374L423.645,306.45L423.194,307.522L422.736,308.591L422.273,309.657L421.803,310.719L421.327,311.777L420.845,312.833L420.356,313.884L419.862,314.933L419.361,315.978L418.855,317.019L418.342,318.057L417.824,319.091L417.299,320.121L416.769,321.148L416.233,322.171L415.69,323.19L415.142,324.206L414.588,325.218L414.028,326.227L413.462,327.231L412.891,328.232L412.314,329.229L411.731,330.222L411.142,331.211L410.548,332.196L409.948,333.177L409.342,334.155L408.73,335.128L408.113,336.097L407.491,337.063L406.863,338.024L406.229,338.981L405.59,339.935L404.945,340.884L404.295,341.829L403.64,342.77L402.979,343.706L402.312,344.639L401.641,345.567L400.963,346.491L400.281,347.41L399.593,348.326L398.9,349.237L398.202,350.143L397.499,351.046L396.79,351.944L396.076,352.837L395.357,353.726L394.633,354.611L393.904,355.491L393.169,356.367L392.43,357.238L391.685,358.104L390.936,358.966L390.181,359.824L389.421,360.676L388.657,361.524L387.888,362.368L387.113,363.206L386.334,364.04L385.55,364.87L384.761,365.694L383.967,366.514L383.169,367.329L382.366,368.139L381.558,368.944L380.745,369.744L379.927,370.54L379.105,371.33L378.278,372.115L377.447,372.896L376.611,373.671L375.77,374.442L374.925,375.207L374.076,375.968L373.221,376.723L372.363,377.473L371.499,378.218L370.632,378.958L369.76,379.693L368.883,380.422L368.003,381.146L367.117,381.865L366.228,382.579L365.334,383.287L364.436,383.99L363.534,384.688L362.627,385.38L361.716,386.067L360.801,386.748L359.882,387.424L358.959,388.095L358.031,388.76L357.1,389.419L356.164,390.073L355.225,390.721L354.281,391.364L353.333,392.001L352.381,392.633L351.426,393.259L350.466,393.879L349.503,394.493L348.535,395.102L347.564,395.705L346.589,396.302L345.61,396.894L344.628,397.479L343.641,398.059L342.651,398.633L341.657,399.201L340.659,399.763L339.658,400.319L338.653,400.869L337.644,401.413L336.632,401.951L335.616,402.483L334.597,403.009L333.574,403.529L332.548,404.043L331.518,404.551L330.484,405.052L329.447,405.548L328.407,406.037L327.363,406.52L326.316,406.996L325.266,407.467L324.212,407.931L323.155,408.388L322.095,408.84L321.031,409.285L319.964,409.723L318.894,410.156L317.821,410.581L316.745,411.001L315.665,411.414L314.582,411.82L313.497,412.22L312.408,412.613L311.316,412.999L310.221,413.38L309.123,413.753L308.022,414.12L306.918,414.48L305.811,414.833L304.702,415.18L303.589,415.52L302.474,415.853L301.355,416.179L300.234,416.498L299.11,416.811L297.983,417.117L296.854,417.416L295.722,417.708L294.587,417.993L293.449,418.271L292.309,418.542L291.166,418.806L290.021,419.063L288.873,419.313L287.722,419.556L286.569,419.792L285.414,420.02L284.256,420.242L283.095,420.456L281.932,420.663L280.767,420.863L279.599,421.056L278.429,421.241L277.256,421.42L276.081,421.59L274.904,421.754L273.725,421.91L272.543,422.059L271.359,422.2L270.173,422.334L268.985,422.46L267.794,422.579L266.602,422.691L265.407,422.795L264.21,422.891L263.011,422.98L261.81,423.061L260.607,423.135L259.403,423.2L258.196,423.259L256.987,423.309L255.776,423.352L254.564,423.387L253.349,423.415L252.133,423.434L250.915,423.446L249.695,423.45L248.475,423.446L247.256,423.434L246.04,423.415L244.826,423.387L243.613,423.352L242.402,423.309L241.194,423.259L239.987,423.2L238.782,423.135L237.579,423.061L236.378,422.98L235.179,422.891L233.982,422.795L232.788,422.691L231.595,422.579L230.405,422.46L229.216,422.334L228.03,422.2L226.846,422.059L225.665,421.91L224.485,421.754L223.308,421.59L222.133,421.42L220.961,421.241L219.79,421.056L218.623,420.863L217.457,420.663L216.294,420.456L215.134,420.242L213.975,420.02L212.82,419.792L211.667,419.556L210.516,419.313L209.368,419.063L208.223,418.806L207.08,418.542L205.94,418.271L204.802,417.993L203.667,417.708L202.535,417.416L201.406,417.117L200.279,416.811L199.155,416.498L198.034,416.179L196.916,415.853L195.8,415.52L194.688,415.18L193.578,414.833L192.471,414.48L191.367,414.12L190.266,413.753L189.168,413.38L188.073,412.999L186.981,412.613L185.893,412.22L184.807,411.82L183.724,411.414L182.645,411.001L181.568,410.581L180.495,410.156L179.425,409.723L178.358,409.285L177.294,408.84L176.234,408.388L175.177,407.931L174.123,407.467L173.073,406.996L172.026,406.52L170.982,406.037L169.942,405.548L168.905,405.052L167.872,404.551L166.842,404.043L165.815,403.529L164.792,403.009L163.773,402.483L162.757,401.951L161.745,401.413L160.736,400.869L159.731,400.319L158.73,399.763L157.732,399.201L156.738,398.633L155.748,398.059L154.762,397.479L153.779,396.894L152.8,396.302L151.825,395.705L150.854,395.102L149.886,394.493L148.923,393.879L147.963,393.259L147.008,392.633L146.056,392.001L145.108,391.364L144.165,390.721L143.225,390.073L142.289,389.419L141.358,388.76L140.43,388.095L139.507,387.424L138.588,386.748L137.673,386.067L136.762,385.38L135.856,384.688L134.953,383.99L134.055,383.287L133.161,382.579L132.272,381.865L131.387,381.146L130.506,380.422L129.629,379.693L128.757,378.958L127.89,378.218L127.027,377.473L126.168,376.723L125.314,375.968L124.464,375.207L123.619,374.442L122.778,373.671L121.942,372.896L121.111,372.115L120.284,371.33L119.462,370.54L118.644,369.744L117.832,368.944L117.024,368.139L116.22,367.329L115.422,366.514L114.628,365.694L113.839,364.87L113.055,364.04L112.276,363.207L111.502,362.368L110.732,361.524L109.968,360.676L109.208,359.824L108.454,358.966L107.704,358.104L106.96,357.238L106.22,356.367L105.486,355.491L104.756,354.611L104.032,353.726L103.313,352.837L102.599,351.944L101.891,351.046L101.187,350.143L100.489,349.237L99.796,348.326L99.108,347.41L98.426,346.491L97.749,345.567L97.077,344.639L96.411,343.706L95.75,342.77L95.094,341.829L94.444,340.884L93.799,339.935L93.16,338.981L92.526,338.024L91.898,337.063L91.276,336.097L90.659,335.128L90.047,334.155L89.442,333.177L88.842,332.196L88.247,331.211L87.658,330.222L87.075,329.229L86.498,328.232L85.927,327.231L85.361,326.227L84.801,325.218L84.247,324.206L83.699,323.19L83.157,322.171L82.62,321.148L82.09,320.121L81.565,319.091L81.047,318.056L80.534,317.019L80.028,315.978L79.527,314.933L79.033,313.884L78.545,312.833L78.062,311.777L77.586,310.719L77.117,309.657L76.653,308.591L76.195,307.522L75.744,306.45L75.299,305.374L74.861,304.295L74.428,303.213L74.002,302.127L73.582,301.039L73.169,299.947L72.762,298.852L72.361,297.753L71.967,296.652L71.58,295.547L71.199,294.44L70.824,293.329L70.456,292.215L70.094,291.098L69.74,289.979L69.391,288.856L69.049,287.73L68.714,286.602L68.386,285.47L68.064,284.336L67.749,283.198L67.441,282.058L67.14,280.915L66.845,279.769L66.557,278.621L66.276,277.47L66.002,276.316L65.735,275.159L65.475,274L65.221,272.838L64.975,271.673L64.735,270.506L64.503,269.336L64.278,268.164L64.059,266.989L63.848,265.812L63.644,264.632L63.447,263.45L63.257,262.265L63.074,261.078L62.898,259.889L62.73,258.697L62.569,257.503L62.415,256.306L62.268,255.108L62.129,253.907L61.997,252.704L61.872,251.498L61.755,250.291L61.645,249.081L61.543,247.869L61.448,246.655L61.36,245.439L61.28,244.22L61.208,243L61.143,241.778L61.085,240.554L61.035,239.327L60.993,238.099L60.959,236.869L60.932,235.637L60.912,234.403L60.901,233.168L60.897,231.93L60.901,230.692L60.912,229.457L60.932,228.223L60.959,226.991L60.993,225.761L61.035,224.533L61.085,223.306L61.143,222.082L61.208,220.86L61.28,219.64L61.36,218.421L61.448,217.205L61.543,215.991L61.645,214.779L61.755,213.57L61.872,212.362L61.997,211.157L62.129,209.953L62.268,208.752L62.415,207.554L62.569,206.357L62.73,205.163L62.898,203.971L63.074,202.782L63.257,201.595L63.447,200.41L63.644,199.228L63.848,198.048L64.059,196.871L64.278,195.696L64.503,194.524L64.735,193.354L64.975,192.187L65.221,191.022L65.475,189.86L65.735,188.701L66.002,187.544L66.276,186.39L66.557,185.239L66.845,184.091L67.14,182.945L67.441,181.802L67.749,180.662L68.064,179.525L68.386,178.39L68.714,177.259L69.049,176.13L69.391,175.004L69.74,173.881L70.094,172.762L70.456,171.645L70.824,170.531L71.199,169.42L71.58,168.313L71.967,167.208L72.361,166.107L72.762,165.008L73.169,163.913L73.582,162.821L74.002,161.733L74.428,160.647L74.861,159.565L75.299,158.486L75.744,157.41L76.195,156.338L76.653,155.269L77.117,154.204L77.586,153.141L78.062,152.083L78.545,151.027L79.033,149.976L79.527,148.927L80.028,147.883L80.534,146.841L81.047,145.804L81.565,144.77L82.09,143.739L82.62,142.712L83.157,141.689L83.699,140.67L84.247,139.654L84.801,138.642L85.361,137.634L85.927,136.629L86.498,135.628L87.075,134.631L87.658,133.638L88.247,132.649L88.842,131.664L89.442,130.683L90.047,129.705L90.659,128.732L91.276,127.763L91.898,126.797L92.526,125.836L93.16,124.879L93.799,123.925L94.444,122.976L95.094,122.031L95.75,121.091L96.411,120.154L97.077,119.222L97.749,118.293L98.426,117.369L99.108,116.45L99.796,115.534L100.489,114.623L101.187,113.717L101.891,112.814L102.599,111.916L103.313,111.023L104.032,110.134L104.756,109.249L105.486,108.369L106.22,107.493L106.96,106.622L107.704,105.756L108.454,104.894L109.208,104.036L109.968,103.184L110.732,102.336L111.502,101.492L112.276,100.654L113.055,99.82L113.839,98.99L114.628,98.166L115.422,97.346L116.22,96.531L117.024,95.721L117.832,94.916L118.644,94.116L119.462,93.321L120.284,92.53L121.111,91.745L121.942,90.964L122.778,90.189L123.619,89.418L124.464,88.653L125.314,87.892L126.168,87.137L127.027,86.387L127.89,85.642L128.757,84.902L129.629,84.168L130.506,83.438L131.387,82.714L132.272,81.995L133.161,81.281L134.055,80.573L134.953,79.87L135.856,79.172L136.762,78.48L137.673,77.793L138.588,77.112L139.507,76.436L140.43,75.765L141.358,75.1L142.289,74.441L143.225,73.787L144.165,73.139L145.108,72.496L146.056,71.859L147.008,71.227L147.963,70.601L148.923,69.981L149.886,69.367L150.854,68.758L151.825,68.155L152.8,67.558L153.779,66.966L154.762,66.381L155.748,65.801L156.738,65.227L157.732,64.659L158.73,64.097L159.731,63.541L160.736,62.991L161.745,62.447L162.757,61.909L163.773,61.377L164.792,60.851L165.815,60.331L166.842,59.817L167.872,59.309L168.905,58.808L169.942,58.313L170.982,57.823L172.026,57.34L173.073,56.864L174.123,56.393L175.177,55.929L176.234,55.472L177.294,55.02L178.358,54.575L179.425,54.137L180.495,53.704L181.568,53.279L182.645,52.859L183.724,52.447L184.807,52.04L185.893,51.64L186.981,51.247L188.073,50.861L189.168,50.481L190.266,50.107L191.367,49.74L192.471,49.38L193.578,49.027L194.688,48.68L195.8,48.341L196.916,48.007L198.034,47.681L199.155,47.362L200.279,47.049L201.406,46.743L202.535,46.444L203.667,46.152L204.802,45.867L205.94,45.589L207.08,45.318L208.223,45.054L209.368,44.797L210.516,44.547L211.667,44.304L212.82,44.068L213.975,43.84L215.134,43.618L216.294,43.404L217.457,43.197L218.623,42.997L219.79,42.804L220.961,42.619L222.133,42.44L223.308,42.27L224.485,42.106L225.665,41.95L226.846,41.801L228.03,41.66L229.216,41.526L230.405,41.4L231.595,41.281L232.788,41.169L233.982,41.065L235.179,40.969L236.378,40.88L237.579,40.799L238.782,40.726L239.987,40.66L241.194,40.601L242.402,40.551L243.613,40.508L244.826,40.473L246.04,40.445L247.256,40.426L248.475,40.414L249.695,40.41L250.915,40.414ZM248.5,44.423L247.307,44.435L246.115,44.454L244.926,44.481L243.738,44.515L242.553,44.557L241.369,44.606L240.187,44.664L239.007,44.728L237.829,44.8L236.653,44.88L235.479,44.967L234.308,45.061L233.138,45.163L231.97,45.272L230.804,45.388L229.641,45.512L228.48,45.643L227.321,45.781L226.164,45.927L225.009,46.08L223.856,46.24L222.706,46.407L221.558,46.582L220.413,46.763L219.269,46.952L218.128,47.147L216.99,47.35L215.854,47.56L214.72,47.777L213.589,48.001L212.46,48.232L211.334,48.469L210.21,48.714L209.088,48.966L207.97,49.224L206.854,49.49L205.74,49.762L204.629,50.041L203.521,50.327L202.415,50.619L201.312,50.919L200.212,51.225L199.115,51.537L198.02,51.857L196.928,52.183L195.839,52.516L194.753,52.855L193.669,53.201L192.589,53.553L191.511,53.912L190.436,54.278L189.364,54.65L188.295,55.028L187.229,55.413L186.167,55.805L185.107,56.202L184.05,56.606L182.996,57.017L181.946,57.434L180.898,57.857L179.854,58.286L178.813,58.722L177.775,59.164L176.74,59.612L175.708,60.066L174.68,60.527L173.655,60.993L172.633,61.466L171.615,61.945L170.6,62.43L169.588,62.921L168.58,63.418L167.575,63.921L166.573,64.43L165.575,64.945L164.581,65.465L163.59,65.992L162.602,66.525L161.619,67.064L160.638,67.608L159.661,68.158L158.688,68.714L157.719,69.276L156.753,69.844L155.791,70.417L154.833,70.996L153.878,71.581L152.927,72.171L151.98,72.767L151.036,73.369L150.097,73.976L149.161,74.589L148.23,75.207L147.302,75.831L146.378,76.46L145.458,77.095L144.542,77.735L143.629,78.381L142.721,79.032L141.817,79.689L140.917,80.351L140.021,81.018L139.13,81.69L138.242,82.368L137.358,83.051L136.479,83.74L135.604,84.433L134.733,85.132L133.866,85.836L133.003,86.545L132.145,87.259L131.291,87.979L130.442,88.703L129.597,89.433L128.756,90.167L127.919,90.907L127.087,91.651L126.26,92.401L125.436,93.155L124.618,93.915L123.804,94.679L122.994,95.448L122.189,96.222L121.389,97.001L120.593,97.785L119.801,98.573L119.015,99.366L118.233,100.164L117.456,100.967L116.683,101.774L115.915,102.586L115.152,103.403L114.394,104.224L113.641,105.05L112.892,105.88L112.148,106.715L111.41,107.555L110.676,108.399L109.947,109.247L109.223,110.1L108.503,110.958L107.789,111.82L107.08,112.686L106.376,113.556L105.677,114.431L104.983,115.311L104.294,116.194L103.611,117.082L102.932,117.974L102.259,118.87L101.59,119.771L100.927,120.676L100.27,121.584L99.617,122.497L98.97,123.414L98.328,124.336L97.692,125.261L97.06,126.19L96.435,127.123L95.814,128.061L95.199,129.002L94.59,129.947L93.985,130.896L93.387,131.849L92.794,132.806L92.206,133.767L91.624,134.732L91.048,135.7L90.477,136.673L89.912,137.649L89.352,138.628L88.799,139.612L88.25,140.599L87.708,141.59L87.171,142.584L86.64,143.582L86.115,144.584L85.596,145.589L85.082,146.598L84.575,147.61L84.073,148.626L83.577,149.646L83.087,150.668L82.603,151.695L82.125,152.724L81.653,153.758L81.187,154.794L80.727,155.834L80.273,156.877L79.825,157.923L79.384,158.973L78.948,160.026L78.519,161.082L78.095,162.142L77.678,163.204L77.267,164.27L76.863,165.339L76.464,166.411L76.072,167.486L75.687,168.564L75.307,169.646L74.934,170.73L74.567,171.817L74.207,172.907L73.853,174.001L73.506,175.097L73.165,176.196L72.83,177.298L72.502,178.403L72.181,179.51L71.866,180.621L71.558,181.734L71.256,182.85L70.961,183.969L70.672,185.091L70.391,186.215L70.116,187.342L69.847,188.471L69.586,189.604L69.331,190.738L69.083,191.876L68.842,193.016L68.607,194.159L68.38,195.304L68.159,196.451L67.945,197.601L67.738,198.754L67.538,199.909L67.345,201.066L67.159,202.226L66.98,203.388L66.809,204.553L66.644,205.719L66.486,206.888L66.335,208.06L66.192,209.233L66.055,210.409L65.926,211.587L65.804,212.768L65.689,213.95L65.582,215.134L65.481,216.321L65.388,217.51L65.303,218.701L65.224,219.894L65.153,221.088L65.09,222.285L65.033,223.484L64.985,224.685L64.943,225.888L64.909,227.093L64.883,228.299L64.864,229.508L64.853,230.718L64.849,231.93L64.853,233.142L64.864,234.352L64.883,235.561L64.909,236.767L64.943,237.972L64.985,239.175L65.033,240.376L65.09,241.575L65.153,242.772L65.224,243.966L65.303,245.159L65.388,246.35L65.481,247.539L65.582,248.726L65.689,249.91L65.804,251.093L65.926,252.273L66.055,253.451L66.192,254.627L66.335,255.8L66.486,256.972L66.644,258.141L66.809,259.308L66.98,260.472L67.159,261.634L67.345,262.794L67.538,263.951L67.738,265.106L67.945,266.259L68.159,267.409L68.38,268.556L68.607,269.702L68.842,270.844L69.083,271.984L69.331,273.122L69.586,274.256L69.847,275.389L70.116,276.518L70.391,277.645L70.672,278.77L70.961,279.891L71.256,281.01L71.558,282.126L71.866,283.239L72.181,284.35L72.502,285.457L72.83,286.562L73.165,287.664L73.506,288.763L73.853,289.859L74.207,290.953L74.567,292.043L74.934,293.13L75.307,294.215L75.687,295.296L76.072,296.374L76.464,297.449L76.863,298.521L77.267,299.59L77.678,300.656L78.095,301.718L78.519,302.778L78.948,303.834L79.384,304.887L79.825,305.937L80.273,306.983L80.727,308.026L81.187,309.066L81.653,310.103L82.125,311.136L82.603,312.165L83.087,313.192L83.577,314.214L84.073,315.234L84.575,316.25L85.082,317.262L85.596,318.271L86.115,319.276L86.64,320.278L87.171,321.276L87.708,322.27L88.25,323.261L88.799,324.248L89.352,325.232L89.912,326.212L90.477,327.188L91.048,328.16L91.624,329.128L92.206,330.093L92.794,331.054L93.387,332.011L93.985,332.964L94.59,333.913L95.199,334.858L95.814,335.799L96.435,336.737L97.06,337.67L97.692,338.599L98.328,339.524L98.97,340.446L99.617,341.363L100.27,342.276L100.927,343.185L101.59,344.089L102.259,344.99L102.932,345.886L103.611,346.778L104.294,347.666L104.983,348.549L105.677,349.429L106.376,350.304L107.08,351.174L107.789,352.04L108.503,352.902L109.223,353.76L109.947,354.613L110.676,355.461L111.41,356.305L112.148,357.145L112.892,357.98L113.641,358.81L114.394,359.636L115.152,360.457L115.915,361.274L116.683,362.086L117.456,362.893L118.233,363.696L119.015,364.494L119.801,365.287L120.593,366.075L121.389,366.859L122.189,367.638L122.994,368.412L123.804,369.181L124.618,369.945L125.436,370.705L126.26,371.459L127.087,372.209L127.919,372.953L128.756,373.693L129.597,374.427L130.442,375.157L131.291,375.881L132.145,376.601L133.003,377.315L133.866,378.024L134.733,378.728L135.604,379.427L136.479,380.12L137.358,380.809L138.242,381.492L139.13,382.17L140.021,382.842L140.917,383.509L141.817,384.171L142.721,384.828L143.629,385.479L144.542,386.125L145.458,386.765L146.378,387.4L147.302,388.029L148.23,388.653L149.161,389.271L150.097,389.884L151.036,390.491L151.98,391.093L152.927,391.689L153.878,392.279L154.833,392.864L155.791,393.443L156.753,394.016L157.719,394.584L158.688,395.146L159.661,395.702L160.638,396.252L161.619,396.797L162.602,397.335L163.59,397.868L164.581,398.395L165.575,398.915L166.573,399.43L167.575,399.939L168.58,400.442L169.588,400.939L170.6,401.43L171.615,401.915L172.633,402.394L173.655,402.867L174.68,403.334L175.708,403.794L176.74,404.248L177.775,404.696L178.813,405.138L179.854,405.574L180.898,406.003L181.946,406.426L182.996,406.843L184.05,407.254L185.107,407.658L186.167,408.056L187.229,408.447L188.295,408.832L189.364,409.21L190.436,409.582L191.511,409.948L192.589,410.307L193.669,410.659L194.753,411.005L195.839,411.344L196.928,411.677L198.02,412.003L199.115,412.323L200.212,412.635L201.312,412.941L202.415,413.241L203.521,413.533L204.629,413.819L205.74,414.098L206.854,414.37L207.97,414.636L209.088,414.894L210.21,415.146L211.334,415.391L212.46,415.628L213.589,415.859L214.72,416.083L215.854,416.3L216.99,416.51L218.128,416.713L219.269,416.908L220.413,417.097L221.558,417.278L222.706,417.453L223.856,417.62L225.009,417.78L226.164,417.933L227.321,418.079L228.48,418.217L229.641,418.348L230.804,418.472L231.97,418.588L233.138,418.697L234.308,418.799L235.479,418.894L236.653,418.98L237.829,419.06L239.007,419.132L240.187,419.197L241.369,419.254L242.553,419.303L243.738,419.345L244.926,419.379L246.115,419.406L247.307,419.425L248.5,419.437L249.695,419.441L250.89,419.437L252.083,419.425L253.274,419.406L254.463,419.379L255.651,419.345L256.837,419.303L258.02,419.254L259.202,419.197L260.382,419.132L261.56,419.06L262.736,418.98L263.91,418.894L265.082,418.799L266.251,418.697L267.419,418.588L268.585,418.472L269.748,418.348L270.91,418.217L272.069,418.079L273.226,417.933L274.38,417.78L275.533,417.62L276.683,417.453L277.831,417.278L278.977,417.097L280.12,416.908L281.261,416.713L282.399,416.51L283.535,416.3L284.669,416.083L285.8,415.859L286.929,415.628L288.056,415.391L289.179,415.146L290.301,414.894L291.419,414.636L292.536,414.37L293.649,414.098L294.76,413.819L295.868,413.533L296.974,413.241L298.077,412.941L299.177,412.635L300.275,412.323L301.369,412.003L302.461,411.677L303.55,411.344L304.637,411.005L305.72,410.659L306.801,410.307L307.878,409.948L308.953,409.582L310.025,409.21L311.094,408.832L312.16,408.447L313.223,408.056L314.282,407.658L315.339,407.254L316.393,406.843L317.444,406.426L318.491,406.003L319.535,405.574L320.577,405.138L321.615,404.696L322.649,404.248L323.681,403.794L324.709,403.334L325.734,402.867L326.756,402.394L327.774,401.915L328.79,401.43L329.801,400.939L330.81,400.442L331.814,399.939L332.816,399.43L333.814,398.915L334.808,398.395L335.799,397.868L336.787,397.335L337.771,396.797L338.751,396.252L339.728,395.702L340.701,395.146L341.67,394.584L342.636,394.016L343.598,393.443L344.557,392.864L345.511,392.279L346.462,391.689L347.409,391.093L348.353,390.491L349.292,389.884L350.228,389.271L351.16,388.653L352.088,388.029L353.012,387.4L353.932,386.765L354.848,386.125L355.76,385.479L356.668,384.828L357.572,384.171L358.472,383.509L359.368,382.842L360.26,382.17L361.147,381.492L362.031,380.809L362.91,380.12L363.786,379.427L364.657,378.728L365.523,378.024L366.386,377.315L367.244,376.601L368.098,375.881L368.947,375.157L369.793,374.427L370.634,373.693L371.47,372.953L372.302,372.209L373.13,371.459L373.953,370.705L374.771,369.945L375.586,369.181L376.395,368.412L377.2,367.638L378.001,366.859L378.797,366.075L379.588,365.287L380.374,364.494L381.156,363.696L381.933,362.893L382.706,362.086L383.474,361.274L384.237,360.457L384.995,359.636L385.748,358.81L386.497,357.98L387.241,357.145L387.98,356.305L388.714,355.461L389.443,354.613L390.167,353.76L390.886,352.902L391.6,352.04L392.309,351.174L393.013,350.304L393.712,349.429L394.406,348.549L395.095,347.666L395.779,346.778L396.457,345.886L397.131,344.99L397.799,344.089L398.462,343.185L399.12,342.276L399.772,341.363L400.419,340.446L401.061,339.524L401.698,338.599L402.329,337.67L402.955,336.737L403.575,335.799L404.19,334.858L404.8,333.913L405.404,332.964L406.002,332.011L406.595,331.054L407.183,330.093L407.765,329.128L408.341,328.16L408.912,327.188L409.477,326.212L410.037,325.232L410.591,324.248L411.139,323.261L411.681,322.27L412.218,321.276L412.749,320.278L413.274,319.276L413.793,318.271L414.307,317.262L414.814,316.25L415.316,315.234L415.812,314.214L416.302,313.192L416.786,312.165L417.264,311.136L417.736,310.103L418.202,309.066L418.662,308.026L419.116,306.983L419.564,305.937L420.005,304.887L420.441,303.834L420.871,302.778L421.294,301.718L421.711,300.656L422.122,299.59L422.526,298.521L422.925,297.449L423.317,296.374L423.703,295.296L424.082,294.215L424.455,293.13L424.822,292.043L425.182,290.953L425.536,289.859L425.884,288.763L426.225,287.664L426.559,286.562L426.887,285.457L427.208,284.35L427.523,283.239L427.832,282.126L428.133,281.01L428.428,279.891L428.717,278.77L428.999,277.645L429.274,276.518L429.542,275.389L429.804,274.257L430.058,273.122L430.306,271.984L430.548,270.844L430.782,269.702L431.01,268.556L431.23,267.409L431.444,266.259L431.651,265.106L431.851,263.951L432.044,262.794L432.23,261.634L432.409,260.472L432.581,259.308L432.745,258.141L432.903,256.972L433.054,255.8L433.197,254.627L433.334,253.451L433.463,252.273L433.585,251.093L433.7,249.91L433.807,248.726L433.908,247.539L434.001,246.35L434.087,245.159L434.165,243.967L434.236,242.772L434.3,241.575L434.356,240.376L434.405,239.175L434.446,237.972L434.48,236.767L434.506,235.561L434.525,234.352L434.537,233.142L434.54,231.93L434.537,230.718L434.525,229.508L434.506,228.299L434.48,227.093L434.446,225.888L434.405,224.685L434.356,223.484L434.3,222.285L434.236,221.088L434.165,219.894L434.087,218.701L434.001,217.51L433.908,216.321L433.807,215.134L433.7,213.95L433.585,212.768L433.463,211.587L433.334,210.409L433.197,209.233L433.054,208.06L432.903,206.888L432.745,205.719L432.581,204.553L432.409,203.388L432.23,202.226L432.044,201.066L431.851,199.909L431.651,198.754L431.444,197.601L431.23,196.451L431.01,195.304L430.782,194.159L430.548,193.016L430.306,191.876L430.058,190.738L429.804,189.604L429.542,188.471L429.274,187.342L428.999,186.215L428.717,185.091L428.428,183.969L428.133,182.85L427.832,181.734L427.523,180.621L427.208,179.51L426.887,178.403L426.559,177.298L426.225,176.196L425.884,175.097L425.536,174.001L425.182,172.907L424.822,171.817L424.455,170.73L424.082,169.646L423.703,168.564L423.317,167.486L422.925,166.411L422.526,165.339L422.122,164.27L421.711,163.204L421.294,162.142L420.871,161.082L420.441,160.026L420.005,158.973L419.564,157.923L419.116,156.877L418.662,155.834L418.202,154.794L417.736,153.757L417.264,152.724L416.786,151.695L416.302,150.668L415.812,149.646L415.316,148.626L414.814,147.61L414.307,146.598L413.793,145.589L413.274,144.584L412.749,143.582L412.218,142.584L411.681,141.59L411.139,140.599L410.591,139.612L410.037,138.628L409.477,137.648L408.912,136.672L408.341,135.7L407.765,134.732L407.183,133.767L406.595,132.806L406.002,131.85L405.404,130.896L404.8,129.947L404.19,129.002L403.575,128.061L402.955,127.123L402.329,126.19L401.698,125.261L401.061,124.336L400.419,123.414L399.772,122.497L399.12,121.584L398.462,120.676L397.799,119.771L397.131,118.87L396.457,117.974L395.779,117.082L395.095,116.194L394.406,115.311L393.712,114.431L393.013,113.556L392.309,112.686L391.6,111.82L390.886,110.958L390.167,110.1L389.443,109.247L388.714,108.399L387.98,107.555L387.241,106.715L386.497,105.88L385.748,105.05L384.995,104.224L384.237,103.403L383.474,102.586L382.706,101.774L381.933,100.967L381.156,100.164L380.374,99.366L379.588,98.573L378.797,97.785L378.001,97.001L377.2,96.222L376.395,95.448L375.586,94.679L374.771,93.915L373.953,93.155L373.13,92.401L372.302,91.651L371.47,90.907L370.634,90.167L369.793,89.433L368.947,88.703L368.098,87.979L367.244,87.259L366.386,86.545L365.523,85.836L364.657,85.132L363.786,84.433L362.91,83.74L362.031,83.051L361.147,82.368L360.26,81.69L359.368,81.018L358.472,80.351L357.572,79.689L356.668,79.032L355.76,78.381L354.848,77.735L353.932,77.095L353.012,76.46L352.088,75.831L351.16,75.207L350.228,74.589L349.292,73.976L348.353,73.369L347.409,72.767L346.462,72.171L345.511,71.581L344.557,70.996L343.598,70.417L342.636,69.844L341.67,69.276L340.701,68.714L339.728,68.158L338.751,67.608L337.771,67.064L336.787,66.525L335.799,65.992L334.808,65.465L333.814,64.945L332.816,64.43L331.814,63.921L330.81,63.418L329.801,62.921L328.79,62.43L327.774,61.945L326.756,61.466L325.734,60.993L324.709,60.527L323.681,60.066L322.649,59.612L321.615,59.164L320.577,58.722L319.535,58.286L318.491,57.857L317.444,57.434L316.393,57.017L315.339,56.606L314.282,56.202L313.223,55.805L312.16,55.413L311.094,55.028L310.025,54.65L308.953,54.278L307.878,53.912L306.801,53.553L305.72,53.201L304.637,52.855L303.55,52.516L302.461,52.183L301.369,51.857L300.275,51.537L299.177,51.225L298.077,50.919L296.974,50.619L295.868,50.327L294.76,50.041L293.649,49.762L292.536,49.49L291.419,49.224L290.301,48.966L289.179,48.714L288.056,48.469L286.929,48.232L285.8,48.001L284.669,47.777L283.535,47.56L282.399,47.35L281.261,47.147L280.12,46.952L278.977,46.763L277.831,46.582L276.683,46.407L275.533,46.24L274.38,46.08L273.226,45.927L272.069,45.781L270.91,45.643L269.748,45.512L268.585,45.388L267.419,45.272L266.251,45.163L265.082,45.061L263.91,44.967L262.736,44.88L261.56,44.8L260.382,44.728L259.202,44.664L258.02,44.606L256.837,44.557L255.651,44.515L254.463,44.481L253.274,44.454L252.083,44.435L250.889,44.423L249.695,44.419L248.5,44.423Z" style="fill:rgb(255,0,0);"/>
    </g>
    <g transform="matrix(0.103603,0.00751618,-0.00550534,0.141444,-48.7405,-48.1505)">
        <path d="M1245.16,585.079C1274.1,580.122 1301.26,576.971 1327.22,578.777C1288.98,588.469 1255.8,604.25 1261.54,629.324" style="fill:none;stroke-width:4.16px;stroke:black;"/>
    </g>
    <g transform="matrix(0.106864,-0.075392,0.0476288,0.125835,-68.8145,29.5063)">
        <path d="M904.366,396.298C860.399,376.564 815.729,370.484 770.226,380.603L770.868,388.477C816.177,388.489 860.824,393.297 904.782,403.092L904.366,396.298Z" style="fill:black;"/>
    </g>
    <g transform="matrix(0.103749,-3.09297e-17,-2.0887e-16,0.141643,-52.0067,-33.9452)">
        <path d="M1097.05,440.793C1055.81,429.896 999.625,436.091 963.883,433.624C936.627,431.742 921.26,423.15 933.474,407.974L916.803,409.28C895.313,464.036 1096.59,434.784 1097.05,440.793Z" style="fill:black;"/>
    </g>
    <g transform="matrix(0.0793245,-0.0912928,0.0668688,0.108298,-51.3437,65.0239)">
        <path d="M985.613,372.099L977.69,369.031C971.046,394.829 973.936,415.436 985.131,429.75C988.041,420.098 986.342,394.411 985.613,372.099Z" style="fill:black;"/>
    </g>
    <g transform="matrix(0.0924528,0.0642727,-0.0470775,0.126221,-27.355,-97.0845)">
        <path d="M1185.38,291.282C1158.77,234.576 1110.79,234.694 1025.01,280.079C1102.2,254.51 1126.88,252.082 1171.2,295.936L1185.38,291.282Z" style="fill:black;"/>
    </g>
    <g transform="matrix(0.097625,0.0479428,-0.0351165,0.133283,-32.4257,-84.4475)">
        <path d="M1042.43,330.549L1042.93,330.408L1043.43,330.302L1043.94,330.231L1044.44,330.196L1044.93,330.197L1045.42,330.234L1048.97,330.648L1052.5,331.047L1056.01,331.434L1059.51,331.806L1062.99,332.163L1066.46,332.505L1069.92,332.829L1073.37,333.135L1076.82,333.422L1080.25,333.69L1083.67,333.937L1087.1,334.163L1088.8,334.268L1090.51,334.367L1092.22,334.46L1093.92,334.547L1095.63,334.628L1097.33,334.703L1099.04,334.772L1100.74,334.834L1102.44,334.89L1104.15,334.939L1105.85,334.982L1107.56,335.018L1109.26,335.046L1110.97,335.068L1112.67,335.083L1114.38,335.091L1116.09,335.091L1117.8,335.083L1119.51,335.069L1121.22,335.046L1122.94,335.016L1124.65,334.978L1126.37,334.931L1128.09,334.877L1129.81,334.814L1131.54,334.743L1133.27,334.664L1135,334.576L1136.73,334.479L1138.47,334.374L1140.2,334.26L1141.95,334.136L1143.69,334.004L1145.44,333.862L1147.2,333.711L1148.95,333.551L1150.72,333.38L1152.48,333.201L1154.25,333.011L1156.05,332.809L1156.55,332.771L1157.05,332.769L1157.54,332.804L1158.02,332.875L1158.47,332.983L1158.9,333.126L1159.3,333.303L1159.68,333.512L1160.02,333.751L1160.32,334.02L1160.59,334.314L1160.81,334.633L1161,334.973L1162.28,337.782L1162.91,339.187L1163.53,340.587L1164.14,341.985L1164.74,343.384L1165.33,344.783L1165.9,346.185L1166.46,347.591L1167.01,349.001L1167.53,350.417L1168.04,351.841L1168.52,353.273L1168.99,354.715L1169.44,356.168L1169.86,357.632L1170.26,359.11L1170.63,360.594L1170.81,361.353L1170.98,362.109L1171.14,362.868L1171.3,363.632L1171.44,364.4L1171.59,365.173L1171.72,365.951L1171.85,366.733L1171.97,367.52L1172.08,368.312L1172.18,369.11L1172.28,369.912L1172.36,370.72L1172.44,371.534L1172.51,372.353L1172.57,373.178L1172.62,374.009L1172.66,374.847L1172.7,375.69L1172.72,376.539L1172.74,377.396L1172.75,378.258L1172.74,379.127L1172.73,380.004L1172.7,380.887L1172.67,381.777L1172.63,382.674L1172.57,383.56L1172.53,383.947L1172.44,384.337L1172.31,384.725L1172.14,385.11L1171.92,385.487L1171.67,385.854L1171.38,386.209L1171.06,386.547L1170.7,386.868L1170.32,387.167L1169.91,387.443L1169.48,387.693L1169.02,387.916L1168.56,388.109L1168.08,388.272L1167.04,388.584L1166,388.895L1164.95,389.199L1163.91,389.497L1162.87,389.788L1161.83,390.072L1160.79,390.35L1159.76,390.621L1158.72,390.886L1157.69,391.143L1156.67,391.395L1155.64,391.639L1154.62,391.877L1153.6,392.109L1152.58,392.333L1151.56,392.552L1150.55,392.763L1149.53,392.969L1148.52,393.167L1147.52,393.359L1146.51,393.545L1145.5,393.724L1144.5,393.897L1143.5,394.063L1142.5,394.223L1141.51,394.376L1140.51,394.523L1139.52,394.663L1138.53,394.797L1137.54,394.925L1136.55,395.046L1135.57,395.161L1134.59,395.27L1133.6,395.372L1132.62,395.468L1131.65,395.557L1130.67,395.641L1129.7,395.718L1128.72,395.788L1127.75,395.853L1126.79,395.911L1125.82,395.963L1124.85,396.009L1123.89,396.049L1122.93,396.082L1121.97,396.11L1121.01,396.131L1120.05,396.146L1119.1,396.155L1118.14,396.158L1117.19,396.155L1116.24,396.146L1115.29,396.131L1114.35,396.11L1113.4,396.082L1112.46,396.049L1111.52,396.01L1110.57,395.965L1109.63,395.915L1108.7,395.858L1107.76,395.795L1106.82,395.726L1104.96,395.573L1103.1,395.396L1101.25,395.195L1099.39,394.972L1097.55,394.727L1095.71,394.459L1093.88,394.168L1092.05,393.856L1090.22,393.522L1088.4,393.166L1086.58,392.788L1084.77,392.39L1082.95,391.969L1081.15,391.528L1079.34,391.066L1077.54,390.584L1075.75,390.081L1073.95,389.557L1072.16,389.014L1070.37,388.45L1068.58,387.866L1066.79,387.263L1065,386.64L1063.22,385.998L1061.43,385.337L1059.65,384.657L1057.87,383.957L1056.09,383.239L1054.3,382.503L1052.52,381.748L1050.74,380.974L1048.95,380.183L1047.19,379.381L1046.85,379.212L1046.54,379.019L1046.25,378.803L1046,378.567L1045.77,378.31L1045.57,378.036L1044.65,376.616L1043.75,375.183L1042.88,373.752L1042.04,372.324L1041.22,370.897L1040.44,369.479L1040.06,368.762L1039.69,368.051L1039.33,367.341L1038.98,366.631L1038.64,365.922L1038.31,365.214L1037.99,364.506L1037.67,363.799L1037.37,363.092L1037.08,362.385L1036.8,361.68L1036.54,360.974L1036.28,360.269L1036.03,359.565L1035.8,358.86L1035.58,358.157L1035.37,357.453L1035.18,356.75L1035,356.047L1034.83,355.344L1034.67,354.641L1034.54,353.939L1034.41,353.237L1034.3,352.534L1034.2,351.832L1034.12,351.13L1034.06,350.427L1034.01,349.725L1033.98,349.022L1033.97,348.32L1033.97,347.617L1034,346.914L1034.04,346.212L1034.1,345.509L1034.18,344.806L1034.28,344.103L1034.39,343.401L1034.53,342.699L1034.69,341.997L1034.88,341.296L1035.08,340.595L1035.31,339.896L1035.56,339.198L1035.83,338.502L1036.13,337.807L1036.45,337.115L1036.79,336.425L1037.16,335.738L1037.55,335.054L1037.97,334.374L1038.41,333.697L1038.84,333.087L1039.12,332.719L1039.43,332.366L1039.79,332.032L1040.17,331.718L1040.58,331.428L1041.02,331.164L1041.47,330.928L1041.95,330.723L1042.43,330.549ZM1043.2,335.11L1042.84,335.663L1042.49,336.22L1042.17,336.78L1041.87,337.343L1041.59,337.911L1041.32,338.481L1041.08,339.055L1040.85,339.633L1040.64,340.214L1040.45,340.798L1040.28,341.386L1040.13,341.977L1039.99,342.571L1039.87,343.169L1039.77,343.769L1039.69,344.373L1039.62,344.979L1039.57,345.589L1039.53,346.202L1039.51,346.817L1039.51,347.436L1039.52,348.057L1039.55,348.681L1039.59,349.308L1039.65,349.938L1039.72,350.57L1039.8,351.205L1039.9,351.843L1040.02,352.483L1040.14,353.126L1040.29,353.771L1040.44,354.418L1040.61,355.068L1040.79,355.721L1040.98,356.375L1041.19,357.032L1041.41,357.692L1041.64,358.353L1041.88,359.017L1042.13,359.682L1042.4,360.35L1042.67,361.02L1042.96,361.692L1043.25,362.365L1043.56,363.041L1043.88,363.719L1044.21,364.398L1044.54,365.079L1044.89,365.762L1045.25,366.447L1045.61,367.133L1046.37,368.51L1047.16,369.893L1047.98,371.283L1048.83,372.678L1049.71,374.077L1050.61,375.482L1052.36,376.276L1054.11,377.052L1055.86,377.81L1057.6,378.549L1059.35,379.269L1061.09,379.971L1062.83,380.654L1064.57,381.318L1066.31,381.963L1068.05,382.589L1069.79,383.195L1071.53,383.782L1073.27,384.35L1075.01,384.897L1076.75,385.425L1078.49,385.933L1080.23,386.42L1081.98,386.887L1083.72,387.334L1085.47,387.761L1087.22,388.166L1088.97,388.551L1090.72,388.915L1092.48,389.258L1094.23,389.58L1095.99,389.88L1097.76,390.159L1099.53,390.417L1101.3,390.653L1103.07,390.867L1104.85,391.059L1106.63,391.228L1108.42,391.376L1109.31,391.442L1110.21,391.501L1111.11,391.556L1112.01,391.604L1112.9,391.647L1113.81,391.685L1114.71,391.716L1115.61,391.742L1116.52,391.762L1117.42,391.777L1118.33,391.785L1119.24,391.788L1120.15,391.785L1121.06,391.777L1121.98,391.762L1122.89,391.742L1123.81,391.716L1124.72,391.684L1125.64,391.646L1126.57,391.602L1127.49,391.553L1128.41,391.497L1129.34,391.435L1130.27,391.368L1131.2,391.294L1132.13,391.215L1133.06,391.129L1134,391.038L1134.93,390.94L1135.87,390.837L1136.81,390.727L1137.75,390.611L1138.7,390.489L1139.64,390.361L1140.59,390.227L1141.54,390.087L1142.5,389.94L1143.45,389.788L1144.41,389.629L1145.37,389.464L1146.33,389.292L1147.29,389.115L1148.25,388.931L1149.22,388.741L1150.19,388.544L1151.16,388.341L1152.14,388.132L1153.11,387.917L1154.09,387.695L1155.07,387.467L1156.06,387.232L1157.04,386.991L1158.03,386.743L1159.02,386.49L1160.02,386.229L1161.01,385.962L1162.01,385.689L1163.01,385.409L1164.02,385.123L1165.02,384.83L1166.03,384.53L1167.04,384.224L1167.1,383.356L1167.14,382.496L1167.17,381.643L1167.19,380.797L1167.2,379.958L1167.21,379.125L1167.2,378.3L1167.19,377.48L1167.16,376.667L1167.13,375.86L1167.09,375.059L1167.04,374.264L1166.98,373.474L1166.91,372.69L1166.84,371.911L1166.76,371.138L1166.67,370.369L1166.57,369.606L1166.46,368.847L1166.35,368.093L1166.23,367.343L1166.1,366.598L1165.96,365.856L1165.82,365.119L1165.67,364.385L1165.51,363.655L1165.35,362.929L1165.18,362.206L1164.82,360.77L1164.43,359.345L1164.03,357.931L1163.6,356.525L1163.14,355.128L1162.67,353.738L1162.18,352.353L1161.67,350.972L1161.14,349.595L1160.59,348.219L1160.03,346.844L1159.45,345.469L1158.86,344.091L1158.26,342.711L1157.64,341.326L1157.02,339.936L1155.74,337.135L1153.92,337.338L1152.12,337.532L1150.31,337.716L1148.51,337.889L1146.72,338.053L1144.93,338.207L1143.14,338.352L1141.36,338.487L1139.58,338.613L1137.81,338.73L1136.04,338.837L1134.27,338.936L1132.5,339.026L1130.74,339.106L1128.98,339.179L1127.23,339.243L1125.48,339.298L1123.73,339.345L1121.98,339.384L1120.23,339.415L1118.49,339.438L1116.75,339.453L1115.01,339.46L1113.27,339.46L1111.53,339.453L1109.8,339.438L1108.07,339.415L1106.33,339.386L1104.6,339.35L1102.87,339.306L1101.14,339.256L1099.41,339.2L1097.68,339.136L1095.96,339.067L1094.23,338.991L1092.5,338.908L1090.77,338.82L1089.05,338.726L1087.32,338.626L1085.59,338.52L1082.13,338.291L1078.66,338.042L1075.19,337.771L1071.72,337.481L1068.24,337.172L1064.75,336.845L1061.25,336.501L1057.74,336.141L1054.22,335.767L1050.69,335.378L1047.14,334.976L1043.58,334.561L1043.2,335.11Z" style="fill:black;"/>
    </g>
    <g transform="matrix(0.103749,-3.09297e-17,-2.0887e-16,0.141643,-50.3076,-37.5905)">
        <path d="M973.712,405.63L974.485,405.699L975.251,405.802L976.007,405.94L976.749,406.112L977.476,406.317L978.184,406.555L978.871,406.823L979.534,407.123L980.171,407.451L980.779,407.808L981.356,408.192L981.899,408.6L982.407,409.033L996.254,421.583L996.555,421.576L999.911,421.515L1003.26,421.473L1006.61,421.451L1009.96,421.448L1013.3,421.465L1016.64,421.5L1019.97,421.555L1023.3,421.629L1026.63,421.722L1029.95,421.834L1033.28,421.964L1036.59,422.114L1039.91,422.283L1043.22,422.47L1046.52,422.676L1049.82,422.9L1053.12,423.144L1056.42,423.405L1059.71,423.685L1063,423.984L1066.28,424.301L1069.56,424.636L1072.84,424.99L1076.11,425.361L1079.38,425.751L1082.65,426.159L1085.91,426.584L1089.17,427.028L1092.42,427.49L1095.63,427.962L1096.39,428.092L1097.13,428.256L1097.87,428.453L1098.58,428.682L1099.27,428.944L1099.94,429.236L1100.58,429.557L1101.2,429.907L1101.78,430.285L1102.33,430.687L1102.85,431.114L1103.33,431.564L1103.77,432.034L1104.17,432.523L1104.53,433.029L1104.85,433.551L1105.12,434.085L1105.34,434.631L1105.52,435.187L1105.66,435.749L1105.74,436.316L1105.78,436.886L1105.77,437.456L1105.71,438.025L1105.6,438.59L1105.45,439.149L1105.25,439.701L1105,440.242L1104.71,440.771L1104.38,441.286L1104,441.785L1103.58,442.265L1103.12,442.726L1102.62,443.166L1102.09,443.582L1101.52,443.974L1100.92,444.339L1100.3,444.676L1099.64,444.985L1098.96,445.263L1098.26,445.51L1097.54,445.725L1096.8,445.908L1096.05,446.056L1095.29,446.17L1094.52,446.25L1093.74,446.295L1092.96,446.305L1092.18,446.279L1091.41,446.219L1090.64,446.123L1087.53,445.664L1084.45,445.229L1081.38,444.81L1078.31,444.409L1075.23,444.025L1072.14,443.657L1069.06,443.307L1065.97,442.974L1062.88,442.658L1059.79,442.36L1056.69,442.079L1053.6,441.815L1050.49,441.569L1047.39,441.34L1044.28,441.128L1041.17,440.935L1038.06,440.759L1034.94,440.6L1031.82,440.459L1028.7,440.336L1025.57,440.231L1022.44,440.144L1019.31,440.074L1016.17,440.023L1013.03,439.989L1009.89,439.974L1006.74,439.976L1003.59,439.997L1000.44,440.036L997.282,440.094L994.122,440.17L990.909,440.265L990.173,440.271L989.437,440.246L988.705,440.19L987.979,440.102L987.26,439.983L986.553,439.835L985.858,439.656L985.179,439.448L984.517,439.211L983.876,438.947L983.256,438.655L982.661,438.338L982.092,437.996L981.551,437.63L981.04,437.242L980.56,436.832L962.736,420.677L962.265,420.222L961.834,419.748L961.443,419.254L961.094,418.744L960.789,418.219L960.529,417.681L960.314,417.133L960.146,416.576L960.025,416.012L959.951,415.444L959.925,414.874L959.948,414.304L960.018,413.736L960.136,413.172L960.301,412.614L960.512,412.065L960.77,411.527L961.072,411.001L961.418,410.49L961.806,409.995L962.234,409.519L962.703,409.063L963.208,408.629L963.749,408.219L964.324,407.833L964.929,407.475L965.564,407.144L966.225,406.843L966.911,406.572L967.618,406.332L968.343,406.125L969.085,405.951L969.84,405.811L970.605,405.705L971.378,405.633L972.155,405.597L972.934,405.596L973.712,405.63Z" style="fill:black;"/>
    </g>
    <g transform="matrix(0.0507052,0.0603864,-0.0682002,0.106739,38.6656,-90.4554)">
        <path d="M1181.37,440.874L1119.04,443.916L1119.04,448.677C1139.3,446.317 1159.44,445.151 1179.31,447.029L1181.37,440.874Z" style="fill:black;stroke-width:7.55px;stroke:black;"/>
    </g>
    <g transform="matrix(0.0863422,-0.0785327,0.0575225,0.117879,-58.0883,57.2023)">
        <path d="M1123.97,504.9C1123.37,504.612 1123.04,500.834 1123.07,500.868C1124.1,502.369 1119.5,501.088 1117.64,500.749C1112.59,499.831 1107.72,497.712 1103.8,497.608C1100.2,497.512 1097.49,499.352 1094.49,500.243C1093.05,500.673 1091.61,500.523 1090.41,501.343L1089.34,506.176L1095.92,504.005L1107.16,502.366L1122.36,505.674C1122.9,505.272 1124.47,505.138 1123.97,504.9Z" style="fill:black;stroke-width:8.51px;stroke:black;"/>
    </g>
    <g transform="matrix(0.103749,-3.09297e-17,-2.0887e-16,0.141643,-51.0048,-38.1342)">
        <path d="M1099.19,462.511C1105.85,462.472 1108.07,464.831 1109.93,468.111C1111.92,471.646 1106.53,476.253 1099.19,473.712C1089.93,470.505 1087.69,470.062 1088.45,468.111C1090.08,463.926 1092.96,462.547 1099.19,462.511Z" style="fill:black;stroke-width:7.23px;stroke:black;"/>
    </g>
    <g transform="matrix(0.101189,-0.0312677,0.0229025,0.138149,-56.6916,-5.99353)">
        <path d="M1066.37,492.674C1064.65,491.568 1062.98,490.41 1061.53,488.877C1060.92,500.165 1072.78,508.897 1086.63,516L1085.9,511.04C1074.32,506.15 1067.39,502.337 1066.37,492.674Z" style="fill:black;stroke-width:7.75px;stroke:black;"/>
    </g>
    <g transform="matrix(0.105024,-0.0291304,0.0209982,0.141108,-62.3946,-4.49977)">
        <path d="M1190.62,413.652L1173.38,418.014C1294.99,533.446 1363.2,613.123 1178.38,564.016C1224.12,604.985 1432.81,661.695 1190.62,413.652Z" style="fill:black;"/>
    </g>
    <g transform="matrix(0.0642888,-1.91658e-17,-1.29428e-16,0.0877704,-9.60225,-15.3686)">
        <path d="M1455.15,700.696C1453.61,699.84 1450.34,695.456 1452.91,696.884C1642.09,801.713 1583.87,1085.12 1280.8,1029.41C1134.49,1002.52 1074.32,939.643 1060.69,815.951C1060.15,811.055 1062.2,817.547 1062.4,819.384C1074.69,930.894 1139.48,978.103 1271.37,1002.35C1544.6,1052.57 1625.69,795.201 1455.15,700.696Z" style="fill:black;"/>
    </g>
    <g transform="matrix(0.09729,0.00705821,-0.00516989,0.132825,-40.1989,-42.1271)">
        <path d="M1245.16,585.079C1274.1,580.122 1301.26,576.971 1327.22,578.777C1288.98,588.469 1255.8,604.25 1261.54,629.324" style="fill:none;stroke-width:2.96px;stroke:rgb(242,242,242);"/>
    </g>
    <g transform="matrix(0.100353,-0.0707983,0.0447267,0.118168,-62.1885,28.2932)">
        <path d="M904.366,396.298C860.399,376.564 815.729,370.484 770.226,380.603L770.868,388.477C816.177,388.489 860.824,393.297 904.782,403.092L904.366,396.298Z" style="fill:white;"/>
    </g>
    <g transform="matrix(0.0974273,-2.90451e-17,-1.96144e-16,0.133013,-44.943,-30.0119)">
        <path d="M1097.05,440.793C1055.81,429.896 999.625,436.091 963.883,433.624C936.627,431.742 921.26,423.15 933.474,407.974L916.803,409.28C895.313,464.036 1096.59,434.784 1097.05,440.793Z" style="fill:white;"/>
    </g>
    <g transform="matrix(0.0744912,-0.0857302,0.0627944,0.101699,-44.3,62.5036)">
        <path d="M985.613,372.099L977.69,369.031C971.046,394.829 973.936,415.436 985.131,429.75C988.041,420.098 986.342,394.411 985.613,372.099Z" style="fill:white;"/>
    </g>
    <g transform="matrix(0.0868195,0.0603565,-0.044209,0.118531,-20.6379,-89.7323)">
        <path d="M1185.38,291.282C1158.77,234.576 1097.52,235.239 1011.74,280.624C1089.83,253.822 1133.89,242.466 1171.2,295.936L1185.38,291.282Z" style="fill:white;"/>
    </g>
    <g transform="matrix(0.0916766,0.0450216,-0.0329768,0.125162,-26.1271,-77.8514)">
        <path d="M1041.55,327.441L1042.21,327.248L1042.87,327.089L1043.54,326.965L1044.21,326.876L1044.88,326.823L1045.54,326.806L1046.2,326.826L1046.84,326.881L1050.38,327.292L1053.91,327.687L1057.44,328.066L1060.96,328.43L1064.49,328.778L1068.01,329.108L1071.53,329.421L1075.05,329.714L1078.56,329.988L1082.08,330.242L1085.59,330.475L1089.1,330.685L1092.62,330.874L1094.37,330.959L1096.13,331.038L1097.88,331.112L1099.63,331.179L1101.39,331.24L1103.14,331.295L1104.89,331.343L1106.65,331.385L1108.4,331.42L1110.15,331.448L1111.91,331.47L1113.66,331.485L1115.41,331.493L1117.16,331.494L1118.91,331.487L1120.66,331.474L1122.41,331.453L1124.16,331.424L1125.91,331.388L1127.66,331.345L1129.41,331.293L1131.16,331.234L1132.91,331.167L1134.66,331.092L1136.41,331.009L1138.16,330.918L1139.91,330.819L1141.65,330.711L1143.4,330.594L1145.15,330.47L1146.9,330.336L1148.65,330.194L1150.39,330.043L1152.14,329.883L1153.89,329.714L1155.64,329.536L1157.38,329.349L1159.17,329.149L1159.82,329.093L1160.46,329.07L1161.1,329.083L1161.73,329.129L1162.34,329.209L1162.93,329.323L1163.51,329.471L1164.07,329.65L1164.6,329.862L1165.1,330.104L1165.58,330.376L1166.03,330.676L1166.44,331.004L1166.82,331.357L1167.16,331.735L1167.46,332.134L1167.73,332.555L1167.95,332.995L1168.6,334.425L1169.25,335.881L1169.88,337.342L1170.51,338.809L1171.11,340.283L1171.7,341.765L1172.28,343.254L1172.83,344.752L1173.37,346.26L1173.89,347.776L1174.39,349.303L1174.87,350.841L1175.33,352.39L1175.77,353.951L1176.18,355.524L1176.57,357.11L1176.94,358.708L1177.28,360.321L1177.59,361.948L1177.87,363.589L1178.13,365.246L1178.36,366.918L1178.56,368.593L1178.65,369.456L1178.73,370.31L1178.8,371.169L1178.87,372.031L1178.92,372.898L1178.97,373.77L1179.02,374.646L1179.05,375.526L1179.07,376.41L1179.09,377.299L1179.09,378.193L1179.09,379.091L1179.08,379.995L1179.06,380.902L1179.03,381.815L1179,382.732L1178.95,383.655L1178.9,384.553L1178.84,385.067L1178.75,385.585L1178.61,386.103L1178.42,386.62L1178.2,387.133L1177.94,387.639L1177.63,388.137L1177.29,388.624L1176.91,389.098L1176.5,389.557L1176.05,389.999L1175.57,390.422L1175.07,390.824L1174.53,391.203L1173.97,391.557L1173.39,391.886L1172.79,392.187L1172.18,392.459L1171.55,392.701L1170.9,392.912L1169.85,393.23L1168.77,393.552L1167.68,393.866L1166.59,394.173L1165.51,394.473L1164.43,394.765L1163.35,395.049L1162.27,395.326L1161.19,395.596L1160.11,395.859L1159.04,396.114L1157.97,396.361L1156.89,396.602L1155.83,396.835L1154.76,397.06L1153.69,397.279L1152.62,397.49L1151.56,397.694L1150.5,397.891L1149.44,398.08L1148.38,398.263L1147.33,398.438L1146.27,398.606L1145.22,398.767L1144.16,398.921L1143.12,399.067L1142.07,399.207L1141.02,399.34L1139.98,399.466L1138.93,399.584L1137.89,399.696L1136.85,399.801L1135.81,399.899L1134.78,399.99L1133.74,400.074L1132.71,400.152L1131.68,400.222L1130.65,400.286L1129.62,400.343L1128.59,400.394L1127.57,400.438L1126.55,400.475L1125.53,400.505L1124.51,400.529L1123.49,400.547L1122.47,400.557L1121.46,400.562L1120.45,400.56L1119.44,400.551L1118.41,400.536L1116.42,400.487L1114.41,400.413L1112.42,400.314L1110.43,400.19L1108.44,400.041L1106.47,399.869L1104.5,399.673L1102.54,399.453L1100.58,399.209L1098.63,398.943L1096.69,398.654L1094.75,398.342L1092.83,398.009L1090.9,397.653L1088.99,397.275L1087.07,396.877L1085.17,396.457L1083.27,396.016L1081.38,395.554L1079.49,395.072L1077.61,394.571L1075.73,394.049L1073.86,393.508L1072,392.947L1070.13,392.368L1068.28,391.769L1066.42,391.152L1064.58,390.517L1062.73,389.864L1060.89,389.192L1059.06,388.504L1057.23,387.798L1055.4,387.074L1053.58,386.334L1051.75,385.577L1049.94,384.804L1048.12,384.015L1046.31,383.209L1044.53,382.401L1044.02,382.146L1043.54,381.86L1043.09,381.544L1042.67,381.2L1042.3,380.83L1041.96,380.434L1041.66,380.016L1040.74,378.583L1039.82,377.125L1038.93,375.666L1038.07,374.206L1037.24,372.746L1036.43,371.286L1035.67,369.836L1035.3,369.093L1034.93,368.362L1034.58,367.63L1034.24,366.897L1033.9,366.165L1033.58,365.431L1033.27,364.697L1032.97,363.962L1032.67,363.227L1032.39,362.491L1032.13,361.754L1031.87,361.016L1031.63,360.277L1031.39,359.537L1031.17,358.795L1030.97,358.052L1030.78,357.309L1030.6,356.563L1030.44,355.816L1030.29,355.067L1030.15,354.316L1030.03,353.564L1029.93,352.81L1029.85,352.053L1029.78,351.294L1029.73,350.533L1029.69,349.77L1029.68,349.005L1029.68,348.237L1029.71,347.467L1029.75,346.694L1029.82,345.919L1029.91,345.141L1030.02,344.362L1030.15,343.58L1030.31,342.797L1030.49,342.012L1030.69,341.226L1030.92,340.438L1031.18,339.65L1031.46,338.861L1031.77,338.073L1032.1,337.285L1032.47,336.498L1032.86,335.713L1033.28,334.93L1033.73,334.15L1034.2,333.374L1034.71,332.603L1035.16,331.945L1035.53,331.453L1035.93,330.975L1036.37,330.515L1036.85,330.073L1037.35,329.652L1037.88,329.254L1038.44,328.88L1039.03,328.533L1039.63,328.214L1040.26,327.925L1040.89,327.667L1041.55,327.441ZM1043.2,335.11L1042.84,335.663L1042.49,336.22L1042.17,336.78L1041.87,337.343L1041.59,337.911L1041.32,338.481L1041.08,339.055L1040.85,339.633L1040.64,340.214L1040.45,340.798L1040.28,341.386L1040.13,341.977L1039.99,342.571L1039.87,343.169L1039.77,343.769L1039.69,344.373L1039.62,344.979L1039.57,345.589L1039.53,346.202L1039.51,346.817L1039.51,347.436L1039.52,348.057L1039.55,348.681L1039.59,349.308L1039.65,349.938L1039.72,350.57L1039.8,351.205L1039.9,351.843L1040.02,352.483L1040.14,353.126L1040.29,353.771L1040.44,354.418L1040.61,355.068L1040.79,355.721L1040.98,356.375L1041.19,357.032L1041.41,357.692L1041.64,358.353L1041.88,359.017L1042.13,359.682L1042.4,360.35L1042.67,361.02L1042.96,361.692L1043.25,362.365L1043.56,363.041L1043.88,363.719L1044.21,364.398L1044.54,365.079L1044.89,365.762L1045.61,367.133L1046.37,368.51L1047.16,369.893L1047.98,371.283L1048.83,372.678L1049.71,374.077L1050.61,375.482L1052.37,376.277L1054.12,377.056L1055.87,377.819L1057.63,378.566L1059.38,379.296L1061.14,380.008L1062.9,380.704L1064.66,381.383L1066.42,382.044L1068.18,382.688L1069.95,383.313L1071.72,383.921L1073.49,384.511L1075.26,385.082L1077.03,385.634L1078.81,386.167L1080.59,386.682L1082.37,387.177L1084.15,387.653L1085.94,388.109L1087.73,388.546L1089.52,388.962L1091.32,389.358L1093.12,389.734L1094.92,390.089L1096.73,390.423L1098.54,390.736L1100.35,391.028L1102.17,391.299L1103.99,391.548L1105.82,391.775L1107.65,391.98L1109.48,392.163L1111.32,392.323L1113.16,392.461L1115.01,392.576L1116.87,392.668L1118.72,392.737L1120.59,392.783L1121.52,392.796L1122.45,392.804L1123.39,392.806L1124.33,392.802L1125.26,392.792L1126.2,392.776L1127.14,392.754L1128.09,392.726L1129.03,392.692L1129.98,392.652L1130.92,392.605L1131.87,392.552L1132.82,392.493L1133.77,392.428L1134.72,392.357L1135.68,392.279L1136.63,392.195L1137.59,392.105L1138.55,392.008L1139.51,391.905L1140.47,391.796L1141.43,391.68L1142.39,391.558L1143.36,391.429L1144.33,391.294L1145.3,391.152L1146.27,391.004L1147.24,390.849L1148.21,390.687L1149.19,390.519L1150.17,390.344L1151.15,390.163L1152.13,389.975L1153.11,389.78L1154.1,389.578L1155.08,389.37L1156.07,389.155L1157.06,388.933L1158.05,388.704L1159.04,388.468L1160.04,388.225L1161.04,387.976L1162.04,387.719L1163.04,387.456L1164.04,387.185L1165.04,386.908L1166.05,386.623L1167.06,386.332L1168.07,386.033L1169.08,385.727L1169.13,384.858L1169.17,383.994L1169.21,383.135L1169.24,382.28L1169.25,381.43L1169.26,380.584L1169.27,379.742L1169.26,378.905L1169.24,378.073L1169.22,377.244L1169.19,376.42L1169.15,375.6L1169.11,374.783L1169.05,373.971L1168.99,373.163L1168.92,372.358L1168.85,371.557L1168.77,370.76L1168.58,369.176L1168.36,367.605L1168.12,366.049L1167.85,364.504L1167.56,362.972L1167.24,361.451L1166.89,359.942L1166.52,358.443L1166.13,356.953L1165.72,355.473L1165.28,354.002L1164.83,352.539L1164.35,351.083L1163.85,349.635L1163.34,348.193L1162.8,346.757L1162.25,345.327L1161.68,343.901L1161.1,342.479L1160.5,341.062L1159.88,339.647L1159.26,338.235L1158.62,336.825L1156.8,337.029L1154.99,337.224L1153.17,337.408L1151.36,337.583L1149.55,337.749L1147.74,337.906L1145.92,338.053L1144.12,338.191L1142.31,338.32L1140.5,338.441L1138.69,338.552L1136.88,338.655L1135.08,338.749L1133.27,338.835L1131.46,338.913L1129.66,338.982L1127.85,339.043L1126.05,339.095L1124.25,339.14L1122.44,339.177L1120.64,339.207L1118.84,339.228L1117.04,339.242L1115.24,339.249L1113.44,339.248L1111.64,339.24L1109.84,339.225L1108.04,339.202L1106.24,339.173L1104.45,339.137L1102.65,339.094L1100.85,339.045L1099.06,338.989L1097.26,338.926L1095.47,338.858L1093.67,338.783L1091.88,338.701L1090.08,338.614L1086.5,338.422L1082.91,338.207L1079.33,337.97L1075.75,337.711L1072.17,337.432L1068.59,337.134L1065.02,336.816L1061.44,336.481L1057.87,336.128L1054.29,335.759L1050.72,335.374L1047.15,334.975L1043.58,334.561L1043.2,335.11Z" style="fill:rgb(242,242,242);"/>
    </g>
    <g transform="matrix(0.0974273,-2.90451e-17,-1.96144e-16,0.133013,-43.4014,-33.4278)">
        <path d="M972.571,414.855L990.396,431.01C1025.22,429.874 1059.45,431.981 1093.13,437.043" style="fill:none;stroke-width:4.72px;stroke:rgb(242,242,242);"/>
    </g>
    <g transform="matrix(0.0476156,0.056707,-0.0640447,0.100235,40.8052,-82.694)">
        <path d="M1181.37,440.874L1119.04,443.916L1119.04,448.677C1139.3,446.317 1159.44,445.151 1179.31,447.029L1181.37,440.874Z" style="fill:white;"/>
    </g>
    <g transform="matrix(0.0810813,-0.0737476,0.0540176,0.110696,-50.0533,55.9668)">
        <path d="M1123.97,504.9C1123.37,504.612 1123.04,500.834 1123.07,500.868C1124.1,502.369 1119.5,501.088 1117.64,500.749C1112.59,499.831 1107.72,497.712 1103.8,497.608C1100.2,497.512 1097.49,499.352 1094.49,500.243C1093.05,500.673 1091.61,500.523 1090.41,501.343L1089.34,506.176L1095.92,504.005L1107.16,502.366L1122.36,505.674C1122.9,505.272 1124.47,505.138 1123.97,504.9Z" style="fill:white;"/>
    </g>
    <g transform="matrix(0.0974273,-2.90451e-17,-1.96144e-16,0.133013,-43.4014,-33.5608)">
        <path d="M1099.19,462.511C1105.85,462.472 1108.07,464.831 1109.93,468.111C1111.92,471.646 1106.53,476.253 1099.19,473.712C1089.93,470.505 1087.69,470.062 1088.45,468.111C1090.08,463.926 1092.96,462.547 1099.19,462.511Z" style="fill:white;"/>
    </g>
    <g transform="matrix(0.0950238,-0.0293625,0.021507,0.129731,-48.7417,-3.37848)">
        <path d="M1066.37,492.674C1064.65,491.568 1062.98,490.41 1061.53,488.877C1060.92,500.165 1072.78,508.897 1086.63,516L1085.9,511.04C1074.32,506.15 1067.39,502.337 1066.37,492.674Z" style="fill:white;"/>
    </g>
    <g transform="matrix(0.0986252,-0.0273555,0.0197187,0.13251,-53.1914,-1.44921)">
        <path d="M1187.84,406.255L1171.59,406.255C1293.2,521.687 1363.2,613.123 1178.38,564.016C1224.12,604.985 1430.03,654.298 1187.84,406.255Z" style="fill:white;"/>
    </g>
    <g transform="matrix(0.0603716,-1.7998e-17,-1.21542e-16,0.0824225,-3.34771,-7.82967)">
        <path d="M1450.67,659.866C1448.39,655.2 1448.09,653.227 1450.67,654.656C1639.84,759.485 1583.87,1085.12 1280.8,1029.41C1134.49,1002.52 1049.07,914.921 1035.44,791.229C1034.9,786.334 1035.22,784.535 1036.39,785.193C1036.23,786.117 1036.25,787.477 1036.45,789.314C1048.74,900.824 1139.48,978.103 1271.37,1002.35C1544.6,1052.57 1623.65,752.845 1453.11,658.341C1451.56,657.485 1450.8,658.062 1450.67,659.866Z" style="fill:white;"/>
        <path d="M1449.51,654.206L1449.66,654.233L1449.83,654.278L1450.02,654.343L1450.22,654.428L1450.43,654.532L1450.67,654.656L1452.87,655.894L1455.06,657.153L1457.22,658.431L1459.35,659.729L1461.47,661.046L1463.56,662.383L1465.63,663.738L1467.68,665.112L1469.71,666.505L1471.71,667.915L1473.69,669.344L1475.65,670.791L1477.59,672.255L1479.5,673.737L1481.39,675.236L1483.26,676.752L1485.11,678.285L1486.93,679.834L1488.74,681.399L1490.51,682.981L1492.27,684.579L1494.01,686.192L1495.72,687.821L1497.41,689.465L1499.07,691.124L1500.72,692.798L1502.34,694.487L1503.94,696.189L1505.52,697.907L1507.07,699.638L1508.6,701.383L1510.11,703.141L1511.6,704.913L1513.06,706.698L1514.51,708.495L1515.92,710.306L1517.32,712.129L1518.7,713.964L1520.05,715.811L1521.38,717.67L1522.69,719.54L1523.97,721.422L1525.23,723.316L1526.47,725.22L1527.69,727.134L1528.89,729.06L1530.06,730.995L1531.21,732.941L1532.34,734.897L1533.44,736.862L1534.52,738.837L1535.58,740.821L1536.62,742.814L1537.64,744.816L1538.63,746.826L1539.6,748.845L1540.55,750.872L1541.47,752.907L1542.38,754.949L1543.26,756.999L1544.11,759.057L1544.95,761.121L1545.76,763.192L1546.55,765.27L1547.32,767.355L1548.07,769.445L1548.79,771.542L1549.49,773.644L1550.17,775.752L1550.82,777.866L1551.45,779.984L1552.07,782.108L1552.65,784.236L1553.22,786.368L1553.76,788.505L1554.28,790.646L1554.78,792.791L1555.26,794.94L1555.71,797.091L1556.14,799.247L1556.55,801.405L1556.93,803.565L1557.3,805.729L1557.63,807.895L1557.95,810.062L1558.25,812.232L1558.52,814.404L1558.77,816.577L1559,818.751L1559.2,820.926L1559.39,823.102L1559.55,825.279L1559.69,827.456L1559.8,829.633L1559.89,831.811L1559.96,833.988L1560.01,836.164L1560.04,838.34L1560.04,840.515L1560.02,842.689L1559.98,844.862L1559.91,847.033L1559.83,849.202L1559.72,851.369L1559.58,853.534L1559.43,855.697L1559.25,857.857L1559.05,860.015L1558.83,862.169L1558.59,864.32L1558.32,866.468L1558.03,868.611L1557.72,870.751L1557.38,872.887L1557.02,875.019L1556.64,877.146L1556.24,879.268L1555.82,881.385L1555.37,883.497L1554.9,885.604L1554.4,887.705L1553.89,889.8L1553.35,891.889L1552.79,893.972L1552.21,896.048L1551.6,898.118L1550.98,900.18L1550.33,902.236L1549.65,904.284L1548.96,906.325L1548.24,908.358L1547.5,910.383L1546.74,912.399L1545.95,914.408L1545.14,916.407L1544.31,918.398L1543.46,920.38L1542.58,922.352L1541.68,924.315L1540.76,926.268L1539.82,928.211L1538.85,930.145L1537.87,932.067L1536.85,933.979L1535.82,935.881L1534.77,937.771L1533.69,939.65L1532.59,941.518L1531.46,943.374L1530.32,945.218L1529.15,947.05L1527.95,948.87L1526.74,950.677L1525.5,952.472L1524.25,954.253L1522.96,956.022L1521.66,957.777L1520.33,959.518L1518.98,961.246L1517.61,962.959L1516.22,964.659L1514.8,966.344L1513.36,968.014L1511.9,969.669L1510.41,971.31L1508.91,972.935L1507.38,974.544L1505.83,976.138L1504.25,977.715L1502.65,979.277L1501.03,980.822L1499.39,982.35L1497.73,983.862L1496.04,985.357L1494.33,986.834L1492.6,988.294L1490.84,989.736L1489.06,991.161L1487.26,992.567L1485.44,993.955L1483.59,995.324L1481.73,996.675L1479.83,998.006L1477.92,999.319L1475.99,1000.61L1474.03,1001.88L1472.05,1003.14L1470.04,1004.37L1468.02,1005.59L1465.97,1006.78L1463.89,1007.95L1461.8,1009.1L1459.68,1010.23L1457.55,1011.34L1455.38,1012.43L1453.2,1013.49L1450.99,1014.54L1448.76,1015.56L1446.51,1016.56L1444.24,1017.53L1441.94,1018.49L1439.62,1019.42L1437.28,1020.32L1434.91,1021.21L1432.53,1022.07L1430.12,1022.9L1427.68,1023.71L1425.23,1024.5L1422.75,1025.26L1420.25,1026L1417.73,1026.71L1415.18,1027.4L1412.61,1028.06L1410.02,1028.7L1407.41,1029.31L1404.77,1029.89L1402.11,1030.45L1399.43,1030.98L1396.73,1031.49L1394,1031.97L1391.25,1032.42L1388.48,1032.84L1385.69,1033.24L1382.87,1033.61L1380.03,1033.94L1377.17,1034.26L1374.28,1034.54L1371.38,1034.8L1368.45,1035.02L1365.5,1035.22L1362.52,1035.38L1359.52,1035.52L1356.5,1035.63L1353.46,1035.71L1350.39,1035.76L1347.31,1035.78L1344.19,1035.76L1341.06,1035.72L1337.91,1035.64L1334.73,1035.54L1331.53,1035.4L1328.3,1035.23L1325.06,1035.03L1321.79,1034.8L1318.5,1034.53L1315.18,1034.23L1311.85,1033.9L1308.49,1033.54L1305.1,1033.14L1301.7,1032.71L1298.27,1032.25L1294.82,1031.75L1291.35,1031.22L1287.85,1030.65L1284.34,1030.05L1280.8,1029.41L1277.38,1028.77L1273.98,1028.11L1270.61,1027.42L1267.26,1026.72L1263.93,1025.99L1260.62,1025.24L1257.34,1024.46L1254.08,1023.67L1250.84,1022.85L1247.63,1022.01L1244.43,1021.15L1241.26,1020.27L1238.12,1019.37L1234.99,1018.44L1231.89,1017.5L1228.81,1016.53L1225.75,1015.55L1222.72,1014.54L1219.71,1013.51L1216.72,1012.46L1213.75,1011.39L1210.81,1010.29L1207.89,1009.18L1204.99,1008.05L1202.12,1006.89L1199.27,1005.72L1196.44,1004.52L1193.64,1003.31L1190.86,1002.08L1188.1,1000.82L1185.37,999.543L1182.65,998.248L1179.97,996.932L1177.3,995.597L1174.66,994.241L1172.04,992.866L1169.45,991.471L1166.88,990.057L1164.33,988.623L1161.81,987.169L1159.31,985.696L1156.83,984.204L1154.38,982.693L1151.95,981.162L1149.54,979.612L1147.16,978.043L1144.8,976.455L1142.47,974.848L1140.15,973.222L1137.87,971.578L1135.61,969.915L1133.37,968.233L1131.15,966.533L1128.96,964.814L1126.79,963.076L1124.65,961.321L1122.53,959.547L1120.43,957.754L1118.36,955.944L1116.31,954.116L1114.29,952.269L1112.29,950.405L1110.32,948.522L1108.37,946.622L1106.44,944.705L1104.54,942.769L1102.66,940.816L1100.81,938.846L1098.98,936.858L1097.18,934.852L1095.4,932.83L1093.64,930.79L1091.91,928.733L1090.21,926.659L1088.53,924.568L1086.87,922.46L1085.24,920.335L1083.63,918.193L1082.05,916.034L1080.49,913.859L1078.95,911.667L1077.45,909.459L1075.96,907.234L1074.51,904.993L1073.07,902.736L1071.66,900.462L1070.28,898.172L1068.92,895.866L1067.59,893.544L1066.28,891.206L1065,888.852L1063.74,886.482L1062.5,884.097L1061.3,881.696L1060.11,879.279L1058.96,876.847L1057.82,874.399L1056.72,871.936L1055.63,869.457L1054.58,866.963L1053.55,864.455L1052.54,861.93L1051.56,859.391L1050.61,856.837L1049.68,854.268L1048.78,851.684L1047.9,849.086L1047.05,846.473L1046.22,843.845L1045.42,841.202L1044.65,838.545L1043.9,835.874L1043.17,833.188L1042.48,830.488L1041.81,827.774L1041.16,825.046L1040.54,822.303L1039.95,819.547L1039.38,816.776L1038.84,813.992L1038.32,811.194L1037.83,808.383L1037.37,805.557L1036.93,802.719L1036.52,799.866L1036.13,797L1035.78,794.121L1035.44,791.229L1035.35,790.347L1035.28,789.537L1035.23,788.798L1035.2,788.128L1035.19,787.527L1035.2,786.994L1035.23,786.528L1035.28,786.129L1035.34,785.794L1035.43,785.523L1035.54,785.316L1035.61,785.235L1035.67,785.17L1035.74,785.121L1035.82,785.086L1035.9,785.067L1035.99,785.063L1036.08,785.074L1036.18,785.099L1036.28,785.139L1036.39,785.193L1036.34,785.56L1036.3,785.968L1036.28,786.418L1036.28,786.911L1036.3,787.446L1036.33,788.025L1036.38,788.647L1036.45,789.314L1036.75,791.922L1037.08,794.516L1037.44,797.098L1037.83,799.668L1038.24,802.224L1038.69,804.768L1039.16,807.299L1039.66,809.817L1040.19,812.322L1040.75,814.814L1041.33,817.293L1041.94,819.758L1042.58,822.211L1043.25,824.65L1043.94,827.077L1044.66,829.489L1045.41,831.889L1046.18,834.274L1046.98,836.647L1047.81,839.006L1048.67,841.351L1049.55,843.683L1050.45,846L1051.39,848.304L1052.35,850.595L1053.33,852.871L1054.35,855.133L1055.38,857.382L1056.45,859.616L1057.54,861.837L1058.65,864.043L1059.79,866.235L1060.96,868.412L1062.15,870.576L1063.36,872.725L1064.6,874.859L1065.87,876.979L1067.16,879.085L1068.47,881.176L1069.81,883.252L1071.18,885.314L1072.57,887.361L1073.98,889.393L1075.42,891.41L1076.88,893.413L1078.36,895.4L1079.87,897.373L1081.4,899.33L1082.96,901.272L1084.54,903.199L1086.14,905.111L1087.77,907.008L1089.42,908.889L1091.09,910.755L1092.78,912.605L1094.5,914.44L1096.24,916.26L1098.01,918.063L1099.79,919.851L1101.6,921.624L1103.43,923.381L1105.29,925.121L1107.16,926.846L1109.06,928.555L1110.98,930.248L1112.92,931.925L1114.88,933.586L1116.87,935.231L1118.87,936.86L1120.9,938.472L1122.95,940.068L1125.02,941.648L1127.11,943.211L1129.22,944.758L1131.35,946.288L1133.5,947.802L1135.68,949.299L1137.87,950.779L1140.09,952.243L1142.32,953.69L1144.58,955.12L1146.85,956.533L1149.15,957.929L1151.46,959.308L1153.8,960.671L1156.15,962.016L1158.52,963.344L1160.92,964.654L1163.33,965.948L1165.76,967.224L1168.21,968.482L1170.68,969.724L1173.17,970.947L1175.68,972.154L1178.21,973.342L1180.75,974.513L1183.32,975.667L1185.9,976.802L1188.5,977.92L1191.12,979.02L1193.75,980.102L1196.41,981.166L1199.08,982.212L1201.77,983.239L1204.48,984.249L1207.2,985.241L1209.94,986.214L1212.7,987.169L1215.48,988.106L1218.28,989.024L1221.09,989.924L1223.91,990.805L1226.76,991.668L1229.62,992.512L1232.5,993.338L1235.39,994.144L1238.31,994.932L1241.23,995.702L1244.18,996.452L1247.13,997.183L1250.11,997.895L1253.1,998.589L1256.11,999.263L1259.13,999.918L1262.17,1000.55L1265.22,1001.17L1268.29,1001.77L1271.37,1002.35L1274.57,1002.92L1277.74,1003.46L1280.9,1003.97L1284.04,1004.45L1287.16,1004.89L1290.26,1005.31L1293.35,1005.69L1296.42,1006.05L1299.47,1006.37L1302.5,1006.66L1305.51,1006.93L1308.51,1007.16L1311.49,1007.36L1314.45,1007.54L1317.39,1007.68L1320.31,1007.8L1323.22,1007.88L1326.11,1007.94L1328.98,1007.97L1331.83,1007.97L1334.66,1007.95L1337.48,1007.89L1340.27,1007.81L1343.05,1007.7L1345.81,1007.56L1348.56,1007.4L1351.28,1007.21L1353.98,1006.99L1356.67,1006.75L1359.34,1006.48L1361.99,1006.18L1364.62,1005.86L1367.24,1005.51L1369.83,1005.14L1372.41,1004.74L1374.97,1004.32L1377.51,1003.87L1380.03,1003.39L1382.53,1002.9L1385.02,1002.37L1387.48,1001.83L1389.93,1001.26L1392.36,1000.66L1394.77,1000.05L1397.16,999.406L1399.53,998.742L1401.88,998.055L1404.22,997.346L1406.53,996.614L1408.83,995.86L1411.11,995.084L1413.37,994.286L1415.61,993.466L1417.84,992.624L1420.04,991.762L1422.22,990.878L1424.39,989.973L1426.54,989.048L1428.66,988.102L1430.77,987.135L1432.86,986.149L1434.93,985.143L1436.99,984.117L1439.02,983.071L1441.03,982.006L1443.03,980.922L1445,979.819L1446.96,978.697L1448.9,977.557L1450.82,976.398L1452.72,975.222L1454.6,974.027L1456.46,972.814L1458.3,971.584L1460.12,970.337L1461.92,969.073L1463.71,967.791L1465.47,966.493L1467.22,965.178L1468.94,963.847L1470.65,962.5L1472.34,961.137L1474.01,959.758L1475.65,958.363L1477.28,956.953L1478.89,955.528L1480.48,954.088L1482.05,952.634L1483.6,951.164L1485.13,949.681L1486.65,948.183L1488.14,946.671L1489.61,945.145L1491.07,943.606L1492.5,942.053L1493.91,940.488L1495.31,938.909L1496.68,937.318L1498.04,935.713L1499.37,934.097L1500.68,932.468L1501.98,930.828L1503.26,929.175L1504.51,927.511L1505.75,925.836L1506.96,924.149L1508.16,922.452L1509.34,920.743L1510.49,919.024L1511.63,917.295L1512.75,915.555L1513.84,913.806L1514.92,912.047L1515.98,910.278L1517.01,908.499L1518.03,906.712L1519.02,904.915L1520,903.11L1520.96,901.296L1521.89,899.473L1522.81,897.643L1523.7,895.804L1524.58,893.957L1525.43,892.103L1526.27,890.242L1527.09,888.373L1527.88,886.497L1528.65,884.615L1529.41,882.726L1530.14,880.83L1530.85,878.928L1531.55,877.02L1532.22,875.107L1532.87,873.187L1533.5,871.262L1534.11,869.332L1534.7,867.397L1535.27,865.458L1535.82,863.513L1536.35,861.564L1536.86,859.611L1537.35,857.654L1537.82,855.693L1538.26,853.728L1538.69,851.76L1539.1,849.788L1539.48,847.814L1539.84,845.836L1540.19,843.856L1540.51,841.874L1540.81,839.889L1541.09,837.902L1541.35,835.914L1541.59,833.923L1541.81,831.932L1542.01,829.939L1542.19,827.945L1542.34,825.95L1542.48,823.954L1542.59,821.958L1542.69,819.962L1542.76,817.965L1542.81,815.969L1542.84,813.973L1542.85,811.977L1542.84,809.983L1542.81,807.989L1542.75,805.996L1542.68,804.005L1542.58,802.015L1542.46,800.027L1542.32,798.04L1542.16,796.056L1541.98,794.075L1541.78,792.095L1541.56,790.119L1541.31,788.145L1541.05,786.174L1540.76,784.207L1540.45,782.243L1540.12,780.283L1539.77,778.327L1539.4,776.375L1539.01,774.427L1538.59,772.484L1538.15,770.545L1537.69,768.611L1537.22,766.683L1536.71,764.759L1536.19,762.841L1535.65,760.929L1535.08,759.023L1534.49,757.123L1533.88,755.229L1533.25,753.341L1532.6,751.46L1531.93,749.587L1531.23,747.72L1530.51,745.86L1529.78,744.008L1529.01,742.164L1528.23,740.327L1527.43,738.499L1526.6,736.678L1525.75,734.867L1524.88,733.063L1523.99,731.269L1523.08,729.484L1522.14,727.708L1521.18,725.942L1520.21,724.185L1519.2,722.438L1518.18,720.701L1517.14,718.974L1516.07,717.258L1514.98,715.553L1513.87,713.858L1512.73,712.174L1511.58,710.502L1510.4,708.841L1509.2,707.192L1507.98,705.554L1506.74,703.929L1505.47,702.315L1504.18,700.715L1502.87,699.126L1501.54,697.551L1500.18,695.989L1498.8,694.44L1497.4,692.904L1495.98,691.382L1494.54,689.874L1493.07,688.38L1491.58,686.9L1490.07,685.434L1488.53,683.983L1486.98,682.547L1485.4,681.126L1483.8,679.72L1482.17,678.33L1480.53,676.955L1478.86,675.596L1477.16,674.253L1475.45,672.926L1473.71,671.616L1471.95,670.322L1470.17,669.045L1468.37,667.785L1466.54,666.542L1464.69,665.317L1462.81,664.109L1460.92,662.919L1459,661.747L1457.06,660.593L1455.09,659.458L1453.11,658.341L1452.83,658.197L1452.56,658.087L1452.32,658.009L1452.09,657.964L1451.88,657.952L1451.69,657.972L1451.52,658.023L1451.36,658.106L1451.22,658.22L1451.09,658.365L1450.98,658.54L1450.89,658.746L1450.81,658.982L1450.75,659.247L1450.7,659.542L1450.67,659.866L1450.27,659.023L1449.91,658.244L1449.6,657.53L1449.35,656.882L1449.14,656.302L1448.99,655.79L1448.89,655.348L1448.85,654.975L1448.85,654.816L1448.86,654.675L1448.89,654.551L1448.93,654.446L1448.99,654.36L1449.07,654.291L1449.15,654.242L1449.26,654.211L1449.38,654.199L1449.51,654.206Z" style="fill:rgb(242,242,242);"/>
    </g>
    <g transform="matrix(0.0350392,-0.0245627,0.0169331,0.0415814,9.25235,10.1685)">
        <path d="M107.368,124.379L31.328,141.871C668.349,731.003 608.609,1026.82 59.81,820.329C16.21,803.924 -18.437,862.219 -32.341,886.378L107.368,916.856C761.087,1086.21 665.756,722.808 299.963,302.087C244.515,238.314 173.046,190.042 107.368,124.379Z" style="fill:black;"/>
    </g>
    <g transform="matrix(0.0397269,-1.76302e-17,-7.68614e-17,0.0521228,13.3106,7.84294)">
        <path d="M99.541,137.096L30.688,179.521C100.791,359.361 112.088,566.581 56.919,758.513L155.727,735.134C215.729,450.17 196.973,246.58 99.541,137.096Z" style="fill:black;stroke-width:2.04px;stroke:black;"/>
    </g>
    <g transform="matrix(0.0397269,-1.47368e-17,-7.68614e-17,0.0521228,12.0307,8.52409)">
        <path d="M515.505,501.251L425.312,501.251C440.736,632.291 437.826,778.224 371.409,933.146C397.829,918.15 450.828,925.182 456.544,922.962C492.874,751.852 530.776,570.15 515.505,501.251Z" style="fill:black;"/>
    </g>
    <g transform="matrix(0.0397269,-1.18434e-17,-7.68614e-17,0.0521228,11.872,8.87473)">
        <path d="M1181.1,829.766C1065.85,784.853 726.067,827.144 459.01,875.742L459.01,916.086C757.22,869.548 973.703,869.588 1149.84,892.62L1181.1,829.766Z" style="fill:black;"/>
    </g>
    <g transform="matrix(0.0434782,-0.0317149,0.0210113,0.0536891,8.41068,8.52621)">
        <path d="M107.368,124.379L31.328,141.871C668.349,731.003 608.609,1026.82 59.81,820.329C16.21,803.924 -18.437,862.219 -32.341,886.378L107.368,916.856C761.087,1086.21 665.756,722.808 299.963,302.087C244.515,238.314 173.046,190.042 107.368,124.379Z" style="fill:white;"/>
    </g>
    <g transform="matrix(0.0492949,-2.21677e-17,-9.92421e-17,0.0673,13.4463,5.52349)">
        <path d="M99.541,137.096L30.688,179.521C100.791,359.361 112.088,566.581 56.919,758.513L155.727,735.134C215.729,450.17 196.973,246.58 99.541,137.096Z" style="fill:white;stroke-width:1.6px;stroke:black;"/>
    </g>
    <g transform="matrix(0.0492949,-1.84318e-17,-9.92421e-17,0.0673,11.8582,6.40299)">
        <path d="M515.505,501.251L425.312,501.251C440.736,632.291 437.826,778.224 371.409,933.146C397.829,918.15 450.828,925.182 456.544,922.962C492.874,751.852 530.776,570.15 515.505,501.251Z" style="fill:white;"/>
    </g>
    <g transform="matrix(0.0492949,-1.46959e-17,-9.92421e-17,0.0673,11.6613,6.85572)">
        <path d="M1181.1,829.766C1065.85,784.853 726.067,827.144 459.01,875.742L459.01,916.086C757.22,869.548 973.703,869.588 1149.84,892.62L1181.1,829.766Z" style="fill:white;"/>
    </g>
    <g transform="matrix(0.220416,-2.26135e-32,9.04542e-32,0.220416,6.22947,19.0935)">
        <rect x="16.642" y="223.016" width="362.898" height="91" style="fill:white;"/>
        <path d="M384.077,318.553L12.105,318.553L12.105,218.479L384.077,218.479L384.077,318.553ZM16.642,223.016L16.642,314.016L379.54,314.016L379.54,223.016L16.642,223.016Z" style="fill:black;"/>
    </g>
    <g transform="matrix(0.0413113,-1.23158e-17,-8.31691e-17,0.0564003,27.3712,3.98503)">
        <text x="-415.768px" y="1404.21px" style="font-family:'Orbitron-Bold', 'Orbitron';font-weight:700;font-size:288px;fill:black;">Mo<tspan x="43.592px 169.448px 364.424px " y="1404.21px 1404.21px 1404.21px ">tor</tspan></text>
        <text x="605.192px" y="1404.21px" style="font-family:'Orbitron-Bold', 'Orbitron';font-weight:700;font-size:288px;fill:rgb(255,0,0);">Spo<tspan x="1228.14px 1380.2px " y="1404.21px 1404.21px ">rt</tspan></text>
    </g>
</svg>
