<?xml version="1.0" encoding="UTF-8" standalone="no"?>
<!DOCTYPE svg PUBLIC "-//W3C//DTD SVG 1.1//EN" "http://www.w3.org/Graphics/SVG/1.1/DTD/svg11.dtd">
<svg width="100%" height="100%" viewBox="0 0 50 50" version="1.1" xmlns="http://www.w3.org/2000/svg" xmlns:xlink="http://www.w3.org/1999/xlink" xml:space="preserve" style="fill-rule:evenodd;clip-rule:evenodd;stroke-linecap:round;stroke-linejoin:round;stroke-miterlimit:1.41421;">
    <g transform="matrix(0.11004,-1.01839e-18,-1.07235e-18,0.108284,-2.73524,-0.0337872)">
        <ellipse cx="249.695" cy="231.93" rx="186.822" ry="189.515" style="fill:black;stroke-width:62.29px;stroke:black;"/>
    </g>
    <g transform="matrix(0.122135,-1.13033e-18,-1.19233e-18,0.120399,-5.49645,-2.92418)">
        <ellipse cx="249.695" cy="231.93" rx="186.822" ry="189.515" style="fill:none;stroke-width:24.74px;stroke:white;"/>
    </g>
    <g transform="matrix(0.123431,-1.14232e-18,-1.20498e-18,0.121677,-5.82006,-3.22049)">
        <path d="M250.928,38.309L252.159,38.321L253.389,38.341L254.616,38.369L255.842,38.404L257.066,38.448L258.288,38.499L259.508,38.558L260.726,38.624L261.942,38.699L263.156,38.781L264.368,38.87L265.578,38.968L266.785,39.073L267.991,39.186L269.194,39.306L270.396,39.434L271.595,39.569L272.792,39.712L273.987,39.862L275.179,40.02L276.369,40.185L277.557,40.358L278.742,40.538L279.925,40.726L281.106,40.92L282.284,41.122L283.46,41.332L284.634,41.549L285.805,41.773L286.973,42.004L288.139,42.242L289.302,42.488L290.463,42.741L291.621,43L292.776,43.267L293.929,43.542L295.079,43.823L296.227,44.111L297.372,44.406L298.513,44.708L299.653,45.017L300.789,45.334L301.923,45.657L303.053,45.987L304.181,46.323L305.306,46.667L306.428,47.017L307.547,47.375L308.663,47.739L309.776,48.11L310.887,48.487L311.994,48.871L313.098,49.262L314.198,49.66L315.296,50.064L316.391,50.475L317.482,50.892L318.571,51.316L319.656,51.747L320.738,52.184L321.816,52.627L322.892,53.077L323.964,53.533L325.033,53.996L326.098,54.465L327.16,54.941L328.219,55.423L329.274,55.911L330.326,56.406L331.374,56.906L332.419,57.413L333.46,57.927L334.498,58.446L335.532,58.972L336.563,59.504L337.59,60.042L338.613,60.586L339.633,61.136L340.649,61.692L341.661,62.254L342.67,62.822L343.675,63.397L344.676,63.977L345.673,64.563L346.667,65.155L347.656,65.753L348.642,66.356L349.624,66.966L350.602,67.581L351.576,68.203L352.546,68.83L353.512,69.462L354.474,70.101L355.432,70.745L356.386,71.395L357.336,72.05L358.282,72.711L359.224,73.378L360.161,74.05L361.095,74.728L362.024,75.412L362.949,76.1L363.87,76.795L364.786,77.495L365.699,78.2L366.606,78.911L367.51,79.627L368.409,80.348L369.304,81.075L370.195,81.807L371.081,82.544L371.962,83.287L372.839,84.035L373.712,84.788L374.58,85.546L375.443,86.31L376.302,87.078L377.157,87.852L378.007,88.631L378.852,89.415L379.692,90.204L380.528,90.998L381.359,91.797L382.185,92.601L383.007,93.41L383.824,94.224L384.636,95.043L385.443,95.867L386.246,96.695L387.043,97.529L387.836,98.367L388.623,99.21L389.406,100.058L390.184,100.911L390.957,101.768L391.725,102.63L392.487,103.497L393.245,104.368L393.998,105.244L394.745,106.125L395.488,107.01L396.225,107.9L396.957,108.794L397.684,109.693L398.406,110.596L399.122,111.504L399.833,112.416L400.539,113.333L401.24,114.254L401.935,115.179L402.625,116.109L403.309,117.043L403.988,117.981L404.662,118.924L405.33,119.871L405.993,120.822L406.65,121.777L407.302,122.736L407.948,123.7L408.589,124.668L409.224,125.64L409.853,126.616L410.477,127.596L411.095,128.58L411.707,129.568L412.314,130.56L412.915,131.556L413.51,132.556L414.1,133.56L414.683,134.568L415.261,135.579L415.833,136.595L416.399,137.614L416.959,138.638L417.513,139.665L418.061,140.695L418.604,141.73L419.14,142.768L419.67,143.81L420.195,144.855L420.713,145.904L421.225,146.957L421.731,148.013L422.231,149.073L422.724,150.137L423.212,151.203L423.693,152.274L424.168,153.348L424.637,154.425L425.099,155.506L425.556,156.59L426.006,157.677L426.449,158.768L426.886,159.863L427.317,160.96L427.741,162.061L428.159,163.165L428.571,164.272L428.976,165.383L429.374,166.496L429.766,167.613L430.152,168.733L430.53,169.856L430.902,170.982L431.268,172.111L431.627,173.243L431.979,174.379L432.325,175.517L432.663,176.658L432.995,177.802L433.321,178.949L433.639,180.099L433.951,181.252L434.255,182.407L434.553,183.566L434.844,184.727L435.128,185.891L435.406,187.058L435.676,188.227L435.939,189.399L436.195,190.574L436.444,191.751L436.686,192.932L436.921,194.114L437.149,195.299L437.37,196.487L437.584,197.678L437.79,198.87L437.99,200.066L438.182,201.263L438.366,202.464L438.544,203.666L438.714,204.871L438.877,206.078L439.033,207.288L439.181,208.5L439.322,209.714L439.455,210.93L439.581,212.149L439.7,213.37L439.811,214.593L439.914,215.818L440.01,217.045L440.099,218.275L440.18,219.506L440.253,220.74L440.319,221.975L440.377,223.213L440.427,224.453L440.47,225.694L440.505,226.938L440.532,228.183L440.552,229.43L440.563,230.679L440.567,231.93L440.563,233.181L440.552,234.43L440.532,235.677L440.505,236.923L440.47,238.166L440.427,239.407L440.377,240.647L440.319,241.885L440.253,243.12L440.18,244.354L440.099,245.585L440.01,246.815L439.914,248.042L439.811,249.267L439.7,250.49L439.581,251.711L439.455,252.93L439.322,254.146L439.181,255.36L439.033,256.572L438.877,257.782L438.714,258.989L438.544,260.194L438.366,261.397L438.182,262.597L437.99,263.794L437.79,264.99L437.584,266.183L437.37,267.373L437.149,268.561L436.921,269.746L436.686,270.929L436.444,272.109L436.195,273.286L435.939,274.461L435.676,275.633L435.406,276.802L435.128,277.969L434.844,279.133L434.553,280.294L434.255,281.453L433.951,282.608L433.639,283.761L433.321,284.911L432.995,286.058L432.663,287.202L432.325,288.343L431.979,289.481L431.627,290.617L431.268,291.749L430.902,292.878L430.53,294.004L430.152,295.127L429.766,296.247L429.374,297.364L428.976,298.478L428.571,299.588L428.159,300.695L427.741,301.799L427.317,302.9L426.886,303.998L426.449,305.092L426.006,306.183L425.556,307.27L425.099,308.354L424.637,309.435L424.168,310.512L423.693,311.586L423.212,312.657L422.724,313.724L422.231,314.787L421.731,315.847L421.225,316.903L420.713,317.956L420.195,319.005L419.67,320.051L419.14,321.092L418.604,322.13L418.061,323.165L417.513,324.196L416.959,325.223L416.399,326.246L415.833,327.265L415.261,328.281L414.683,329.292L414.1,330.3L413.51,331.304L412.915,332.304L412.314,333.3L411.707,334.292L411.095,335.28L410.477,336.264L409.853,337.244L409.224,338.22L408.589,339.192L407.948,340.16L407.302,341.124L406.65,342.083L405.993,343.038L405.33,343.99L404.662,344.936L403.988,345.879L403.309,346.817L402.625,347.751L401.935,348.681L401.24,349.607L400.539,350.528L399.833,351.444L399.122,352.356L398.406,353.264L397.684,354.167L396.957,355.066L396.225,355.96L395.488,356.85L394.745,357.735L393.998,358.616L393.245,359.492L392.487,360.363L391.725,361.23L390.957,362.092L390.184,362.949L389.406,363.802L388.623,364.65L387.836,365.493L387.043,366.331L386.246,367.165L385.443,367.993L384.636,368.817L383.824,369.636L383.007,370.45L382.186,371.259L381.359,372.063L380.528,372.862L379.692,373.656L378.852,374.445L378.007,375.229L377.157,376.008L376.302,376.782L375.443,377.55L374.58,378.314L373.712,379.072L372.839,379.825L371.962,380.573L371.081,381.316L370.195,382.053L369.304,382.785L368.409,383.512L367.51,384.233L366.606,384.949L365.699,385.66L364.786,386.365L363.87,387.065L362.949,387.76L362.024,388.448L361.095,389.132L360.161,389.81L359.224,390.482L358.282,391.149L357.336,391.81L356.386,392.465L355.432,393.115L354.474,393.759L353.512,394.398L352.546,395.03L351.576,395.657L350.602,396.279L349.624,396.894L348.642,397.504L347.656,398.107L346.666,398.705L345.673,399.297L344.676,399.883L343.675,400.464L342.67,401.038L341.661,401.606L340.649,402.168L339.633,402.724L338.613,403.274L337.59,403.818L336.563,404.356L335.532,404.888L334.498,405.414L333.46,405.933L332.419,406.447L331.374,406.954L330.326,407.454L329.274,407.949L328.219,408.437L327.16,408.919L326.098,409.395L325.033,409.864L323.964,410.327L322.892,410.783L321.816,411.233L320.738,411.676L319.656,412.113L318.571,412.544L317.482,412.968L316.391,413.385L315.296,413.796L314.198,414.2L313.098,414.598L311.994,414.989L310.887,415.373L309.776,415.751L308.663,416.121L307.547,416.485L306.428,416.843L305.306,417.193L304.181,417.537L303.053,417.874L301.923,418.203L300.789,418.526L299.653,418.843L298.513,419.152L297.371,419.454L296.227,419.749L295.079,420.037L293.929,420.319L292.776,420.593L291.621,420.86L290.463,421.119L289.302,421.372L288.139,421.618L286.973,421.856L285.805,422.087L284.634,422.311L283.46,422.528L282.284,422.738L281.106,422.94L279.925,423.135L278.742,423.322L277.557,423.502L276.369,423.675L275.179,423.84L273.987,423.998L272.792,424.148L271.595,424.291L270.396,424.426L269.194,424.554L267.991,424.675L266.785,424.787L265.578,424.892L264.368,424.99L263.156,425.079L261.942,425.162L260.726,425.236L259.508,425.303L258.288,425.361L257.066,425.412L255.842,425.456L254.616,425.491L253.389,425.519L252.159,425.539L250.928,425.551L249.695,425.555L248.462,425.551L247.23,425.539L246.001,425.519L244.773,425.491L243.547,425.456L242.323,425.412L241.102,425.361L239.881,425.303L238.664,425.236L237.448,425.162L236.233,425.079L235.022,424.99L233.812,424.892L232.604,424.787L231.398,424.675L230.195,424.554L228.993,424.426L227.794,424.291L226.597,424.148L225.403,423.998L224.21,423.84L223.02,423.675L221.832,423.502L220.647,423.322L219.464,423.135L218.283,422.94L217.105,422.738L215.929,422.528L214.756,422.311L213.585,422.087L212.416,421.856L211.25,421.618L210.087,421.372L208.926,421.119L207.768,420.86L206.613,420.593L205.46,420.319L204.31,420.037L203.162,419.749L202.018,419.454L200.876,419.152L199.737,418.843L198.6,418.526L197.467,418.203L196.336,417.874L195.208,417.537L194.083,417.193L192.961,416.843L191.842,416.485L190.726,416.121L189.613,415.751L188.503,415.373L187.396,414.989L186.292,414.598L185.191,414.2L184.093,413.796L182.998,413.385L181.907,412.968L180.818,412.544L179.733,412.113L178.651,411.676L177.573,411.233L176.497,410.783L175.425,410.327L174.357,409.864L173.291,409.395L172.229,408.919L171.171,408.437L170.115,407.949L169.064,407.454L168.015,406.954L166.97,406.447L165.929,405.933L164.891,405.414L163.857,404.888L162.827,404.356L161.8,403.818L160.776,403.274L159.756,402.724L158.74,402.168L157.728,401.606L156.719,401.038L155.715,400.464L154.713,399.883L153.716,399.297L152.723,398.705L151.733,398.107L150.747,397.504L149.765,396.894L148.787,396.279L147.813,395.657L146.843,395.03L145.877,394.398L144.915,393.759L143.957,393.115L143.003,392.465L142.053,391.81L141.107,391.149L140.165,390.482L139.228,389.81L138.294,389.132L137.365,388.448L136.44,387.76L135.519,387.065L134.603,386.365L133.691,385.66L132.783,384.949L131.879,384.233L130.98,383.512L130.085,382.785L129.195,382.053L128.309,381.316L127.427,380.573L126.55,379.825L125.677,379.072L124.809,378.314L123.946,377.55L123.087,376.782L122.232,376.008L121.383,375.229L120.537,374.445L119.697,373.656L118.861,372.862L118.03,372.063L117.204,371.259L116.382,370.45L115.565,369.636L114.753,368.817L113.946,367.993L113.144,367.165L112.346,366.331L111.553,365.493L110.766,364.65L109.983,363.802L109.205,362.949L108.432,362.092L107.665,361.23L106.902,360.363L106.144,359.492L105.391,358.616L104.644,357.735L103.901,356.85L103.164,355.96L102.432,355.066L101.705,354.167L100.984,353.264L100.267,352.356L99.556,351.444L98.85,350.528L98.149,349.606L97.454,348.681L96.764,347.751L96.08,346.817L95.401,345.879L94.727,344.936L94.059,343.99L93.396,343.038L92.739,342.083L92.087,341.124L91.441,340.16L90.8,339.192L90.165,338.22L89.536,337.244L88.912,336.264L88.294,335.28L87.682,334.292L87.075,333.3L86.474,332.304L85.879,331.304L85.29,330.3L84.706,329.292L84.128,328.281L83.556,327.265L82.99,326.246L82.43,325.223L81.876,324.196L81.328,323.165L80.785,322.13L80.249,321.092L79.719,320.051L79.195,319.005L78.676,317.956L78.164,316.903L77.658,315.847L77.159,314.787L76.665,313.724L76.177,312.657L75.696,311.586L75.221,310.512L74.752,309.435L74.29,308.354L73.833,307.27L73.384,306.183L72.94,305.092L72.503,303.998L72.072,302.9L71.648,301.799L71.23,300.695L70.818,299.588L70.413,298.478L70.015,297.364L69.623,296.247L69.238,295.127L68.859,294.004L68.487,292.878L68.121,291.749L67.762,290.617L67.41,289.482L67.065,288.343L66.726,287.202L66.394,286.058L66.069,284.911L65.75,283.761L65.439,282.608L65.134,281.453L64.836,280.294L64.545,279.133L64.261,277.969L63.984,276.802L63.713,275.633L63.45,274.461L63.194,273.286L62.945,272.109L62.703,270.929L62.468,269.746L62.24,268.561L62.019,267.373L61.805,266.183L61.599,264.99L61.4,263.794L61.208,262.597L61.023,261.397L60.845,260.194L60.675,258.989L60.512,257.782L60.357,256.572L60.208,255.36L60.068,254.146L59.934,252.93L59.808,251.711L59.69,250.49L59.578,249.267L59.475,248.042L59.379,246.815L59.29,245.585L59.21,244.354L59.136,243.12L59.071,241.885L59.012,240.647L58.962,239.407L58.919,238.166L58.884,236.923L58.857,235.677L58.838,234.43L58.826,233.181L58.822,231.93L58.826,230.679L58.838,229.43L58.857,228.183L58.884,226.938L58.919,225.694L58.962,224.453L59.012,223.213L59.071,221.975L59.136,220.74L59.21,219.506L59.29,218.275L59.379,217.045L59.475,215.818L59.578,214.593L59.69,213.37L59.808,212.149L59.934,210.93L60.068,209.714L60.208,208.5L60.357,207.288L60.512,206.078L60.675,204.871L60.845,203.666L61.023,202.464L61.208,201.263L61.4,200.066L61.599,198.87L61.805,197.678L62.019,196.487L62.24,195.299L62.468,194.114L62.703,192.932L62.945,191.751L63.194,190.574L63.45,189.399L63.713,188.227L63.984,187.058L64.261,185.891L64.545,184.727L64.836,183.566L65.134,182.407L65.439,181.252L65.75,180.099L66.069,178.949L66.394,177.802L66.726,176.658L67.065,175.517L67.41,174.379L67.762,173.243L68.121,172.111L68.487,170.982L68.859,169.856L69.238,168.733L69.623,167.613L70.015,166.496L70.413,165.383L70.818,164.272L71.23,163.165L71.648,162.061L72.072,160.96L72.503,159.863L72.94,158.768L73.384,157.677L73.833,156.59L74.29,155.506L74.752,154.425L75.221,153.348L75.696,152.274L76.177,151.203L76.665,150.136L77.159,149.073L77.658,148.013L78.164,146.957L78.676,145.904L79.195,144.855L79.719,143.81L80.249,142.768L80.785,141.73L81.328,140.695L81.876,139.665L82.43,138.638L82.99,137.614L83.556,136.595L84.128,135.58L84.706,134.568L85.29,133.56L85.879,132.556L86.474,131.556L87.075,130.56L87.682,129.568L88.294,128.58L88.912,127.596L89.536,126.616L90.165,125.64L90.8,124.668L91.441,123.7L92.087,122.736L92.739,121.777L93.396,120.822L94.059,119.871L94.727,118.924L95.401,117.981L96.08,117.043L96.764,116.109L97.454,115.179L98.149,114.254L98.85,113.333L99.556,112.416L100.267,111.504L100.984,110.596L101.705,109.693L102.432,108.794L103.164,107.9L103.901,107.01L104.644,106.125L105.391,105.244L106.144,104.368L106.902,103.497L107.665,102.63L108.432,101.768L109.205,100.911L109.983,100.058L110.766,99.21L111.553,98.367L112.346,97.529L113.144,96.695L113.946,95.867L114.753,95.043L115.565,94.224L116.382,93.41L117.204,92.601L118.03,91.797L118.861,90.998L119.697,90.204L120.537,89.415L121.383,88.631L122.232,87.852L123.087,87.078L123.946,86.31L124.809,85.546L125.677,84.788L126.55,84.035L127.427,83.287L128.309,82.544L129.195,81.807L130.085,81.075L130.98,80.348L131.879,79.627L132.783,78.911L133.691,78.2L134.603,77.495L135.519,76.795L136.44,76.1L137.365,75.412L138.294,74.728L139.228,74.05L140.165,73.378L141.107,72.711L142.053,72.05L143.003,71.395L143.957,70.745L144.915,70.101L145.877,69.462L146.843,68.83L147.813,68.203L148.787,67.581L149.765,66.966L150.747,66.356L151.733,65.753L152.723,65.155L153.716,64.563L154.713,63.977L155.715,63.397L156.719,62.822L157.728,62.254L158.74,61.692L159.756,61.136L160.776,60.586L161.8,60.042L162.827,59.504L163.857,58.972L164.891,58.446L165.929,57.927L166.97,57.413L168.015,56.906L169.064,56.406L170.115,55.911L171.171,55.423L172.229,54.941L173.291,54.465L174.357,53.996L175.425,53.533L176.497,53.077L177.573,52.627L178.651,52.184L179.733,51.747L180.818,51.316L181.907,50.892L182.998,50.475L184.093,50.064L185.191,49.66L186.292,49.262L187.396,48.871L188.503,48.487L189.613,48.11L190.726,47.739L191.842,47.375L192.961,47.017L194.083,46.667L195.208,46.323L196.336,45.987L197.467,45.657L198.6,45.334L199.737,45.017L200.876,44.708L202.018,44.406L203.162,44.111L204.31,43.823L205.46,43.542L206.613,43.267L207.768,43L208.926,42.741L210.087,42.488L211.25,42.242L212.416,42.004L213.585,41.773L214.756,41.549L215.929,41.332L217.105,41.122L218.283,40.92L219.464,40.726L220.647,40.538L221.832,40.358L223.02,40.185L224.21,40.02L225.403,39.862L226.597,39.712L227.794,39.569L228.993,39.434L230.195,39.306L231.398,39.186L232.604,39.073L233.812,38.968L235.022,38.87L236.233,38.781L237.447,38.699L238.663,38.624L239.882,38.558L241.101,38.499L242.323,38.448L243.547,38.404L244.773,38.369L246.001,38.341L247.23,38.321L248.461,38.309L249.695,38.306L250.928,38.309ZM248.513,46.528L247.333,46.539L246.155,46.558L244.979,46.585L243.804,46.619L242.632,46.66L241.461,46.709L240.292,46.766L239.125,46.829L237.961,46.901L236.798,46.979L235.637,47.065L234.478,47.159L233.322,47.259L232.167,47.367L231.014,47.482L229.864,47.605L228.716,47.734L227.57,47.871L226.426,48.015L225.284,48.166L224.144,48.324L223.007,48.49L221.872,48.662L220.739,48.842L219.609,49.028L218.481,49.222L217.355,49.422L216.232,49.63L215.111,49.844L213.992,50.065L212.876,50.294L211.763,50.529L210.652,50.771L209.543,51.019L208.437,51.275L207.333,51.537L206.232,51.807L205.134,52.082L204.038,52.365L202.945,52.654L201.855,52.95L200.767,53.253L199.682,53.562L198.6,53.878L197.52,54.2L196.443,54.529L195.369,54.865L194.298,55.207L193.23,55.555L192.164,55.91L191.102,56.271L190.042,56.639L188.985,57.013L187.931,57.394L186.88,57.781L185.833,58.174L184.788,58.574L183.746,58.979L182.707,59.391L181.672,59.81L180.639,60.234L179.61,60.665L178.583,61.102L177.56,61.545L176.54,61.994L175.524,62.449L174.51,62.911L173.5,63.378L172.493,63.852L171.489,64.331L170.489,64.816L169.492,65.308L168.499,65.805L167.508,66.308L166.522,66.818L165.538,67.333L164.559,67.854L163.582,68.38L162.609,68.913L161.64,69.451L160.674,69.995L159.712,70.545L158.754,71.1L157.799,71.662L156.847,72.229L155.9,72.801L154.956,73.379L154.015,73.963L153.079,74.552L152.146,75.147L151.217,75.748L150.292,76.354L149.371,76.965L148.453,77.582L147.539,78.204L146.63,78.832L145.724,79.465L144.822,80.104L143.924,80.747L143.03,81.397L142.14,82.051L141.254,82.711L140.372,83.376L139.495,84.046L138.621,84.722L137.751,85.402L136.886,86.088L136.025,86.779L135.168,87.475L134.315,88.176L133.466,88.883L132.622,89.594L131.782,90.31L130.946,91.032L130.114,91.758L129.287,92.489L128.464,93.226L127.646,93.967L126.832,94.713L126.022,95.464L125.217,96.219L124.417,96.98L123.621,97.745L122.829,98.516L122.042,99.29L121.26,100.07L120.482,100.854L119.709,101.644L118.94,102.437L118.176,103.236L117.417,104.039L116.663,104.846L115.913,105.658L115.168,106.475L114.428,107.296L113.692,108.122L112.961,108.952L112.236,109.787L111.515,110.626L110.799,111.469L110.088,112.317L109.381,113.169L108.68,114.026L107.984,114.887L107.293,115.752L106.607,116.621L105.925,117.495L105.249,118.373L104.578,119.255L103.912,120.141L103.252,121.032L102.596,121.926L101.946,122.825L101.301,123.728L100.661,124.634L100.026,125.545L99.397,126.46L98.772,127.379L98.154,128.302L97.54,129.229L96.932,130.16L96.329,131.094L95.732,132.033L95.14,132.975L94.554,133.921L93.973,134.871L93.397,135.825L92.827,136.783L92.263,137.744L91.704,138.709L91.151,139.678L90.603,140.65L90.061,141.626L89.525,142.606L88.994,143.589L88.469,144.576L87.95,145.567L87.437,146.56L86.929,147.558L86.427,148.559L85.931,149.563L85.441,150.571L84.956,151.583L84.478,152.597L84.005,153.615L83.538,154.637L83.078,155.662L82.623,156.69L82.174,157.721L81.731,158.756L81.294,159.793L80.864,160.835L80.439,161.879L80.021,162.926L79.608,163.977L79.202,165.031L78.802,166.087L78.408,167.147L78.02,168.21L77.639,169.276L77.264,170.345L76.895,171.417L76.532,172.492L76.176,173.57L75.826,174.651L75.483,175.735L75.146,176.821L74.815,177.911L74.491,179.003L74.173,180.098L73.862,181.196L73.557,182.297L73.259,183.4L72.967,184.507L72.682,185.615L72.403,186.727L72.131,187.841L71.866,188.958L71.607,190.077L71.355,191.2L71.11,192.324L70.871,193.451L70.64,194.581L70.415,195.713L70.197,196.848L69.985,197.985L69.781,199.124L69.583,200.266L69.392,201.411L69.208,202.557L69.031,203.706L68.861,204.858L68.698,206.011L68.542,207.167L68.393,208.326L68.252,209.486L68.117,210.649L67.989,211.813L67.868,212.98L67.755,214.15L67.648,215.321L67.549,216.494L67.457,217.67L67.372,218.847L67.295,220.027L67.225,221.208L67.162,222.392L67.106,223.578L67.058,224.765L67.017,225.955L66.983,227.146L66.957,228.339L66.939,229.534L66.927,230.731L66.924,231.93L66.927,233.129L66.939,234.326L66.957,235.521L66.983,236.714L67.017,237.905L67.058,239.095L67.106,240.282L67.162,241.468L67.225,242.652L67.295,243.833L67.372,245.013L67.457,246.19L67.549,247.366L67.648,248.539L67.755,249.71L67.868,250.88L67.989,252.047L68.117,253.211L68.252,254.374L68.393,255.535L68.542,256.693L68.698,257.849L68.861,259.002L69.031,260.154L69.208,261.303L69.392,262.45L69.583,263.594L69.781,264.736L69.985,265.875L70.197,267.012L70.415,268.147L70.64,269.279L70.871,270.409L71.11,271.536L71.355,272.661L71.607,273.783L71.866,274.902L72.131,276.019L72.403,277.133L72.682,278.245L72.967,279.353L73.259,280.46L73.557,281.563L73.862,282.664L74.173,283.762L74.491,284.857L74.815,285.949L75.146,287.039L75.483,288.125L75.826,289.209L76.176,290.29L76.532,291.368L76.895,292.443L77.264,293.515L77.639,294.584L78.02,295.65L78.408,296.713L78.802,297.773L79.202,298.83L79.608,299.883L80.021,300.934L80.439,301.981L80.864,303.026L81.294,304.067L81.731,305.104L82.174,306.139L82.623,307.17L83.078,308.199L83.538,309.223L84.005,310.245L84.478,311.263L84.956,312.278L85.441,313.289L85.931,314.297L86.427,315.301L86.929,316.302L87.437,317.3L87.95,318.294L88.469,319.284L88.994,320.271L89.525,321.254L90.061,322.234L90.603,323.21L91.151,324.182L91.704,325.151L92.263,326.116L92.827,327.077L93.397,328.035L93.973,328.989L94.554,329.939L95.14,330.885L95.732,331.827L96.329,332.766L96.932,333.701L97.54,334.631L98.154,335.558L98.772,336.481L99.397,337.4L100.026,338.315L100.661,339.226L101.301,340.132L101.946,341.035L102.596,341.934L103.252,342.828L103.912,343.719L104.578,344.605L105.249,345.487L105.925,346.365L106.607,347.239L107.293,348.108L107.984,348.974L108.68,349.834L109.381,350.691L110.088,351.543L110.799,352.391L111.515,353.234L112.236,354.074L112.961,354.908L113.692,355.738L114.428,356.564L115.168,357.385L115.913,358.202L116.663,359.014L117.417,359.822L118.176,360.625L118.94,361.423L119.709,362.217L120.482,363.006L121.26,363.79L122.042,364.57L122.829,365.345L123.621,366.115L124.417,366.88L125.217,367.641L126.022,368.396L126.832,369.147L127.646,369.893L128.464,370.635L129.287,371.371L130.114,372.102L130.946,372.828L131.781,373.55L132.622,374.266L133.466,374.977L134.315,375.684L135.167,376.385L136.025,377.081L136.886,377.772L137.751,378.458L138.621,379.139L139.495,379.814L140.372,380.484L141.254,381.149L142.14,381.809L143.03,382.464L143.924,383.113L144.822,383.757L145.724,384.395L146.63,385.028L147.539,385.656L148.453,386.278L149.371,386.895L150.292,387.507L151.217,388.112L152.146,388.713L153.079,389.308L154.015,389.897L154.956,390.481L155.9,391.059L156.847,391.632L157.799,392.198L158.754,392.76L159.712,393.315L160.674,393.865L161.64,394.409L162.609,394.947L163.582,395.48L164.559,396.007L165.538,396.527L166.522,397.042L167.508,397.552L168.499,398.055L169.492,398.552L170.489,399.044L171.489,399.529L172.493,400.008L173.5,400.482L174.51,400.949L175.524,401.411L176.54,401.866L177.56,402.315L178.583,402.758L179.61,403.195L180.639,403.626L181.672,404.05L182.707,404.469L183.746,404.881L184.788,405.287L185.833,405.686L186.88,406.079L187.931,406.466L188.985,406.847L190.042,407.221L191.102,407.589L192.164,407.95L193.23,408.305L194.298,408.654L195.369,408.996L196.443,409.331L197.52,409.66L198.6,409.982L199.682,410.298L200.767,410.607L201.855,410.91L202.945,411.206L204.038,411.495L205.134,411.778L206.232,412.054L207.333,412.323L208.437,412.585L209.543,412.841L210.652,413.089L211.763,413.331L212.876,413.567L213.992,413.795L215.111,414.016L216.232,414.23L217.355,414.438L218.481,414.638L219.609,414.832L220.739,415.019L221.872,415.198L223.007,415.37L224.144,415.536L225.284,415.694L226.426,415.845L227.57,415.989L228.716,416.126L229.864,416.256L231.014,416.378L232.167,416.493L233.322,416.601L234.478,416.702L235.637,416.795L236.798,416.881L237.961,416.959L239.125,417.031L240.292,417.095L241.461,417.151L242.632,417.2L243.804,417.241L244.979,417.275L246.155,417.302L247.333,417.321L248.513,417.332L249.695,417.336L250.876,417.332L252.056,417.321L253.234,417.302L254.411,417.275L255.585,417.241L256.758,417.2L257.928,417.151L259.097,417.095L260.264,417.031L261.429,416.959L262.591,416.881L263.752,416.795L264.911,416.702L266.068,416.601L267.222,416.493L268.375,416.378L269.525,416.256L270.674,416.126L271.82,415.989L272.964,415.845L274.105,415.694L275.245,415.536L276.382,415.37L277.517,415.198L278.65,415.019L279.78,414.832L280.908,414.638L282.034,414.438L283.157,414.23L284.278,414.016L285.397,413.795L286.513,413.567L287.627,413.331L288.738,413.089L289.846,412.841L290.952,412.585L292.056,412.323L293.157,412.054L294.255,411.778L295.351,411.495L296.444,411.206L297.534,410.91L298.622,410.607L299.707,410.298L300.79,409.982L301.869,409.66L302.946,409.331L304.02,408.996L305.091,408.654L306.159,408.305L307.225,407.95L308.288,407.589L309.347,407.221L310.404,406.847L311.458,406.466L312.509,406.079L313.557,405.686L314.601,405.287L315.643,404.881L316.682,404.469L317.718,404.05L318.75,403.626L319.78,403.195L320.806,402.758L321.829,402.315L322.849,401.866L323.866,401.411L324.879,400.949L325.889,400.482L326.896,400.008L327.9,399.529L328.9,399.044L329.897,398.552L330.891,398.055L331.881,397.552L332.868,397.042L333.851,396.527L334.831,396.007L335.807,395.48L336.78,394.947L337.749,394.409L338.715,393.865L339.677,393.315L340.636,392.76L341.591,392.198L342.542,391.631L343.49,391.059L344.434,390.481L345.374,389.897L346.31,389.308L347.243,388.713L348.172,388.112L349.097,387.507L350.019,386.895L350.936,386.278L351.85,385.656L352.76,385.028L353.665,384.395L354.567,383.757L355.465,383.113L356.359,382.464L357.249,381.809L358.135,381.149L359.017,380.484L359.895,379.814L360.768,379.139L361.638,378.458L362.503,377.772L363.365,377.081L364.222,376.385L365.075,375.684L365.923,374.978L366.768,374.266L367.608,373.55L368.444,372.828L369.275,372.102L370.102,371.371L370.925,370.635L371.743,369.893L372.557,369.147L373.367,368.396L374.172,367.641L374.972,366.88L375.768,366.115L376.56,365.345L377.347,364.57L378.129,363.79L378.907,363.006L379.68,362.217L380.449,361.423L381.213,360.625L381.972,359.822L382.727,359.014L383.476,358.202L384.221,357.385L384.962,356.564L385.697,355.738L386.428,354.908L387.154,354.074L387.874,353.234L388.59,352.391L389.302,351.543L390.008,350.691L390.709,349.834L391.405,348.974L392.096,348.108L392.783,347.239L393.464,346.365L394.14,345.487L394.811,344.605L395.477,343.719L396.137,342.828L396.793,341.934L397.443,341.035L398.089,340.132L398.729,339.226L399.363,338.315L399.993,337.4L400.617,336.481L401.236,335.558L401.849,334.631L402.457,333.701L403.06,332.766L403.657,331.827L404.249,330.885L404.836,329.939L405.417,328.989L405.992,328.035L406.562,327.077L407.126,326.116L407.685,325.151L408.238,324.182L408.786,323.21L409.328,322.234L409.864,321.254L410.395,320.271L410.92,319.284L411.439,318.294L411.953,317.3L412.46,316.302L412.962,315.301L413.458,314.297L413.949,313.289L414.433,312.278L414.912,311.263L415.384,310.245L415.851,309.223L416.312,308.199L416.766,307.17L417.215,306.139L417.658,305.105L418.095,304.067L418.525,303.026L418.95,301.981L419.369,300.934L419.781,299.883L420.187,298.829L420.587,297.773L420.981,296.713L421.369,295.65L421.75,294.584L422.125,293.515L422.494,292.443L422.857,291.368L423.213,290.29L423.563,289.209L423.906,288.125L424.243,287.039L424.574,285.949L424.898,284.857L425.216,283.762L425.528,282.664L425.832,281.563L426.131,280.46L426.422,279.353L426.708,278.245L426.986,277.133L427.258,276.019L427.523,274.902L427.782,273.783L428.034,272.661L428.279,271.536L428.518,270.409L428.75,269.279L428.974,268.147L429.193,267.012L429.404,265.875L429.609,264.736L429.806,263.594L429.997,262.449L430.181,261.303L430.358,260.154L430.528,259.002L430.691,257.849L430.847,256.693L430.996,255.535L431.138,254.374L431.273,253.211L431.4,252.047L431.521,250.88L431.634,249.71L431.741,248.539L431.84,247.366L431.932,246.19L432.017,245.013L432.094,243.833L432.164,242.652L432.227,241.468L432.283,240.282L432.331,239.095L432.372,237.905L432.406,236.714L432.432,235.521L432.45,234.326L432.462,233.129L432.465,231.93L432.462,230.731L432.45,229.534L432.432,228.339L432.406,227.146L432.372,225.955L432.331,224.765L432.283,223.578L432.227,222.392L432.164,221.208L432.094,220.027L432.017,218.847L431.932,217.67L431.84,216.494L431.741,215.321L431.634,214.15L431.521,212.98L431.4,211.813L431.273,210.649L431.138,209.486L430.996,208.325L430.847,207.167L430.691,206.011L430.528,204.858L430.358,203.706L430.181,202.557L429.997,201.411L429.806,200.266L429.609,199.124L429.404,197.985L429.193,196.848L428.974,195.713L428.75,194.581L428.518,193.451L428.279,192.324L428.034,191.2L427.782,190.077L427.523,188.958L427.258,187.841L426.986,186.727L426.708,185.615L426.422,184.507L426.131,183.4L425.832,182.297L425.528,181.196L425.216,180.098L424.898,179.003L424.574,177.911L424.243,176.821L423.906,175.735L423.563,174.651L423.213,173.57L422.857,172.492L422.494,171.417L422.125,170.345L421.75,169.276L421.369,168.21L420.981,167.147L420.587,166.087L420.187,165.031L419.781,163.977L419.369,162.926L418.95,161.879L418.525,160.835L418.095,159.793L417.658,158.756L417.215,157.721L416.766,156.69L416.312,155.662L415.851,154.637L415.384,153.615L414.912,152.597L414.433,151.583L413.949,150.571L413.458,149.563L412.962,148.559L412.46,147.558L411.953,146.56L411.439,145.567L410.92,144.576L410.395,143.589L409.864,142.606L409.328,141.626L408.786,140.65L408.238,139.678L407.685,138.709L407.126,137.744L406.562,136.783L405.992,135.825L405.417,134.871L404.836,133.921L404.249,132.975L403.657,132.033L403.06,131.094L402.457,130.16L401.849,129.229L401.236,128.302L400.617,127.379L399.993,126.46L399.363,125.545L398.729,124.634L398.089,123.728L397.443,122.825L396.793,121.926L396.137,121.032L395.477,120.141L394.811,119.255L394.14,118.373L393.464,117.495L392.783,116.621L392.096,115.752L391.405,114.887L390.709,114.026L390.008,113.169L389.302,112.317L388.59,111.469L387.874,110.626L387.154,109.787L386.428,108.952L385.697,108.122L384.962,107.296L384.221,106.475L383.476,105.658L382.727,104.846L381.972,104.039L381.213,103.236L380.449,102.437L379.68,101.644L378.907,100.854L378.129,100.07L377.347,99.29L376.56,98.516L375.768,97.745L374.972,96.98L374.172,96.219L373.367,95.464L372.557,94.713L371.743,93.967L370.925,93.226L370.102,92.489L369.275,91.758L368.443,91.032L367.608,90.31L366.768,89.594L365.923,88.883L365.075,88.176L364.222,87.475L363.365,86.779L362.503,86.088L361.638,85.402L360.768,84.722L359.895,84.046L359.017,83.376L358.135,82.711L357.249,82.051L356.359,81.397L355.465,80.747L354.567,80.104L353.665,79.465L352.76,78.832L351.85,78.204L350.936,77.582L350.019,76.965L349.097,76.354L348.172,75.748L347.243,75.147L346.31,74.552L345.374,73.963L344.434,73.379L343.49,72.801L342.542,72.229L341.591,71.662L340.636,71.1L339.677,70.545L338.715,69.995L337.749,69.451L336.78,68.913L335.807,68.38L334.831,67.854L333.851,67.333L332.868,66.818L331.881,66.308L330.891,65.805L329.897,65.308L328.9,64.816L327.9,64.331L326.896,63.852L325.889,63.378L324.879,62.911L323.866,62.449L322.849,61.994L321.829,61.545L320.806,61.102L319.78,60.665L318.75,60.234L317.718,59.81L316.682,59.391L315.643,58.979L314.601,58.574L313.557,58.174L312.509,57.781L311.458,57.394L310.404,57.013L309.347,56.639L308.288,56.271L307.225,55.91L306.159,55.555L305.091,55.207L304.02,54.865L302.946,54.529L301.869,54.2L300.79,53.878L299.707,53.562L298.622,53.253L297.534,52.95L296.444,52.654L295.351,52.365L294.255,52.082L293.157,51.807L292.056,51.537L290.952,51.275L289.846,51.019L288.738,50.771L287.627,50.529L286.513,50.294L285.397,50.065L284.278,49.844L283.157,49.63L282.034,49.422L280.908,49.222L279.78,49.028L278.65,48.842L277.517,48.662L276.382,48.49L275.245,48.324L274.105,48.166L272.964,48.015L271.82,47.871L270.674,47.734L269.525,47.605L268.375,47.482L267.222,47.367L266.068,47.259L264.911,47.159L263.752,47.065L262.591,46.979L261.429,46.901L260.264,46.829L259.097,46.766L257.928,46.709L256.758,46.66L255.585,46.619L254.411,46.585L253.234,46.558L252.056,46.539L250.876,46.528L249.695,46.524L248.513,46.528Z" style="fill:rgb(255,0,0);"/>
    </g>
    <g transform="matrix(0.0505386,0.00366648,-0.00268557,0.0689979,-23.1668,-22.879)">
        <path d="M1245.16,585.079C1274.1,580.122 1301.26,576.971 1327.22,578.777C1288.98,588.469 1255.8,604.25 1261.54,629.324" style="fill:none;stroke-width:8.53px;stroke:black;"/>
    </g>
    <g transform="matrix(0.0521297,-0.0367771,0.0232339,0.061384,-32.9592,15.0029)">
        <path d="M904.366,396.298C860.399,376.564 815.729,370.484 770.226,380.603L770.868,388.477C816.177,388.489 860.824,393.297 904.782,403.092L904.366,396.298Z" style="fill:black;"/>
    </g>
    <g transform="matrix(0.0506099,-1.50879e-17,-1.01889e-16,0.0690953,-24.7601,-15.9495)">
        <path d="M1097.05,440.793C1055.81,429.896 999.625,436.091 963.883,433.624C936.627,431.742 921.26,423.15 933.474,407.974L916.803,409.28C895.313,464.036 1096.59,434.784 1097.05,440.793Z" style="fill:black;"/>
    </g>
    <g transform="matrix(0.0386954,-0.0445337,0.0326194,0.052829,-24.4367,32.3288)">
        <path d="M985.613,372.099L977.69,369.031C971.046,394.829 973.936,415.436 985.131,429.75C988.041,420.098 986.342,394.411 985.613,372.099Z" style="fill:black;"/>
    </g>
    <g transform="matrix(0.0450996,0.031353,-0.022965,0.0615723,-12.7347,-46.7496)">
        <path d="M1185.38,291.282C1158.77,234.576 1110.79,234.694 1025.01,280.079C1102.2,254.51 1126.88,252.082 1171.2,295.936L1185.38,291.282Z" style="fill:black;"/>
    </g>
    <g transform="matrix(0.0476227,0.0233871,-0.0171302,0.0650169,-15.2082,-40.5851)">
        <path d="M1041.09,326.384L1041.78,326.173L1042.47,325.994L1043.18,325.849L1043.88,325.737L1044.58,325.658L1045.28,325.614L1045.97,325.605L1046.66,325.63L1047.33,325.689L1054.41,326.502L1057.89,326.885L1061.36,327.255L1064.82,327.609L1068.26,327.947L1071.69,328.269L1075.11,328.572L1078.52,328.856L1081.91,329.121L1085.3,329.366L1088.68,329.589L1092.05,329.789L1095.41,329.967L1098.77,330.121L1102.13,330.25L1105.48,330.354L1108.84,330.431L1112.19,330.481L1115.54,330.503L1118.9,330.496L1122.26,330.459L1125.62,330.392L1129,330.293L1132.37,330.162L1135.76,329.998L1139.16,329.8L1142.57,329.568L1145.99,329.3L1149.42,328.995L1152.87,328.653L1156.41,328.264L1157.12,328.203L1157.83,328.178L1158.52,328.188L1159.21,328.233L1159.88,328.313L1160.53,328.428L1161.17,328.577L1161.78,328.76L1162.37,328.976L1162.94,329.224L1163.47,329.503L1163.98,329.812L1164.45,330.151L1164.89,330.516L1165.3,330.908L1165.66,331.324L1165.99,331.763L1166.27,332.223L1166.52,332.703L1167.81,335.527L1169.07,338.359L1170.3,341.197L1171.48,344.036L1172.05,345.486L1172.61,346.931L1173.15,348.385L1173.67,349.85L1174.17,351.326L1174.65,352.814L1175.12,354.316L1175.55,355.834L1175.96,357.367L1176.35,358.917L1176.71,360.485L1177.05,362.071L1177.35,363.678L1177.62,365.306L1177.86,366.955L1178.07,368.626L1178.24,370.32L1178.38,372.039L1178.48,373.783L1178.54,375.552L1178.56,377.348L1178.54,379.17L1178.48,381.021L1178.38,382.825L1178.33,383.394L1178.23,383.967L1178.09,384.54L1177.89,385.113L1177.66,385.681L1177.38,386.244L1177.06,386.798L1176.69,387.342L1176.29,387.873L1175.85,388.389L1175.38,388.888L1174.87,389.368L1174.32,389.827L1173.75,390.263L1173.15,390.674L1172.53,391.058L1171.88,391.415L1171.21,391.742L1170.53,392.038L1169.83,392.302L1169.12,392.534L1167.02,393.163L1164.85,393.789L1162.68,394.388L1160.53,394.959L1158.38,395.504L1156.24,396.02L1154.1,396.51L1151.98,396.973L1149.86,397.408L1147.75,397.816L1145.65,398.198L1143.56,398.552L1141.47,398.88L1139.39,399.18L1137.32,399.454L1135.25,399.702L1133.19,399.922L1131.14,400.117L1129.1,400.285L1127.06,400.426L1125.04,400.542L1123.01,400.632L1121,400.695L1118.99,400.734L1117,400.746L1115,400.733L1113.02,400.696L1111.04,400.633L1109.07,400.545L1107.11,400.432L1105.15,400.295L1103.2,400.134L1101.26,399.949L1099.33,399.74L1097.4,399.508L1095.48,399.252L1093.56,398.973L1091.65,398.671L1089.75,398.346L1087.85,397.999L1085.96,397.629L1084.07,397.237L1082.19,396.824L1080.32,396.389L1078.45,395.932L1076.58,395.454L1074.72,394.956L1072.86,394.436L1071.01,393.896L1069.16,393.336L1067.32,392.755L1065.47,392.154L1063.64,391.534L1061.8,390.894L1059.97,390.235L1058.14,389.556L1056.31,388.859L1054.48,388.143L1052.66,387.408L1050.84,386.654L1049.02,385.882L1047.19,385.093L1045.37,384.285L1043.59,383.475L1043.07,383.219L1042.58,382.935L1042.11,382.625L1041.68,382.29L1041.28,381.93L1040.91,381.547L1040.57,381.143L1040.27,380.718L1039.35,379.282L1038.43,377.814L1037.53,376.345L1036.66,374.875L1035.82,373.403L1035.01,371.929L1034.24,370.454L1033.5,368.975L1032.79,367.494L1032.13,366.01L1031.5,364.521L1030.92,363.028L1030.39,361.53L1029.91,360.025L1029.47,358.514L1029.1,356.994L1028.78,355.466L1028.52,353.928L1028.33,352.416L1028.26,351.602L1028.2,350.821L1028.17,350.036L1028.16,349.248L1028.16,348.457L1028.19,347.662L1028.23,346.865L1028.3,346.064L1028.39,345.261L1028.5,344.454L1028.64,343.644L1028.8,342.832L1028.99,342.017L1029.2,341.201L1029.44,340.382L1029.71,339.562L1030,338.741L1030.32,337.92L1030.67,337.099L1031.05,336.279L1031.46,335.46L1031.9,334.644L1032.37,333.83L1032.86,333.02L1033.39,332.214L1033.86,331.539L1034.24,331.022L1034.66,330.519L1035.11,330.031L1035.6,329.561L1036.11,329.11L1036.66,328.68L1037.23,328.273L1037.83,327.889L1038.44,327.532L1039.08,327.201L1039.73,326.899L1040.4,326.626L1041.09,326.384ZM1043.2,335.11L1042.84,335.663L1042.49,336.22L1042.17,336.78L1041.87,337.343L1041.59,337.911L1041.32,338.481L1041.08,339.055L1040.85,339.633L1040.64,340.214L1040.45,340.798L1040.28,341.386L1040.13,341.977L1039.99,342.571L1039.87,343.169L1039.77,343.769L1039.69,344.373L1039.62,344.979L1039.57,345.589L1039.53,346.202L1039.51,346.817L1039.51,347.436L1039.52,348.057L1039.55,348.681L1039.59,349.308L1039.65,349.938L1039.8,351.205L1040.02,352.483L1040.29,353.771L1040.61,355.068L1040.98,356.375L1041.41,357.692L1041.88,359.017L1042.4,360.35L1042.96,361.692L1043.56,363.041L1044.21,364.398L1044.89,365.762L1045.61,367.133L1046.37,368.51L1047.16,369.893L1047.98,371.283L1048.83,372.678L1049.71,374.077L1050.61,375.482L1052.36,376.276L1054.11,377.052L1055.86,377.81L1057.6,378.549L1059.35,379.269L1061.09,379.971L1062.83,380.654L1064.57,381.318L1066.31,381.963L1068.05,382.589L1069.79,383.195L1071.53,383.782L1073.27,384.35L1075.01,384.897L1076.75,385.425L1078.49,385.933L1080.23,386.42L1081.98,386.887L1083.72,387.334L1085.47,387.761L1087.22,388.166L1088.97,388.551L1090.72,388.915L1092.48,389.258L1094.23,389.58L1095.99,389.88L1097.76,390.159L1099.53,390.417L1101.3,390.653L1103.07,390.867L1104.85,391.059L1106.63,391.228L1108.42,391.376L1110.21,391.501L1112.01,391.604L1113.81,391.685L1115.61,391.742L1117.42,391.777L1119.24,391.788L1121.06,391.777L1122.89,391.742L1124.72,391.684L1126.57,391.602L1128.41,391.497L1130.27,391.368L1132.13,391.215L1134,391.038L1135.87,390.837L1137.75,390.611L1139.64,390.361L1141.54,390.087L1143.45,389.788L1145.37,389.464L1147.29,389.115L1149.22,388.741L1151.16,388.341L1153.11,387.917L1155.07,387.467L1157.04,386.991L1159.02,386.49L1161.01,385.962L1163.01,385.409L1165.02,384.83L1167.04,384.224L1167.14,382.496L1167.19,380.797L1167.21,379.125L1167.19,377.48L1167.13,375.86L1167.04,374.264L1166.91,372.69L1166.76,371.138L1166.57,369.606L1166.35,368.093L1166.1,366.598L1165.82,365.119L1165.51,363.655L1165.18,362.206L1164.82,360.77L1164.43,359.345L1164.03,357.931L1163.6,356.525L1163.14,355.128L1162.67,353.738L1162.18,352.353L1161.67,350.972L1161.14,349.595L1160.59,348.219L1159.45,345.469L1158.26,342.711L1157.02,339.936L1155.74,337.135L1152.12,337.532L1148.51,337.889L1144.93,338.207L1141.36,338.487L1137.81,338.73L1134.27,338.936L1130.74,339.106L1127.23,339.243L1123.73,339.345L1120.23,339.415L1116.75,339.453L1113.27,339.46L1109.8,339.438L1106.33,339.386L1102.87,339.306L1099.41,339.2L1095.96,339.067L1092.5,338.908L1089.05,338.726L1085.59,338.52L1082.13,338.291L1078.66,338.042L1075.19,337.771L1071.72,337.481L1068.24,337.172L1064.75,336.845L1061.25,336.501L1057.74,336.141L1054.22,335.767L1050.69,335.378L1043.58,334.561L1043.2,335.11Z" style="fill:black;"/>
    </g>
    <g transform="matrix(0.0506099,-1.50879e-17,-1.01889e-16,0.0690953,-23.9313,-17.7277)">
        <path d="M973.359,395.875L974.473,395.918L975.584,395.995L976.689,396.108L977.786,396.255L978.874,396.436L979.95,396.652L981.012,396.901L982.059,397.184L983.088,397.499L984.097,397.847L985.086,398.226L986.051,398.635L986.991,399.075L987.905,399.544L988.79,400.042L989.645,400.566L990.468,401.118L991.258,401.694L992.014,402.295L992.734,402.92L1002.48,411.756L1003.09,411.749L1006.54,411.726L1009.99,411.723L1013.44,411.74L1016.88,411.776L1020.32,411.833L1023.76,411.909L1027.19,412.005L1030.62,412.12L1034.04,412.255L1037.46,412.409L1040.88,412.583L1044.29,412.776L1047.7,412.988L1051.1,413.22L1054.5,413.471L1057.9,413.74L1061.29,414.029L1064.68,414.337L1068.07,414.663L1071.45,415.009L1074.82,415.373L1078.2,415.756L1081.57,416.157L1084.93,416.577L1088.29,417.016L1091.64,417.473L1095,417.948L1098.25,418.428L1099.34,418.606L1100.42,418.819L1101.48,419.065L1102.53,419.345L1103.56,419.657L1104.57,420.002L1105.56,420.378L1106.53,420.785L1107.47,421.222L1108.39,421.688L1109.27,422.183L1110.13,422.706L1110.96,423.255L1111.75,423.829L1112.51,424.428L1113.23,425.05L1113.92,425.695L1114.57,426.36L1115.17,427.045L1115.74,427.749L1116.27,428.47L1116.75,429.207L1117.19,429.958L1117.58,430.723L1117.93,431.499L1118.23,432.286L1118.49,433.081L1118.7,433.883L1118.86,434.692L1118.97,435.505L1119.04,436.32L1119.06,437.137L1119.03,437.954L1118.95,438.769L1118.83,439.581L1118.65,440.388L1118.43,441.189L1118.16,441.983L1117.85,442.767L1117.49,443.541L1117.09,444.302L1116.64,445.05L1116.15,445.784L1115.61,446.501L1115.04,447.2L1114.42,447.881L1113.76,448.542L1113.07,449.181L1112.34,449.798L1111.57,450.392L1110.77,450.96L1109.94,451.503L1109.07,452.019L1108.18,452.508L1107.25,452.967L1106.31,453.397L1105.33,453.797L1104.34,454.166L1103.32,454.503L1102.29,454.808L1101.24,455.08L1100.17,455.319L1099.09,455.524L1098,455.694L1096.9,455.83L1095.79,455.931L1094.68,455.997L1093.56,456.028L1092.45,456.024L1091.33,455.985L1090.22,455.911L1089.12,455.802L1088.02,455.658L1084.95,455.206L1081.98,454.784L1079,454.379L1076.03,453.99L1073.05,453.618L1070.06,453.262L1067.08,452.924L1064.09,452.601L1061.1,452.296L1058.11,452.007L1055.11,451.735L1052.11,451.48L1049.11,451.242L1046.11,451.02L1043.11,450.816L1040.1,450.628L1037.09,450.458L1034.07,450.305L1031.06,450.169L1028.04,450.05L1025.01,449.948L1021.99,449.864L1018.96,449.796L1015.93,449.747L1012.89,449.714L1009.85,449.699L1006.81,449.702L1003.76,449.722L1000.72,449.76L997.664,449.815L994.609,449.889L991.448,449.983L990.35,449.998L989.253,449.98L988.157,449.927L987.066,449.841L985.98,449.721L984.903,449.567L983.835,449.38L982.779,449.16L981.737,448.908L980.71,448.623L979.701,448.307L978.711,447.96L977.741,447.582L976.795,447.175L975.873,446.739L974.977,446.274L974.108,445.782L973.269,445.264L972.461,444.72L971.684,444.152L970.941,443.56L970.233,442.945L952.409,426.79L951.726,426.144L951.083,425.476L950.479,424.789L949.916,424.084L949.395,423.362L948.916,422.623L948.482,421.871L948.092,421.105L947.748,420.328L947.449,419.541L947.197,418.745L946.992,417.941L946.835,417.132L946.725,416.319L946.663,415.503L946.649,414.686L946.682,413.87L946.764,413.055L946.894,412.243L947.071,411.436L947.295,410.636L947.567,409.843L947.884,409.06L948.247,408.288L948.656,407.527L949.108,406.78L949.604,406.048L950.143,405.333L950.723,404.635L951.343,403.956L952.003,403.297L952.701,402.66L953.436,402.045L954.206,401.454L955.01,400.887L955.847,400.347L956.714,399.833L957.611,399.347L958.536,398.89L959.487,398.463L960.462,398.066L961.459,397.7L962.477,397.365L963.514,397.063L964.567,396.794L965.635,396.559L966.716,396.357L967.808,396.19L968.909,396.057L970.016,395.959L971.129,395.896L972.243,395.868L973.359,395.875Z" style="fill:black;"/>
    </g>
    <g transform="matrix(0.0247346,0.0294572,-0.0332689,0.0520687,19.4709,-43.5158)">
        <path d="M1181.37,440.874L1119.04,443.916L1119.04,448.677C1139.3,446.317 1159.44,445.151 1179.31,447.029L1181.37,440.874Z" style="fill:black;stroke-width:15.48px;stroke:black;"/>
    </g>
    <g transform="matrix(0.0421188,-0.0383092,0.0280601,0.0575027,-27.7268,28.5134)">
        <path d="M1123.97,504.9C1123.37,504.612 1123.04,500.834 1123.07,500.868C1124.1,502.369 1119.5,501.088 1117.64,500.749C1112.59,499.831 1107.72,497.712 1103.8,497.608C1100.2,497.512 1097.49,499.352 1094.49,500.243C1093.05,500.673 1091.61,500.523 1090.41,501.343L1089.34,506.176L1095.92,504.005L1107.16,502.366L1122.36,505.674C1122.9,505.272 1124.47,505.138 1123.97,504.9Z" style="fill:black;stroke-width:17.44px;stroke:black;"/>
    </g>
    <g transform="matrix(0.0506099,-1.50879e-17,-1.01889e-16,0.0690953,-24.2713,-17.9929)">
        <path d="M1099.19,462.511C1105.85,462.472 1108.07,464.831 1109.93,468.111C1111.92,471.646 1106.53,476.253 1099.19,473.712C1089.93,470.505 1087.69,470.062 1088.45,468.111C1090.08,463.926 1092.96,462.547 1099.19,462.511Z" style="fill:black;stroke-width:14.82px;stroke:black;"/>
    </g>
    <g transform="matrix(0.0493614,-0.0152527,0.0111721,0.0673907,-27.0455,-2.31431)">
        <path d="M1066.37,492.674C1064.65,491.568 1062.98,490.41 1061.53,488.877C1060.92,500.165 1072.78,508.897 1086.63,516L1085.9,511.04C1074.32,506.15 1067.39,502.337 1066.37,492.674Z" style="fill:black;stroke-width:15.89px;stroke:black;"/>
    </g>
    <g transform="matrix(0.0512322,-0.0142102,0.0102431,0.0688339,-29.8275,-1.58564)">
        <path d="M1190.62,413.652L1173.38,418.014C1294.99,533.446 1363.2,613.123 1178.38,564.016C1224.12,604.985 1432.81,661.695 1190.62,413.652Z" style="fill:black;"/>
    </g>
    <g transform="matrix(0.0313608,-9.34933e-18,-6.31366e-17,0.0428155,-4.07469,-6.88757)">
        <path d="M1455.15,700.696C1453.61,699.84 1450.34,695.456 1452.91,696.884C1642.09,801.713 1583.87,1085.12 1280.8,1029.41C1134.49,1002.52 1074.32,939.643 1060.69,815.951C1060.15,811.055 1062.2,817.547 1062.4,819.384C1074.69,930.894 1139.48,978.103 1271.37,1002.35C1544.6,1052.57 1625.69,795.201 1455.15,700.696Z" style="fill:black;"/>
    </g>
    <g transform="matrix(0.0474592,0.00344308,-0.00252194,0.0647938,-19.0001,-19.9407)">
        <path d="M1245.16,585.079C1274.1,580.122 1301.26,576.971 1327.22,578.777C1288.98,588.469 1255.8,604.25 1261.54,629.324" style="fill:none;stroke-width:6.06px;stroke:rgb(242,242,242);"/>
    </g>
    <g transform="matrix(0.0489533,-0.0345363,0.0218182,0.0576438,-29.7269,14.4112)">
        <path d="M904.366,396.298C860.399,376.564 815.729,370.484 770.226,380.603L770.868,388.477C816.177,388.489 860.824,393.297 904.782,403.092L904.366,396.298Z" style="fill:white;"/>
    </g>
    <g transform="matrix(0.0475262,-1.41686e-17,-9.56812e-17,0.0648852,-21.3143,-14.0308)">
        <path d="M1097.05,440.793C1055.81,429.896 999.625,436.091 963.883,433.624C936.627,431.742 921.26,423.15 933.474,407.974L916.803,409.28C895.313,464.036 1096.59,434.784 1097.05,440.793Z" style="fill:white;"/>
    </g>
    <g transform="matrix(0.0363377,-0.0418202,0.0306319,0.0496101,-21.0007,31.0994)">
        <path d="M985.613,372.099L977.69,369.031C971.046,394.829 973.936,415.436 985.131,429.75C988.041,420.098 986.342,394.411 985.613,372.099Z" style="fill:white;"/>
    </g>
    <g transform="matrix(0.0423516,0.0294426,-0.0215657,0.0578206,-9.45802,-43.1631)">
        <path d="M1185.38,291.282C1158.77,234.576 1097.52,235.239 1011.74,280.624C1089.83,253.822 1133.89,242.466 1171.2,295.936L1185.38,291.282Z" style="fill:white;"/>
    </g>
    <g transform="matrix(0.044721,0.0219621,-0.0160865,0.0610554,-11.9133,-37.6412)">
        <path d="M1158.62,336.825C1119.89,341.281 1081.65,339.043 1043.58,334.561C1035.21,346.234 1040.82,360.473 1050.61,375.482C1087.98,392.615 1125.86,398.928 1169.08,385.727C1170.28,367.139 1165.53,351.855 1158.62,336.825Z" style="fill:white;"/>
    </g>
    <g transform="matrix(0.0475262,-1.41686e-17,-9.56812e-17,0.0648852,-20.5623,-15.6971)">
        <path d="M972.571,414.855L990.396,431.01C1025.22,429.874 1059.45,431.981 1093.13,437.043" style="fill:none;stroke-width:9.67px;stroke:rgb(242,242,242);"/>
    </g>
    <g transform="matrix(0.0232275,0.0276624,-0.0312418,0.0488961,20.5147,-39.7297)">
        <path d="M1181.37,440.874L1119.04,443.916L1119.04,448.677C1139.3,446.317 1159.44,445.151 1179.31,447.029L1181.37,440.874Z" style="fill:white;"/>
    </g>
    <g transform="matrix(0.0395524,-0.035975,0.0263504,0.053999,-23.8072,27.9107)">
        <path d="M1123.97,504.9C1123.37,504.612 1123.04,500.834 1123.07,500.868C1124.1,502.369 1119.5,501.088 1117.64,500.749C1112.59,499.831 1107.72,497.712 1103.8,497.608C1100.2,497.512 1097.49,499.352 1094.49,500.243C1093.05,500.673 1091.61,500.523 1090.41,501.343L1089.34,506.176L1095.92,504.005L1107.16,502.366L1122.36,505.674C1122.9,505.272 1124.47,505.138 1123.97,504.9Z" style="fill:white;"/>
    </g>
    <g transform="matrix(0.0475262,-1.41686e-17,-9.56812e-17,0.0648852,-20.5623,-15.762)">
        <path d="M1099.19,462.511C1105.85,462.472 1108.07,464.831 1109.93,468.111C1111.92,471.646 1106.53,476.253 1099.19,473.712C1089.93,470.505 1087.69,470.062 1088.45,468.111C1090.08,463.926 1092.96,462.547 1099.19,462.511Z" style="fill:white;"/>
    </g>
    <g transform="matrix(0.0463537,-0.0143234,0.0104914,0.0632846,-23.1674,-1.03867)">
        <path d="M1066.37,492.674C1064.65,491.568 1062.98,490.41 1061.53,488.877C1060.92,500.165 1072.78,508.897 1086.63,516L1085.9,511.04C1074.32,506.15 1067.39,502.337 1066.37,492.674Z" style="fill:white;"/>
    </g>
    <g transform="matrix(0.0481105,-0.0133443,0.00961902,0.0646398,-25.338,-0.0975407)">
        <path d="M1187.84,406.255L1171.59,406.255C1293.2,521.687 1363.2,613.123 1178.38,564.016C1224.12,604.985 1430.03,654.298 1187.84,406.255Z" style="fill:white;"/>
    </g>
    <g transform="matrix(0.02945,-8.77966e-18,-5.92896e-17,0.0402067,-1.02365,-3.21001)">
        <path d="M1450.67,659.866C1448.39,655.2 1448.09,653.227 1450.67,654.656C1639.84,759.485 1583.87,1085.12 1280.8,1029.41C1134.49,1002.52 1049.07,914.921 1035.44,791.229C1034.9,786.334 1035.22,784.535 1036.39,785.193C1036.23,786.117 1036.25,787.477 1036.45,789.314C1048.74,900.824 1139.48,978.103 1271.37,1002.35C1544.6,1052.57 1623.65,752.845 1453.11,658.341C1451.56,657.485 1450.8,658.062 1450.67,659.866Z" style="fill:white;"/>
        <path d="M1449.51,654.206L1449.83,654.278L1450.22,654.428L1450.67,654.656L1452.87,655.894L1455.06,657.153L1457.22,658.431L1459.35,659.729L1461.47,661.046L1463.56,662.383L1465.63,663.738L1467.68,665.112L1469.71,666.505L1471.71,667.915L1473.69,669.344L1475.65,670.791L1477.59,672.255L1479.5,673.737L1481.39,675.236L1483.26,676.752L1485.11,678.285L1486.93,679.834L1488.74,681.399L1490.51,682.981L1492.27,684.579L1494.01,686.192L1495.72,687.821L1497.41,689.465L1499.07,691.124L1500.72,692.798L1502.34,694.487L1503.94,696.189L1505.52,697.907L1507.07,699.638L1508.6,701.383L1510.11,703.141L1511.6,704.913L1513.06,706.698L1514.51,708.495L1515.92,710.306L1517.32,712.129L1518.7,713.964L1520.05,715.811L1521.38,717.67L1522.69,719.54L1523.97,721.422L1525.23,723.316L1526.47,725.22L1527.69,727.134L1528.89,729.06L1530.06,730.995L1531.21,732.941L1532.34,734.897L1533.44,736.862L1534.52,738.837L1535.58,740.821L1537.64,744.816L1539.6,748.845L1541.47,752.907L1543.26,756.999L1544.95,761.121L1546.55,765.27L1548.07,769.445L1549.49,773.644L1550.82,777.866L1552.07,782.108L1553.22,786.368L1554.28,790.646L1555.26,794.94L1556.14,799.247L1556.93,803.565L1557.63,807.895L1558.25,812.232L1558.77,816.577L1559.2,820.926L1559.55,825.279L1559.8,829.633L1559.96,833.988L1560.04,838.34L1560.02,842.689L1559.91,847.033L1559.72,851.369L1559.43,855.697L1559.05,860.015L1558.59,864.32L1558.03,868.611L1557.38,872.887L1556.64,877.146L1555.82,881.385L1554.9,885.604L1553.89,889.8L1552.79,893.972L1551.6,898.118L1550.33,902.236L1548.96,906.325L1547.5,910.383L1545.95,914.408L1544.31,918.398L1542.58,922.352L1541.68,924.315L1540.76,926.268L1539.82,928.211L1538.85,930.145L1537.87,932.067L1536.85,933.979L1535.82,935.881L1534.77,937.771L1533.69,939.65L1532.59,941.518L1531.46,943.374L1530.32,945.218L1529.15,947.05L1527.95,948.87L1526.74,950.677L1525.5,952.472L1524.25,954.253L1522.96,956.022L1521.66,957.777L1520.33,959.518L1518.98,961.246L1517.61,962.959L1516.22,964.659L1514.8,966.344L1513.36,968.014L1511.9,969.669L1510.41,971.31L1508.91,972.935L1507.38,974.544L1505.83,976.138L1504.25,977.715L1502.65,979.277L1501.03,980.822L1499.39,982.35L1497.73,983.862L1496.04,985.357L1494.33,986.834L1492.6,988.294L1490.84,989.736L1489.06,991.161L1487.26,992.567L1485.44,993.955L1483.59,995.324L1481.73,996.675L1479.83,998.006L1477.92,999.319L1475.99,1000.61L1474.03,1001.88L1472.05,1003.14L1470.04,1004.37L1468.02,1005.59L1465.97,1006.78L1463.89,1007.95L1461.8,1009.1L1459.68,1010.23L1457.55,1011.34L1455.38,1012.43L1453.2,1013.49L1450.99,1014.54L1448.76,1015.56L1446.51,1016.56L1444.24,1017.53L1441.94,1018.49L1439.62,1019.42L1437.28,1020.32L1434.91,1021.21L1432.53,1022.07L1430.12,1022.9L1427.68,1023.71L1425.23,1024.5L1422.75,1025.26L1420.25,1026L1417.73,1026.71L1415.18,1027.4L1412.61,1028.06L1410.02,1028.7L1407.41,1029.31L1404.77,1029.89L1402.11,1030.45L1399.43,1030.98L1396.73,1031.49L1394,1031.97L1391.25,1032.42L1388.48,1032.84L1385.69,1033.24L1382.87,1033.61L1380.03,1033.94L1377.17,1034.26L1374.28,1034.54L1371.38,1034.8L1368.45,1035.02L1365.5,1035.22L1362.52,1035.38L1359.52,1035.52L1356.5,1035.63L1353.46,1035.71L1350.39,1035.76L1347.31,1035.78L1344.19,1035.76L1341.06,1035.72L1337.91,1035.64L1334.73,1035.54L1331.53,1035.4L1328.3,1035.23L1325.06,1035.03L1321.79,1034.8L1318.5,1034.53L1315.18,1034.23L1311.85,1033.9L1308.49,1033.54L1305.1,1033.14L1301.7,1032.71L1298.27,1032.25L1294.82,1031.75L1291.35,1031.22L1287.85,1030.65L1284.34,1030.05L1280.8,1029.41L1277.38,1028.77L1273.98,1028.11L1270.61,1027.42L1267.26,1026.72L1263.93,1025.99L1260.62,1025.24L1257.34,1024.46L1254.08,1023.67L1250.84,1022.85L1247.63,1022.01L1244.43,1021.15L1241.26,1020.27L1238.12,1019.37L1234.99,1018.44L1231.89,1017.5L1228.81,1016.53L1225.75,1015.55L1222.72,1014.54L1219.71,1013.51L1216.72,1012.46L1213.75,1011.39L1210.81,1010.29L1207.89,1009.18L1204.99,1008.05L1202.12,1006.89L1199.27,1005.72L1196.44,1004.52L1193.64,1003.31L1190.86,1002.08L1188.1,1000.82L1185.37,999.543L1182.65,998.248L1179.97,996.932L1177.3,995.597L1174.66,994.241L1172.04,992.866L1169.45,991.471L1166.88,990.057L1164.33,988.623L1161.81,987.169L1159.31,985.696L1156.83,984.204L1154.38,982.693L1151.95,981.162L1149.54,979.612L1147.16,978.043L1144.8,976.455L1142.47,974.848L1140.15,973.222L1137.87,971.578L1135.61,969.915L1133.37,968.233L1131.15,966.533L1128.96,964.814L1126.79,963.076L1124.65,961.321L1122.53,959.547L1120.43,957.754L1118.36,955.944L1116.31,954.116L1114.29,952.269L1112.29,950.405L1110.32,948.522L1108.37,946.622L1106.44,944.705L1104.54,942.769L1102.66,940.816L1100.81,938.846L1098.98,936.858L1097.18,934.852L1095.4,932.83L1093.64,930.79L1091.91,928.733L1090.21,926.659L1088.53,924.568L1086.87,922.46L1085.24,920.335L1083.63,918.193L1082.05,916.034L1080.49,913.859L1078.95,911.667L1077.45,909.459L1075.96,907.234L1074.51,904.993L1073.07,902.736L1071.66,900.462L1070.28,898.172L1068.92,895.866L1067.59,893.544L1066.28,891.206L1065,888.852L1063.74,886.482L1062.5,884.097L1061.3,881.696L1060.11,879.279L1058.96,876.847L1057.82,874.399L1056.72,871.936L1055.63,869.457L1054.58,866.963L1053.55,864.455L1052.54,861.93L1051.56,859.391L1050.61,856.837L1049.68,854.268L1048.78,851.684L1047.9,849.086L1047.05,846.473L1046.22,843.845L1045.42,841.202L1044.65,838.545L1043.9,835.874L1043.17,833.188L1042.48,830.488L1041.81,827.774L1041.16,825.046L1040.54,822.303L1039.95,819.547L1039.38,816.776L1038.84,813.992L1038.32,811.194L1037.83,808.383L1037.37,805.557L1036.93,802.719L1036.52,799.866L1036.13,797L1035.78,794.121L1035.44,791.229L1035.28,789.537L1035.2,788.128L1035.2,786.994L1035.23,786.528L1035.28,786.129L1035.34,785.794L1035.43,785.523L1035.54,785.316L1035.67,785.17L1035.82,785.086L1035.99,785.063L1036.18,785.099L1036.39,785.193L1036.3,785.968L1036.28,786.911L1036.33,788.025L1036.45,789.314L1036.75,791.922L1037.08,794.516L1037.44,797.098L1037.83,799.668L1038.24,802.224L1038.69,804.768L1039.16,807.299L1039.66,809.817L1040.19,812.322L1040.75,814.814L1041.33,817.293L1041.94,819.758L1042.58,822.211L1043.25,824.65L1043.94,827.077L1044.66,829.489L1045.41,831.889L1046.18,834.274L1046.98,836.647L1047.81,839.006L1048.67,841.351L1049.55,843.683L1050.45,846L1051.39,848.304L1052.35,850.595L1053.33,852.871L1054.35,855.133L1055.38,857.382L1056.45,859.616L1057.54,861.837L1058.65,864.043L1059.79,866.235L1060.96,868.412L1062.15,870.576L1063.36,872.725L1064.6,874.859L1065.87,876.979L1067.16,879.085L1068.47,881.176L1069.81,883.252L1071.18,885.314L1072.57,887.361L1073.98,889.393L1075.42,891.41L1076.88,893.413L1078.36,895.4L1079.87,897.373L1081.4,899.33L1082.96,901.272L1084.54,903.199L1086.14,905.111L1087.77,907.008L1089.42,908.889L1091.09,910.755L1092.78,912.605L1094.5,914.44L1096.24,916.26L1098.01,918.063L1099.79,919.851L1101.6,921.624L1103.43,923.381L1105.29,925.121L1107.16,926.846L1109.06,928.555L1110.98,930.248L1112.92,931.925L1114.88,933.586L1116.87,935.231L1118.87,936.86L1120.9,938.472L1122.95,940.068L1125.02,941.648L1127.11,943.211L1129.22,944.758L1131.35,946.288L1133.5,947.802L1135.68,949.299L1137.87,950.779L1140.09,952.243L1142.32,953.69L1144.58,955.12L1146.85,956.533L1149.15,957.929L1151.46,959.308L1153.8,960.671L1156.15,962.016L1158.52,963.344L1160.92,964.654L1163.33,965.948L1165.76,967.224L1168.21,968.482L1170.68,969.724L1173.17,970.947L1175.68,972.154L1178.21,973.342L1180.75,974.513L1183.32,975.667L1185.9,976.802L1188.5,977.92L1191.12,979.02L1193.75,980.102L1196.41,981.166L1199.08,982.212L1201.77,983.239L1204.48,984.249L1207.2,985.241L1209.94,986.214L1212.7,987.169L1215.48,988.106L1218.28,989.024L1221.09,989.924L1223.91,990.805L1226.76,991.668L1229.62,992.512L1232.5,993.338L1235.39,994.144L1238.31,994.932L1241.23,995.702L1244.18,996.452L1247.13,997.183L1250.11,997.895L1253.1,998.589L1256.11,999.263L1259.13,999.918L1262.17,1000.55L1265.22,1001.17L1268.29,1001.77L1271.37,1002.35L1274.57,1002.92L1277.74,1003.46L1280.9,1003.97L1284.04,1004.45L1287.16,1004.89L1290.26,1005.31L1293.35,1005.69L1296.42,1006.05L1299.47,1006.37L1302.5,1006.66L1305.51,1006.93L1308.51,1007.16L1311.49,1007.36L1314.45,1007.54L1317.39,1007.68L1320.31,1007.8L1323.22,1007.88L1326.11,1007.94L1328.98,1007.97L1331.83,1007.97L1334.66,1007.95L1337.48,1007.89L1340.27,1007.81L1343.05,1007.7L1345.81,1007.56L1348.56,1007.4L1351.28,1007.21L1353.98,1006.99L1356.67,1006.75L1359.34,1006.48L1361.99,1006.18L1364.62,1005.86L1367.24,1005.51L1369.83,1005.14L1372.41,1004.74L1374.97,1004.32L1377.51,1003.87L1380.03,1003.39L1382.53,1002.9L1385.02,1002.37L1387.48,1001.83L1389.93,1001.26L1392.36,1000.66L1394.77,1000.05L1397.16,999.406L1399.53,998.742L1401.88,998.055L1404.22,997.346L1406.53,996.614L1408.83,995.86L1411.11,995.084L1413.37,994.286L1415.61,993.466L1417.84,992.624L1420.04,991.762L1422.22,990.878L1424.39,989.973L1426.54,989.048L1428.66,988.102L1430.77,987.135L1432.86,986.149L1434.93,985.143L1436.99,984.117L1439.02,983.071L1441.03,982.006L1443.03,980.922L1445,979.819L1446.96,978.697L1448.9,977.557L1450.82,976.398L1452.72,975.222L1454.6,974.027L1456.46,972.814L1458.3,971.584L1460.12,970.337L1461.92,969.073L1463.71,967.791L1465.47,966.493L1467.22,965.178L1468.94,963.847L1470.65,962.5L1472.34,961.137L1474.01,959.758L1475.65,958.363L1477.28,956.953L1478.89,955.528L1480.48,954.088L1482.05,952.634L1483.6,951.164L1485.13,949.681L1486.65,948.183L1488.14,946.671L1489.61,945.145L1491.07,943.606L1492.5,942.053L1493.91,940.488L1495.31,938.909L1496.68,937.318L1498.04,935.713L1499.37,934.097L1501.98,930.828L1504.51,927.511L1506.96,924.149L1509.34,920.743L1511.63,917.295L1513.84,913.806L1515.98,910.278L1518.03,906.712L1520,903.11L1521.89,899.473L1523.7,895.804L1525.43,892.103L1527.09,888.373L1528.65,884.615L1530.14,880.83L1531.55,877.02L1532.87,873.187L1534.11,869.332L1535.27,865.458L1536.35,861.564L1537.35,857.654L1538.26,853.728L1539.1,849.788L1539.84,845.836L1540.51,841.874L1541.09,837.902L1541.59,833.923L1542.01,829.939L1542.34,825.95L1542.59,821.958L1542.76,817.965L1542.84,813.973L1542.84,809.983L1542.75,805.996L1542.58,802.015L1542.32,798.04L1541.98,794.075L1541.56,790.119L1541.05,786.174L1540.45,782.243L1539.77,778.327L1539.01,774.427L1538.15,770.545L1537.22,766.683L1536.19,762.841L1535.08,759.023L1533.88,755.229L1532.6,751.46L1531.23,747.72L1529.78,744.008L1528.23,740.327L1526.6,736.678L1524.88,733.063L1523.08,729.484L1521.18,725.942L1520.21,724.185L1519.2,722.438L1518.18,720.701L1517.14,718.974L1516.07,717.258L1514.98,715.553L1513.87,713.858L1512.73,712.174L1511.58,710.502L1510.4,708.841L1509.2,707.192L1507.98,705.554L1506.74,703.929L1505.47,702.315L1504.18,700.715L1502.87,699.126L1501.54,697.551L1500.18,695.989L1498.8,694.44L1497.4,692.904L1495.98,691.382L1494.54,689.874L1493.07,688.38L1491.58,686.9L1490.07,685.434L1488.53,683.983L1486.98,682.547L1485.4,681.126L1483.8,679.72L1482.17,678.33L1480.53,676.955L1478.86,675.596L1477.16,674.253L1475.45,672.926L1473.71,671.616L1471.95,670.322L1470.17,669.045L1468.37,667.785L1466.54,666.542L1464.69,665.317L1462.81,664.109L1460.92,662.919L1459,661.747L1457.06,660.593L1455.09,659.458L1453.11,658.341L1452.83,658.197L1452.56,658.087L1452.32,658.009L1452.09,657.964L1451.88,657.952L1451.69,657.972L1451.52,658.023L1451.36,658.106L1451.22,658.22L1451.09,658.365L1450.98,658.54L1450.89,658.746L1450.75,659.247L1450.67,659.866L1449.91,658.244L1449.35,656.882L1449.14,656.302L1448.99,655.79L1448.89,655.348L1448.85,654.975L1448.86,654.675L1448.93,654.446L1448.99,654.36L1449.07,654.291L1449.15,654.242L1449.26,654.211L1449.38,654.199L1449.51,654.206Z" style="fill:rgb(242,242,242);"/>
    </g>
    <g transform="matrix(0.0170925,-0.011982,0.00826015,0.0202839,5.12281,5.56971)">
        <path d="M107.368,124.379L31.328,141.871C668.349,731.003 608.609,1026.82 59.81,820.329C16.21,803.924 -18.437,862.219 -32.341,886.378L107.368,916.856C761.087,1086.21 665.756,722.808 299.963,302.087C244.515,238.314 173.046,190.042 107.368,124.379Z" style="fill:black;"/>
    </g>
    <g transform="matrix(0.0193793,-8.60024e-18,-3.74939e-17,0.0254261,7.10246,4.43528)">
        <path d="M99.541,137.096L30.688,179.521C100.791,359.361 112.088,566.581 56.919,758.513L155.727,735.134C215.729,450.17 196.973,246.58 99.541,137.096Z" style="fill:black;stroke-width:4.18px;stroke:black;"/>
    </g>
    <g transform="matrix(0.0193793,-7.1888e-18,-3.74939e-17,0.0254261,6.47812,4.76755)">
        <path d="M515.505,501.251L425.312,501.251C440.736,632.291 437.826,778.224 371.409,933.146C397.829,918.15 450.828,925.182 456.544,922.962C492.874,751.852 530.776,570.15 515.505,501.251Z" style="fill:black;"/>
    </g>
    <g transform="matrix(0.0193793,-5.77737e-18,-3.74939e-17,0.0254261,6.40071,4.9386)">
        <path d="M1181.1,829.766C1065.85,784.853 726.067,827.144 459.01,875.742L459.01,916.086C757.22,869.548 973.703,869.588 1149.84,892.62L1181.1,829.766Z" style="fill:black;"/>
    </g>
    <g transform="matrix(0.0212092,-0.0154709,0.0102496,0.0261902,4.71223,4.76859)">
        <path d="M107.368,124.379L31.328,141.871C668.349,731.003 608.609,1026.82 59.81,820.329C16.21,803.924 -18.437,862.219 -32.341,886.378L107.368,916.856C761.087,1086.21 665.756,722.808 299.963,302.087C244.515,238.314 173.046,190.042 107.368,124.379Z" style="fill:white;"/>
    </g>
    <g transform="matrix(0.0240467,-1.08136e-17,-4.84115e-17,0.0328297,7.16867,3.30383)">
        <path d="M99.541,137.096L30.688,179.521C100.791,359.361 112.088,566.581 56.919,758.513L155.727,735.134C215.729,450.17 196.973,246.58 99.541,137.096Z" style="fill:white;stroke-width:3.28px;stroke:black;"/>
    </g>
    <g transform="matrix(0.0240467,-8.99123e-18,-4.84115e-17,0.0328297,6.39397,3.73285)">
        <path d="M515.505,501.251L425.312,501.251C440.736,632.291 437.826,778.224 371.409,933.146C397.829,918.15 450.828,925.182 456.544,922.962C492.874,751.852 530.776,570.15 515.505,501.251Z" style="fill:white;"/>
    </g>
    <g transform="matrix(0.0240467,-7.16881e-18,-4.84115e-17,0.0328297,6.29791,3.9537)">
        <path d="M1181.1,829.766C1065.85,784.853 726.067,827.144 459.01,875.742L459.01,916.086C757.22,869.548 973.703,869.588 1149.84,892.62L1181.1,829.766Z" style="fill:white;"/>
    </g>
    <g transform="matrix(0.107521,-1.10312e-32,4.41246e-32,0.107521,3.64821,9.92344)">
        <rect x="16.642" y="223.016" width="362.898" height="91" style="fill:white;"/>
        <path d="M388.84,323.317L7.342,323.317L7.342,213.716L388.84,213.716L388.84,323.317ZM16.642,223.016L16.642,314.016L379.54,314.016L379.54,223.016L16.642,223.016Z" style="fill:black;"/>
    </g>
    <g transform="matrix(0.0201521,-6.00778e-18,-4.05709e-17,0.0275128,13.9614,2.55334)">
        <g>
            <g transform="matrix(1,0,0,1,-415.768,1404.21)">
                <path d="M133.056,-117.504L208.224,-207.36L249.984,-207.36L249.984,0L211.68,0L211.68,-152.064L133.056,-58.464L54.144,-152.064L54.144,0L16.128,0L16.128,-207.36L57.6,-207.36L133.056,-117.504Z" style="fill:black;fill-rule:nonzero;"/>
                <path d="M321.696,-167.04L411.84,-167.04C422.784,-167.04 432.144,-163.152 439.92,-155.376C447.696,-147.6 451.584,-138.24 451.584,-127.296L451.584,-39.744C451.584,-28.8 447.696,-19.44 439.92,-11.664C432.144,-3.888 422.784,0 411.84,0L321.696,0C310.752,0 301.392,-3.888 293.616,-11.664C285.84,-19.44 281.952,-28.8 281.952,-39.744L281.952,-127.296C281.952,-138.24 285.84,-147.6 293.616,-155.376C301.392,-163.152 310.752,-167.04 321.696,-167.04ZM411.84,-129.312L321.696,-129.312C320.352,-129.312 319.68,-128.64 319.68,-127.296L319.68,-39.744C319.68,-38.4 320.352,-37.728 321.696,-37.728L411.84,-37.728C413.184,-37.728 413.856,-38.4 413.856,-39.744L413.856,-127.296C413.856,-128.64 413.184,-129.312 411.84,-129.312Z" style="fill:black;fill-rule:nonzero;"/>
            </g>
            <g transform="matrix(1,0,0,1,43.592,1404.21)">
                <path d="M118.08,-129.312L52.992,-129.312L52.992,-39.744C52.992,-38.4 53.664,-37.728 55.008,-37.728L118.08,-37.728L118.08,0L55.008,0C43.872,0 34.464,-3.888 26.784,-11.664C19.104,-19.44 15.264,-28.8 15.264,-39.744L15.264,-221.76L52.992,-221.76L52.992,-167.04L118.08,-167.04L118.08,-129.312Z" style="fill:black;fill-rule:nonzero;"/>
                <path d="M180.288,-167.04L270.432,-167.04C281.376,-167.04 290.736,-163.152 298.512,-155.376C306.288,-147.6 310.176,-138.24 310.176,-127.296L310.176,-39.744C310.176,-28.8 306.288,-19.44 298.512,-11.664C290.736,-3.888 281.376,0 270.432,0L180.288,0C169.344,0 159.984,-3.888 152.208,-11.664C144.432,-19.44 140.544,-28.8 140.544,-39.744L140.544,-127.296C140.544,-138.24 144.432,-147.6 152.208,-155.376C159.984,-163.152 169.344,-167.04 180.288,-167.04ZM270.432,-129.312L180.288,-129.312C178.944,-129.312 178.272,-128.64 178.272,-127.296L178.272,-39.744C178.272,-38.4 178.944,-37.728 180.288,-37.728L270.432,-37.728C271.776,-37.728 272.448,-38.4 272.448,-39.744L272.448,-127.296C272.448,-128.64 271.776,-129.312 270.432,-129.312Z" style="fill:black;fill-rule:nonzero;"/>
                <path d="M375.552,-167.04L468.288,-167.04L468.288,-129.312L375.552,-129.312C374.208,-129.312 373.536,-128.64 373.536,-127.296L373.536,0L335.808,0L335.808,-127.296C335.808,-138.24 339.696,-147.6 347.472,-155.376C355.248,-163.152 364.608,-167.04 375.552,-167.04Z" style="fill:black;fill-rule:nonzero;"/>
            </g>
        </g>
        <g>
            <g transform="matrix(1,0,0,1,605.192,1404.21)">
                <path d="M222.048,-167.328L222.048,-151.488L183.744,-151.488L183.744,-167.328C183.744,-168.672 183.168,-169.344 182.016,-169.344L54.72,-169.344C53.376,-169.344 52.704,-168.672 52.704,-167.328L52.704,-124.704C52.704,-123.36 53.376,-122.688 54.72,-122.688L182.016,-122.688C192.96,-122.688 202.368,-118.8 210.24,-111.024C218.112,-103.248 222.048,-93.792 222.048,-82.656L222.048,-40.032C222.048,-28.896 218.112,-19.44 210.24,-11.664C202.368,-3.888 192.96,0 182.016,0L54.72,0C43.584,0 34.128,-3.888 26.352,-11.664C18.576,-19.44 14.688,-28.896 14.688,-40.032L14.688,-55.872L52.704,-55.872L52.704,-40.032C52.704,-38.688 53.376,-38.016 54.72,-38.016L182.016,-38.016C183.168,-38.016 183.744,-38.688 183.744,-40.032L183.744,-82.656C183.744,-84 183.168,-84.672 182.016,-84.672L54.72,-84.672C43.584,-84.672 34.128,-88.56 26.352,-96.336C18.576,-104.112 14.688,-113.568 14.688,-124.704L14.688,-167.328C14.688,-178.464 18.576,-187.92 26.352,-195.696C34.128,-203.472 43.584,-207.36 54.72,-207.36L182.016,-207.36C192.96,-207.36 202.368,-203.472 210.24,-195.696C218.112,-187.92 222.048,-178.464 222.048,-167.328Z" style="fill:rgb(255,0,0);fill-rule:nonzero;"/>
                <path d="M382.176,-167.04C393.12,-167.04 402.48,-163.152 410.256,-155.376C418.032,-147.6 421.92,-138.24 421.92,-127.296L421.92,-39.744C421.92,-28.8 418.032,-19.44 410.256,-11.664C402.48,-3.888 393.12,0 382.176,0L290.016,0L290.016,66.24L252.288,66.24L252.288,-167.04L382.176,-167.04ZM384.192,-39.744L384.192,-127.296C384.192,-128.64 383.52,-129.312 382.176,-129.312L292.032,-129.312C290.688,-129.312 290.016,-128.64 290.016,-127.296L290.016,-39.744C290.016,-38.4 290.688,-37.728 292.032,-37.728L382.176,-37.728C383.52,-37.728 384.192,-38.4 384.192,-39.744Z" style="fill:rgb(255,0,0);fill-rule:nonzero;"/>
                <path d="M482.4,-167.04L572.544,-167.04C583.488,-167.04 592.848,-163.152 600.624,-155.376C608.4,-147.6 612.288,-138.24 612.288,-127.296L612.288,-39.744C612.288,-28.8 608.4,-19.44 600.624,-11.664C592.848,-3.888 583.488,0 572.544,0L482.4,0C471.456,0 462.096,-3.888 454.32,-11.664C446.544,-19.44 442.656,-28.8 442.656,-39.744L442.656,-127.296C442.656,-138.24 446.544,-147.6 454.32,-155.376C462.096,-163.152 471.456,-167.04 482.4,-167.04ZM572.544,-129.312L482.4,-129.312C481.056,-129.312 480.384,-128.64 480.384,-127.296L480.384,-39.744C480.384,-38.4 481.056,-37.728 482.4,-37.728L572.544,-37.728C573.888,-37.728 574.56,-38.4 574.56,-39.744L574.56,-127.296C574.56,-128.64 573.888,-129.312 572.544,-129.312Z" style="fill:rgb(255,0,0);fill-rule:nonzero;"/>
            </g>
            <g transform="matrix(1,0,0,1,1228.14,1404.21)">
                <path d="M54.72,-167.04L147.456,-167.04L147.456,-129.312L54.72,-129.312C53.376,-129.312 52.704,-128.64 52.704,-127.296L52.704,0L14.976,0L14.976,-127.296C14.976,-138.24 18.864,-147.6 26.64,-155.376C34.416,-163.152 43.776,-167.04 54.72,-167.04Z" style="fill:rgb(255,0,0);fill-rule:nonzero;"/>
                <path d="M270.144,-129.312L205.056,-129.312L205.056,-39.744C205.056,-38.4 205.728,-37.728 207.072,-37.728L270.144,-37.728L270.144,0L207.072,0C195.936,0 186.528,-3.888 178.848,-11.664C171.168,-19.44 167.328,-28.8 167.328,-39.744L167.328,-221.76L205.056,-221.76L205.056,-167.04L270.144,-167.04L270.144,-129.312Z" style="fill:rgb(255,0,0);fill-rule:nonzero;"/>
            </g>
        </g>
    </g>
</svg>
